<svg xmlns="http://www.w3.org/2000/svg" xmlns:xlink="http://www.w3.org/1999/xlink" width="400" zoomAndPan="magnify" viewBox="0 0 300 60" height="80" preserveAspectRatio="xMidYMid meet" version="1.0"><defs><g/><clipPath id="id1"><path d="M 28 3.105469 L 32 3.105469 L 32 8 L 28 8 Z M 28 3.105469 " clip-rule="nonzero"/></clipPath><clipPath id="id2"><path d="M 28.378906 52.480469 L 32 52.480469 L 32 57.078125 L 28.378906 57.078125 Z M 28.378906 52.480469 " clip-rule="nonzero"/></clipPath><clipPath id="id3"><path d="M 31 3.105469 L 36 3.105469 L 36 8 L 31 8 Z M 31 3.105469 " clip-rule="nonzero"/></clipPath><clipPath id="id4"><path d="M 31.714844 52.480469 L 35.371094 52.480469 L 35.371094 57.078125 L 31.714844 57.078125 Z M 31.714844 52.480469 " clip-rule="nonzero"/></clipPath><clipPath id="id5"><path d="M 52 34 L 57.75 34 L 57.75 40 L 52 40 Z M 52 34 " clip-rule="nonzero"/></clipPath><clipPath id="id6"><path d="M 52 21 L 57.75 21 L 57.75 26 L 52 26 Z M 52 21 " clip-rule="nonzero"/></clipPath><clipPath id="id7"><path d="M 31 16.851562 L 48.699219 16.851562 L 48.699219 43.101562 L 31 43.101562 Z M 31 16.851562 " clip-rule="nonzero"/></clipPath><clipPath id="id8"><path d="M 14.949219 16.851562 L 32 16.851562 L 32 43.101562 L 14.949219 43.101562 Z M 14.949219 16.851562 " clip-rule="nonzero"/></clipPath><clipPath id="id9"><path d="M 29.777344 10.886719 L 34.210938 10.886719 L 34.210938 15.101562 L 29.777344 15.101562 Z M 29.777344 10.886719 " clip-rule="nonzero"/></clipPath><clipPath id="id10"><path d="M 25.0625 38.542969 L 40.0625 38.542969 L 40.0625 46.042969 L 25.0625 46.042969 Z M 25.0625 38.542969 " clip-rule="nonzero"/></clipPath></defs><g fill="#ffffff" fill-opacity="1"><g transform="translate(124.641608, 53.693069)"><g><path d="M 5.9375 -0.40625 C 5.957031 -0.351562 5.96875 -0.300781 5.96875 -0.25 C 5.96875 -0.164062 5.929688 -0.09375 5.859375 -0.03125 C 5.796875 0.0195312 5.71875 0.046875 5.625 0.046875 C 5.488281 0.046875 5.390625 -0.0195312 5.328125 -0.15625 L 4.71875 -1.546875 L 1.5 -1.546875 L 0.890625 -0.15625 C 0.828125 -0.0195312 0.726562 0.046875 0.59375 0.046875 C 0.5 0.046875 0.414062 0.015625 0.34375 -0.046875 C 0.28125 -0.109375 0.25 -0.179688 0.25 -0.265625 C 0.25 -0.304688 0.257812 -0.351562 0.28125 -0.40625 L 2.71875 -5.84375 C 2.757812 -5.914062 2.8125 -5.972656 2.875 -6.015625 C 2.945312 -6.054688 3.023438 -6.078125 3.109375 -6.078125 C 3.191406 -6.078125 3.265625 -6.054688 3.328125 -6.015625 C 3.398438 -5.972656 3.453125 -5.914062 3.484375 -5.84375 Z M 1.765625 -2.125 L 4.46875 -2.125 L 3.109375 -5.203125 Z M 1.765625 -2.125 "/></g></g></g><g fill="#ffffff" fill-opacity="1"><g transform="translate(135.328563, 53.693069)"><g><path d="M 2.5625 0.046875 C 2.445312 0.046875 2.359375 0.015625 2.296875 -0.046875 C 2.234375 -0.117188 2.203125 -0.207031 2.203125 -0.3125 L 2.203125 -5.421875 L 0.359375 -5.421875 C 0.253906 -5.421875 0.171875 -5.445312 0.109375 -5.5 C 0.0546875 -5.550781 0.03125 -5.625 0.03125 -5.71875 C 0.03125 -5.820312 0.0546875 -5.898438 0.109375 -5.953125 C 0.171875 -6.003906 0.253906 -6.03125 0.359375 -6.03125 L 4.75 -6.03125 C 4.84375 -6.03125 4.914062 -6.003906 4.96875 -5.953125 C 5.03125 -5.898438 5.0625 -5.820312 5.0625 -5.71875 C 5.0625 -5.625 5.03125 -5.550781 4.96875 -5.5 C 4.914062 -5.445312 4.84375 -5.421875 4.75 -5.421875 L 2.90625 -5.421875 L 2.90625 -0.3125 C 2.90625 -0.207031 2.875 -0.117188 2.8125 -0.046875 C 2.75 0.015625 2.664062 0.046875 2.5625 0.046875 Z M 2.5625 0.046875 "/></g></g></g><g fill="#ffffff" fill-opacity="1"><g transform="translate(144.912626, 53.693069)"><g><path d="M 2.5625 0.046875 C 2.445312 0.046875 2.359375 0.015625 2.296875 -0.046875 C 2.234375 -0.117188 2.203125 -0.207031 2.203125 -0.3125 L 2.203125 -5.421875 L 0.359375 -5.421875 C 0.253906 -5.421875 0.171875 -5.445312 0.109375 -5.5 C 0.0546875 -5.550781 0.03125 -5.625 0.03125 -5.71875 C 0.03125 -5.820312 0.0546875 -5.898438 0.109375 -5.953125 C 0.171875 -6.003906 0.253906 -6.03125 0.359375 -6.03125 L 4.75 -6.03125 C 4.84375 -6.03125 4.914062 -6.003906 4.96875 -5.953125 C 5.03125 -5.898438 5.0625 -5.820312 5.0625 -5.71875 C 5.0625 -5.625 5.03125 -5.550781 4.96875 -5.5 C 4.914062 -5.445312 4.84375 -5.421875 4.75 -5.421875 L 2.90625 -5.421875 L 2.90625 -0.3125 C 2.90625 -0.207031 2.875 -0.117188 2.8125 -0.046875 C 2.75 0.015625 2.664062 0.046875 2.5625 0.046875 Z M 2.5625 0.046875 "/></g></g></g><g fill="#ffffff" fill-opacity="1"><g transform="translate(154.496689, 53.693069)"><g><path d="M 3.265625 0.0625 C 2.703125 0.0625 2.210938 -0.0625 1.796875 -0.3125 C 1.390625 -0.5625 1.070312 -0.914062 0.84375 -1.375 C 0.625 -1.832031 0.515625 -2.378906 0.515625 -3.015625 C 0.515625 -3.640625 0.625 -4.179688 0.84375 -4.640625 C 1.0625 -5.109375 1.378906 -5.46875 1.796875 -5.71875 C 2.210938 -5.96875 2.703125 -6.09375 3.265625 -6.09375 C 3.828125 -6.09375 4.3125 -5.96875 4.71875 -5.71875 C 5.132812 -5.46875 5.453125 -5.109375 5.671875 -4.640625 C 5.898438 -4.179688 6.015625 -3.640625 6.015625 -3.015625 C 6.015625 -2.390625 5.898438 -1.84375 5.671875 -1.375 C 5.453125 -0.914062 5.132812 -0.5625 4.71875 -0.3125 C 4.3125 -0.0625 3.828125 0.0625 3.265625 0.0625 Z M 3.265625 -0.53125 C 3.898438 -0.53125 4.394531 -0.742188 4.75 -1.171875 C 5.113281 -1.609375 5.296875 -2.222656 5.296875 -3.015625 C 5.296875 -3.816406 5.117188 -4.429688 4.765625 -4.859375 C 4.410156 -5.285156 3.910156 -5.5 3.265625 -5.5 C 2.628906 -5.5 2.128906 -5.28125 1.765625 -4.84375 C 1.410156 -4.414062 1.234375 -3.804688 1.234375 -3.015625 C 1.234375 -2.222656 1.410156 -1.609375 1.765625 -1.171875 C 2.128906 -0.742188 2.628906 -0.53125 3.265625 -0.53125 Z M 3.265625 -0.53125 "/></g></g></g><g fill="#ffffff" fill-opacity="1"><g transform="translate(165.499977, 53.693069)"><g><path d="M 3.09375 0.0625 C 2.3125 0.0625 1.71875 -0.140625 1.3125 -0.546875 C 0.90625 -0.953125 0.703125 -1.554688 0.703125 -2.359375 L 0.703125 -5.703125 C 0.703125 -5.816406 0.734375 -5.90625 0.796875 -5.96875 C 0.859375 -6.03125 0.941406 -6.0625 1.046875 -6.0625 C 1.148438 -6.0625 1.234375 -6.03125 1.296875 -5.96875 C 1.359375 -5.90625 1.390625 -5.816406 1.390625 -5.703125 L 1.390625 -2.296875 C 1.390625 -1.710938 1.53125 -1.269531 1.8125 -0.96875 C 2.101562 -0.675781 2.53125 -0.53125 3.09375 -0.53125 C 3.65625 -0.53125 4.078125 -0.675781 4.359375 -0.96875 C 4.640625 -1.269531 4.78125 -1.710938 4.78125 -2.296875 L 4.78125 -5.703125 C 4.78125 -5.816406 4.8125 -5.90625 4.875 -5.96875 C 4.945312 -6.03125 5.035156 -6.0625 5.140625 -6.0625 C 5.242188 -6.0625 5.328125 -6.03125 5.390625 -5.96875 C 5.453125 -5.90625 5.484375 -5.816406 5.484375 -5.703125 L 5.484375 -2.359375 C 5.484375 -1.566406 5.28125 -0.960938 4.875 -0.546875 C 4.46875 -0.140625 3.875 0.0625 3.09375 0.0625 Z M 3.09375 0.0625 "/></g></g></g><g fill="#ffffff" fill-opacity="1"><g transform="translate(176.161285, 53.693069)"><g><path d="M 5.34375 -0.4375 C 5.382812 -0.375 5.40625 -0.304688 5.40625 -0.234375 C 5.40625 -0.148438 5.367188 -0.0820312 5.296875 -0.03125 C 5.234375 0.0195312 5.160156 0.046875 5.078125 0.046875 C 4.941406 0.046875 4.835938 -0.0078125 4.765625 -0.125 L 3.625 -1.9375 C 3.476562 -2.164062 3.320312 -2.320312 3.15625 -2.40625 C 3 -2.5 2.785156 -2.546875 2.515625 -2.546875 L 1.4375 -2.546875 L 1.4375 -0.3125 C 1.4375 -0.207031 1.40625 -0.117188 1.34375 -0.046875 C 1.28125 0.015625 1.195312 0.046875 1.09375 0.046875 C 0.988281 0.046875 0.90625 0.015625 0.84375 -0.046875 C 0.78125 -0.117188 0.75 -0.207031 0.75 -0.3125 L 0.75 -5.6875 C 0.75 -5.789062 0.78125 -5.875 0.84375 -5.9375 C 0.90625 -6 0.992188 -6.03125 1.109375 -6.03125 L 3.21875 -6.03125 C 3.875 -6.03125 4.375 -5.882812 4.71875 -5.59375 C 5.0625 -5.300781 5.234375 -4.875 5.234375 -4.3125 C 5.234375 -3.832031 5.09375 -3.445312 4.8125 -3.15625 C 4.539062 -2.863281 4.148438 -2.6875 3.640625 -2.625 C 3.785156 -2.582031 3.914062 -2.507812 4.03125 -2.40625 C 4.144531 -2.300781 4.257812 -2.15625 4.375 -1.96875 Z M 3.15625 -3.125 C 3.625 -3.125 3.972656 -3.21875 4.203125 -3.40625 C 4.441406 -3.601562 4.5625 -3.898438 4.5625 -4.296875 C 4.5625 -4.679688 4.445312 -4.96875 4.21875 -5.15625 C 3.988281 -5.34375 3.632812 -5.4375 3.15625 -5.4375 L 1.4375 -5.4375 L 1.4375 -3.125 Z M 3.15625 -3.125 "/></g></g></g><g fill="#ffffff" fill-opacity="1"><g transform="translate(186.497707, 53.693069)"><g><path d="M 5.25 -6.0625 C 5.351562 -6.0625 5.429688 -6.03125 5.484375 -5.96875 C 5.546875 -5.90625 5.578125 -5.816406 5.578125 -5.703125 L 5.578125 -0.3125 C 5.578125 -0.207031 5.546875 -0.117188 5.484375 -0.046875 C 5.421875 0.015625 5.335938 0.046875 5.234375 0.046875 C 5.117188 0.046875 5.023438 -0.00390625 4.953125 -0.109375 L 1.40625 -4.84375 L 1.40625 -0.3125 C 1.40625 -0.207031 1.375 -0.117188 1.3125 -0.046875 C 1.25 0.015625 1.164062 0.046875 1.0625 0.046875 C 0.96875 0.046875 0.890625 0.015625 0.828125 -0.046875 C 0.773438 -0.117188 0.75 -0.207031 0.75 -0.3125 L 0.75 -5.703125 C 0.75 -5.816406 0.773438 -5.90625 0.828125 -5.96875 C 0.890625 -6.03125 0.972656 -6.0625 1.078125 -6.0625 C 1.191406 -6.0625 1.289062 -6.015625 1.375 -5.921875 L 4.921875 -1.171875 L 4.921875 -5.703125 C 4.921875 -5.816406 4.945312 -5.90625 5 -5.96875 C 5.0625 -6.03125 5.144531 -6.0625 5.25 -6.0625 Z M 5.25 -6.0625 "/></g></g></g><g fill="#ffffff" fill-opacity="1"><g transform="translate(197.287255, 53.693069)"><g><path d="M 1.109375 0 C 0.992188 0 0.90625 -0.03125 0.84375 -0.09375 C 0.78125 -0.15625 0.75 -0.238281 0.75 -0.34375 L 0.75 -5.6875 C 0.75 -5.789062 0.78125 -5.875 0.84375 -5.9375 C 0.90625 -6 0.992188 -6.03125 1.109375 -6.03125 L 4.296875 -6.03125 C 4.398438 -6.03125 4.476562 -6.003906 4.53125 -5.953125 C 4.59375 -5.898438 4.625 -5.828125 4.625 -5.734375 C 4.625 -5.640625 4.59375 -5.566406 4.53125 -5.515625 C 4.476562 -5.460938 4.398438 -5.4375 4.296875 -5.4375 L 1.4375 -5.4375 L 1.4375 -3.34375 L 4.125 -3.34375 C 4.226562 -3.34375 4.304688 -3.316406 4.359375 -3.265625 C 4.421875 -3.222656 4.453125 -3.15625 4.453125 -3.0625 C 4.453125 -2.96875 4.421875 -2.894531 4.359375 -2.84375 C 4.304688 -2.789062 4.226562 -2.765625 4.125 -2.765625 L 1.4375 -2.765625 L 1.4375 -0.578125 L 4.296875 -0.578125 C 4.398438 -0.578125 4.476562 -0.550781 4.53125 -0.5 C 4.59375 -0.457031 4.625 -0.390625 4.625 -0.296875 C 4.625 -0.203125 4.59375 -0.128906 4.53125 -0.078125 C 4.476562 -0.0234375 4.398438 0 4.296875 0 Z M 1.109375 0 "/></g></g></g><g fill="#ffffff" fill-opacity="1"><g transform="translate(206.734525, 53.693069)"><g><path d="M 4.515625 -5.9375 C 4.578125 -6.019531 4.660156 -6.0625 4.765625 -6.0625 C 4.835938 -6.0625 4.90625 -6.03125 4.96875 -5.96875 C 5.03125 -5.90625 5.0625 -5.828125 5.0625 -5.734375 C 5.0625 -5.648438 5.035156 -5.578125 4.984375 -5.515625 L 2.921875 -2.890625 L 2.921875 -0.3125 C 2.921875 -0.195312 2.882812 -0.109375 2.8125 -0.046875 C 2.75 0.015625 2.664062 0.046875 2.5625 0.046875 C 2.457031 0.046875 2.375 0.015625 2.3125 -0.046875 C 2.25 -0.109375 2.21875 -0.195312 2.21875 -0.3125 L 2.21875 -2.90625 L 0.140625 -5.515625 C 0.078125 -5.578125 0.046875 -5.648438 0.046875 -5.734375 C 0.046875 -5.828125 0.078125 -5.90625 0.140625 -5.96875 C 0.210938 -6.03125 0.289062 -6.0625 0.375 -6.0625 C 0.46875 -6.0625 0.550781 -6.019531 0.625 -5.9375 L 2.578125 -3.4375 Z M 4.515625 -5.9375 "/></g></g></g><g fill="#ffffff" fill-opacity="1"><g transform="translate(216.344229, 53.693069)"><g/></g></g><g fill="#ffffff" fill-opacity="1"><g transform="translate(223.021429, 53.693069)"><g><path d="M 5.9375 -0.40625 C 5.957031 -0.351562 5.96875 -0.300781 5.96875 -0.25 C 5.96875 -0.164062 5.929688 -0.09375 5.859375 -0.03125 C 5.796875 0.0195312 5.71875 0.046875 5.625 0.046875 C 5.488281 0.046875 5.390625 -0.0195312 5.328125 -0.15625 L 4.71875 -1.546875 L 1.5 -1.546875 L 0.890625 -0.15625 C 0.828125 -0.0195312 0.726562 0.046875 0.59375 0.046875 C 0.5 0.046875 0.414062 0.015625 0.34375 -0.046875 C 0.28125 -0.109375 0.25 -0.179688 0.25 -0.265625 C 0.25 -0.304688 0.257812 -0.351562 0.28125 -0.40625 L 2.71875 -5.84375 C 2.757812 -5.914062 2.8125 -5.972656 2.875 -6.015625 C 2.945312 -6.054688 3.023438 -6.078125 3.109375 -6.078125 C 3.191406 -6.078125 3.265625 -6.054688 3.328125 -6.015625 C 3.398438 -5.972656 3.453125 -5.914062 3.484375 -5.84375 Z M 1.765625 -2.125 L 4.46875 -2.125 L 3.109375 -5.203125 Z M 1.765625 -2.125 "/></g></g></g><g fill="#ffffff" fill-opacity="1"><g transform="translate(233.708385, 53.693069)"><g><path d="M 2.5625 0.046875 C 2.445312 0.046875 2.359375 0.015625 2.296875 -0.046875 C 2.234375 -0.117188 2.203125 -0.207031 2.203125 -0.3125 L 2.203125 -5.421875 L 0.359375 -5.421875 C 0.253906 -5.421875 0.171875 -5.445312 0.109375 -5.5 C 0.0546875 -5.550781 0.03125 -5.625 0.03125 -5.71875 C 0.03125 -5.820312 0.0546875 -5.898438 0.109375 -5.953125 C 0.171875 -6.003906 0.253906 -6.03125 0.359375 -6.03125 L 4.75 -6.03125 C 4.84375 -6.03125 4.914062 -6.003906 4.96875 -5.953125 C 5.03125 -5.898438 5.0625 -5.820312 5.0625 -5.71875 C 5.0625 -5.625 5.03125 -5.550781 4.96875 -5.5 C 4.914062 -5.445312 4.84375 -5.421875 4.75 -5.421875 L 2.90625 -5.421875 L 2.90625 -0.3125 C 2.90625 -0.207031 2.875 -0.117188 2.8125 -0.046875 C 2.75 0.015625 2.664062 0.046875 2.5625 0.046875 Z M 2.5625 0.046875 "/></g></g></g><g fill="#ffffff" fill-opacity="1"><g transform="translate(243.292448, 53.693069)"><g/></g></g><g fill="#ffffff" fill-opacity="1"><g transform="translate(249.969649, 53.693069)"><g><path d="M 1.078125 0 C 0.984375 0 0.90625 -0.0234375 0.84375 -0.078125 C 0.78125 -0.140625 0.75 -0.222656 0.75 -0.328125 L 0.75 -5.703125 C 0.75 -5.816406 0.78125 -5.90625 0.84375 -5.96875 C 0.90625 -6.03125 0.988281 -6.0625 1.09375 -6.0625 C 1.195312 -6.0625 1.28125 -6.03125 1.34375 -5.96875 C 1.40625 -5.90625 1.4375 -5.816406 1.4375 -5.703125 L 1.4375 -0.59375 L 4.203125 -0.59375 C 4.304688 -0.59375 4.382812 -0.566406 4.4375 -0.515625 C 4.5 -0.460938 4.53125 -0.390625 4.53125 -0.296875 C 4.53125 -0.203125 4.5 -0.128906 4.4375 -0.078125 C 4.382812 -0.0234375 4.304688 0 4.203125 0 Z M 1.078125 0 "/></g></g></g><g fill="#ffffff" fill-opacity="1"><g transform="translate(259.057829, 53.693069)"><g><path d="M 5.9375 -0.40625 C 5.957031 -0.351562 5.96875 -0.300781 5.96875 -0.25 C 5.96875 -0.164062 5.929688 -0.09375 5.859375 -0.03125 C 5.796875 0.0195312 5.71875 0.046875 5.625 0.046875 C 5.488281 0.046875 5.390625 -0.0195312 5.328125 -0.15625 L 4.71875 -1.546875 L 1.5 -1.546875 L 0.890625 -0.15625 C 0.828125 -0.0195312 0.726562 0.046875 0.59375 0.046875 C 0.5 0.046875 0.414062 0.015625 0.34375 -0.046875 C 0.28125 -0.109375 0.25 -0.179688 0.25 -0.265625 C 0.25 -0.304688 0.257812 -0.351562 0.28125 -0.40625 L 2.71875 -5.84375 C 2.757812 -5.914062 2.8125 -5.972656 2.875 -6.015625 C 2.945312 -6.054688 3.023438 -6.078125 3.109375 -6.078125 C 3.191406 -6.078125 3.265625 -6.054688 3.328125 -6.015625 C 3.398438 -5.972656 3.453125 -5.914062 3.484375 -5.84375 Z M 1.765625 -2.125 L 4.46875 -2.125 L 3.109375 -5.203125 Z M 1.765625 -2.125 "/></g></g></g><g fill="#ffffff" fill-opacity="1"><g transform="translate(269.744785, 53.693069)"><g><path d="M 8.4375 -5.859375 C 8.46875 -5.929688 8.507812 -5.984375 8.5625 -6.015625 C 8.625 -6.054688 8.6875 -6.078125 8.75 -6.078125 C 8.84375 -6.078125 8.921875 -6.050781 8.984375 -6 C 9.046875 -5.945312 9.078125 -5.875 9.078125 -5.78125 C 9.078125 -5.738281 9.070312 -5.691406 9.0625 -5.640625 L 7.125 -0.203125 C 7.09375 -0.117188 7.039062 -0.0546875 6.96875 -0.015625 C 6.90625 0.0234375 6.832031 0.046875 6.75 0.046875 C 6.664062 0.046875 6.585938 0.0234375 6.515625 -0.015625 C 6.453125 -0.0546875 6.410156 -0.117188 6.390625 -0.203125 L 4.703125 -4.9375 L 3.015625 -0.203125 C 2.984375 -0.117188 2.929688 -0.0546875 2.859375 -0.015625 C 2.796875 0.0234375 2.726562 0.046875 2.65625 0.046875 C 2.570312 0.046875 2.492188 0.0234375 2.421875 -0.015625 C 2.359375 -0.0546875 2.3125 -0.117188 2.28125 -0.203125 L 0.34375 -5.640625 C 0.320312 -5.679688 0.3125 -5.722656 0.3125 -5.765625 C 0.3125 -5.859375 0.347656 -5.929688 0.421875 -5.984375 C 0.492188 -6.046875 0.578125 -6.078125 0.671875 -6.078125 C 0.734375 -6.078125 0.796875 -6.054688 0.859375 -6.015625 C 0.921875 -5.984375 0.960938 -5.929688 0.984375 -5.859375 L 2.671875 -1 L 4.375 -5.796875 C 4.40625 -5.890625 4.453125 -5.957031 4.515625 -6 C 4.578125 -6.039062 4.644531 -6.0625 4.71875 -6.0625 C 4.789062 -6.0625 4.859375 -6.035156 4.921875 -5.984375 C 4.984375 -5.941406 5.03125 -5.878906 5.0625 -5.796875 L 6.75 -0.984375 Z M 8.4375 -5.859375 "/></g></g></g><g fill="#ffffff" fill-opacity="1"><g transform="translate(64.436447, 39.494884)"><g><path d="M 25.375 -17.125 L 24.046875 -17.125 C 23.984375 -18.144531 23.832031 -18.988281 23.59375 -19.65625 C 23.351562 -20.332031 23.015625 -20.875 22.578125 -21.28125 C 22.140625 -21.6875 21.609375 -21.96875 20.984375 -22.125 C 20.359375 -22.28125 19.632812 -22.359375 18.8125 -22.359375 C 18 -22.359375 17.347656 -22.34375 16.859375 -22.3125 C 16.367188 -22.28125 15.992188 -22.226562 15.734375 -22.15625 C 15.484375 -22.082031 15.316406 -21.984375 15.234375 -21.859375 C 15.148438 -21.734375 15.109375 -21.578125 15.109375 -21.390625 L 15.109375 -5.078125 C 15.109375 -4.410156 15.15625 -3.835938 15.25 -3.359375 C 15.34375 -2.878906 15.53125 -2.488281 15.8125 -2.1875 C 16.101562 -1.894531 16.53125 -1.671875 17.09375 -1.515625 C 17.65625 -1.359375 18.394531 -1.269531 19.3125 -1.25 L 19.3125 0 L 6.265625 0 L 6.265625 -1.25 C 7.191406 -1.269531 7.9375 -1.359375 8.5 -1.515625 C 9.0625 -1.671875 9.492188 -1.894531 9.796875 -2.1875 C 10.097656 -2.488281 10.296875 -2.878906 10.390625 -3.359375 C 10.484375 -3.835938 10.53125 -4.410156 10.53125 -5.078125 L 10.53125 -21.390625 C 10.53125 -21.578125 10.492188 -21.734375 10.421875 -21.859375 C 10.347656 -21.984375 10.195312 -22.082031 9.96875 -22.15625 C 9.738281 -22.226562 9.410156 -22.28125 8.984375 -22.3125 C 8.554688 -22.34375 8 -22.359375 7.3125 -22.359375 C 6.570312 -22.359375 5.859375 -22.320312 5.171875 -22.25 C 4.484375 -22.175781 3.878906 -21.96875 3.359375 -21.625 C 2.835938 -21.28125 2.414062 -20.757812 2.09375 -20.0625 C 1.78125 -19.375 1.613281 -18.394531 1.59375 -17.125 L 0.375 -17.125 L 0.6875 -23.984375 L 25.0625 -23.984375 Z M 25.375 -17.125 "/></g></g></g><g fill="#ffffff" fill-opacity="1"><g transform="translate(90.169952, 39.494884)"><g><path d="M 10.21875 -16.8125 C 11.457031 -16.8125 12.632812 -16.597656 13.75 -16.171875 C 14.863281 -15.753906 15.835938 -15.171875 16.671875 -14.421875 C 17.515625 -13.671875 18.179688 -12.78125 18.671875 -11.75 C 19.160156 -10.726562 19.40625 -9.601562 19.40625 -8.375 C 19.40625 -7.113281 19.160156 -5.953125 18.671875 -4.890625 C 18.179688 -3.828125 17.515625 -2.910156 16.671875 -2.140625 C 15.835938 -1.378906 14.863281 -0.78125 13.75 -0.34375 C 12.632812 0.09375 11.457031 0.3125 10.21875 0.3125 C 8.988281 0.3125 7.820312 0.0976562 6.71875 -0.328125 C 5.625 -0.753906 4.660156 -1.347656 3.828125 -2.109375 C 2.992188 -2.878906 2.335938 -3.800781 1.859375 -4.875 C 1.390625 -5.945312 1.15625 -7.113281 1.15625 -8.375 C 1.15625 -9.601562 1.390625 -10.734375 1.859375 -11.765625 C 2.335938 -12.804688 2.992188 -13.695312 3.828125 -14.4375 C 4.660156 -15.1875 5.625 -15.769531 6.71875 -16.1875 C 7.820312 -16.601562 8.988281 -16.8125 10.21875 -16.8125 Z M 10.21875 -15.015625 C 9.59375 -15.015625 9.019531 -14.851562 8.5 -14.53125 C 7.976562 -14.207031 7.535156 -13.753906 7.171875 -13.171875 C 6.816406 -12.585938 6.539062 -11.882812 6.34375 -11.0625 C 6.144531 -10.25 6.046875 -9.34375 6.046875 -8.34375 C 6.046875 -7.300781 6.144531 -6.363281 6.34375 -5.53125 C 6.539062 -4.707031 6.816406 -4.003906 7.171875 -3.421875 C 7.535156 -2.835938 7.972656 -2.382812 8.484375 -2.0625 C 8.992188 -1.75 9.570312 -1.59375 10.21875 -1.59375 C 10.851562 -1.59375 11.4375 -1.75 11.96875 -2.0625 C 12.5 -2.382812 12.953125 -2.84375 13.328125 -3.4375 C 13.703125 -4.03125 13.992188 -4.738281 14.203125 -5.5625 C 14.410156 -6.394531 14.515625 -7.320312 14.515625 -8.34375 C 14.515625 -9.34375 14.410156 -10.242188 14.203125 -11.046875 C 13.992188 -11.859375 13.703125 -12.5625 13.328125 -13.15625 C 12.953125 -13.75 12.5 -14.207031 11.96875 -14.53125 C 11.4375 -14.851562 10.851562 -15.015625 10.21875 -15.015625 Z M 10.21875 -15.015625 "/></g></g></g><g fill="#ffffff" fill-opacity="1"><g transform="translate(110.706991, 39.494884)"><g><path d="M 14.984375 -2 L 14.859375 -2 C 13.421875 -0.457031 11.5625 0.3125 9.28125 0.3125 C 8.09375 0.3125 7.003906 0.101562 6.015625 -0.3125 C 5.035156 -0.726562 4.1875 -1.304688 3.46875 -2.046875 C 2.75 -2.796875 2.191406 -3.6875 1.796875 -4.71875 C 1.410156 -5.75 1.21875 -6.882812 1.21875 -8.125 C 1.21875 -9.375 1.414062 -10.523438 1.8125 -11.578125 C 2.21875 -12.640625 2.769531 -13.5625 3.46875 -14.34375 C 4.164062 -15.125 4.992188 -15.726562 5.953125 -16.15625 C 6.921875 -16.59375 7.96875 -16.8125 9.09375 -16.8125 C 10.132812 -16.8125 11.050781 -16.65625 11.84375 -16.34375 C 12.644531 -16.03125 13.347656 -15.503906 13.953125 -14.765625 L 14.078125 -14.765625 L 14.078125 -17.40625 C 14.078125 -18.632812 14.0625 -19.6875 14.03125 -20.5625 C 14 -21.445312 13.953125 -22.023438 13.890625 -22.296875 C 13.785156 -22.734375 13.46875 -23.050781 12.9375 -23.25 C 12.40625 -23.445312 11.59375 -23.546875 10.5 -23.546875 L 10.5 -24.59375 L 18.375 -25.84375 L 18.375 -8.03125 C 18.375 -6.476562 18.390625 -5.28125 18.421875 -4.4375 C 18.453125 -3.59375 18.507812 -2.953125 18.59375 -2.515625 C 18.632812 -2.253906 18.695312 -2.039062 18.78125 -1.875 C 18.863281 -1.707031 18.988281 -1.578125 19.15625 -1.484375 C 19.320312 -1.390625 19.539062 -1.328125 19.8125 -1.296875 C 20.09375 -1.265625 20.453125 -1.25 20.890625 -1.25 L 20.890625 -0.03125 L 14.984375 0.3125 Z M 14.015625 -8.9375 C 14.015625 -9.726562 13.929688 -10.457031 13.765625 -11.125 C 13.597656 -11.800781 13.347656 -12.398438 13.015625 -12.921875 C 12.640625 -13.523438 12.160156 -13.984375 11.578125 -14.296875 C 11.003906 -14.609375 10.382812 -14.765625 9.71875 -14.765625 C 8.488281 -14.765625 7.550781 -14.203125 6.90625 -13.078125 C 6.269531 -11.953125 5.953125 -10.320312 5.953125 -8.1875 C 5.953125 -6.03125 6.269531 -4.367188 6.90625 -3.203125 C 7.550781 -2.046875 8.476562 -1.46875 9.6875 -1.46875 C 10.375 -1.46875 11.023438 -1.640625 11.640625 -1.984375 C 12.265625 -2.335938 12.773438 -2.816406 13.171875 -3.421875 C 13.460938 -3.878906 13.675781 -4.445312 13.8125 -5.125 C 13.945312 -5.800781 14.015625 -6.664062 14.015625 -7.71875 Z M 14.015625 -8.9375 "/></g></g></g><g fill="#ffffff" fill-opacity="1"><g transform="translate(132.301991, 39.494884)"><g><path d="M 14.984375 -2 L 14.859375 -2 C 13.421875 -0.457031 11.5625 0.3125 9.28125 0.3125 C 8.09375 0.3125 7.003906 0.101562 6.015625 -0.3125 C 5.035156 -0.726562 4.1875 -1.304688 3.46875 -2.046875 C 2.75 -2.796875 2.191406 -3.6875 1.796875 -4.71875 C 1.410156 -5.75 1.21875 -6.882812 1.21875 -8.125 C 1.21875 -9.375 1.414062 -10.523438 1.8125 -11.578125 C 2.21875 -12.640625 2.769531 -13.5625 3.46875 -14.34375 C 4.164062 -15.125 4.992188 -15.726562 5.953125 -16.15625 C 6.921875 -16.59375 7.96875 -16.8125 9.09375 -16.8125 C 10.132812 -16.8125 11.050781 -16.65625 11.84375 -16.34375 C 12.644531 -16.03125 13.347656 -15.503906 13.953125 -14.765625 L 14.078125 -14.765625 L 14.078125 -17.40625 C 14.078125 -18.632812 14.0625 -19.6875 14.03125 -20.5625 C 14 -21.445312 13.953125 -22.023438 13.890625 -22.296875 C 13.785156 -22.734375 13.46875 -23.050781 12.9375 -23.25 C 12.40625 -23.445312 11.59375 -23.546875 10.5 -23.546875 L 10.5 -24.59375 L 18.375 -25.84375 L 18.375 -8.03125 C 18.375 -6.476562 18.390625 -5.28125 18.421875 -4.4375 C 18.453125 -3.59375 18.507812 -2.953125 18.59375 -2.515625 C 18.632812 -2.253906 18.695312 -2.039062 18.78125 -1.875 C 18.863281 -1.707031 18.988281 -1.578125 19.15625 -1.484375 C 19.320312 -1.390625 19.539062 -1.328125 19.8125 -1.296875 C 20.09375 -1.265625 20.453125 -1.25 20.890625 -1.25 L 20.890625 -0.03125 L 14.984375 0.3125 Z M 14.015625 -8.9375 C 14.015625 -9.726562 13.929688 -10.457031 13.765625 -11.125 C 13.597656 -11.800781 13.347656 -12.398438 13.015625 -12.921875 C 12.640625 -13.523438 12.160156 -13.984375 11.578125 -14.296875 C 11.003906 -14.609375 10.382812 -14.765625 9.71875 -14.765625 C 8.488281 -14.765625 7.550781 -14.203125 6.90625 -13.078125 C 6.269531 -11.953125 5.953125 -10.320312 5.953125 -8.1875 C 5.953125 -6.03125 6.269531 -4.367188 6.90625 -3.203125 C 7.550781 -2.046875 8.476562 -1.46875 9.6875 -1.46875 C 10.375 -1.46875 11.023438 -1.640625 11.640625 -1.984375 C 12.265625 -2.335938 12.773438 -2.816406 13.171875 -3.421875 C 13.460938 -3.878906 13.675781 -4.445312 13.8125 -5.125 C 13.945312 -5.800781 14.015625 -6.664062 14.015625 -7.71875 Z M 14.015625 -8.9375 "/></g></g></g><g fill="#ffffff" fill-opacity="1"><g transform="translate(153.896992, 39.494884)"><g/></g></g><g fill="#ffffff" fill-opacity="1"><g transform="translate(162.174029, 39.494884)"><g><path d="M 8.9375 -13.265625 C 10.269531 -13.265625 11.335938 -13.304688 12.140625 -13.390625 C 12.953125 -13.472656 13.582031 -13.644531 14.03125 -13.90625 C 14.476562 -14.164062 14.796875 -14.539062 14.984375 -15.03125 C 15.171875 -15.53125 15.316406 -16.207031 15.421875 -17.0625 L 16.5625 -17.0625 L 16.5625 -7.9375 L 15.421875 -7.9375 C 15.296875 -8.769531 15.128906 -9.4375 14.921875 -9.9375 C 14.710938 -10.4375 14.378906 -10.8125 13.921875 -11.0625 C 13.460938 -11.320312 12.84375 -11.488281 12.0625 -11.5625 C 11.289062 -11.632812 10.25 -11.671875 8.9375 -11.671875 L 8.9375 -5.265625 C 8.9375 -4.597656 9.023438 -4.035156 9.203125 -3.578125 C 9.378906 -3.117188 9.675781 -2.75 10.09375 -2.46875 C 10.507812 -2.195312 11.054688 -2.003906 11.734375 -1.890625 C 12.421875 -1.773438 13.265625 -1.71875 14.265625 -1.71875 C 15.441406 -1.71875 16.441406 -1.800781 17.265625 -1.96875 C 18.085938 -2.132812 18.765625 -2.421875 19.296875 -2.828125 C 19.835938 -3.242188 20.273438 -3.800781 20.609375 -4.5 C 20.941406 -5.195312 21.222656 -6.070312 21.453125 -7.125 L 22.703125 -7.125 L 22.203125 0 L 1.09375 0 L 1.09375 -1.25 C 1.78125 -1.269531 2.335938 -1.332031 2.765625 -1.4375 C 3.203125 -1.539062 3.535156 -1.710938 3.765625 -1.953125 C 3.992188 -2.203125 4.148438 -2.554688 4.234375 -3.015625 C 4.316406 -3.472656 4.359375 -4.066406 4.359375 -4.796875 L 4.359375 -19.1875 C 4.359375 -19.90625 4.320312 -20.488281 4.25 -20.9375 C 4.175781 -21.382812 4.035156 -21.738281 3.828125 -22 C 3.617188 -22.257812 3.320312 -22.4375 2.9375 -22.53125 C 2.550781 -22.625 2.050781 -22.691406 1.4375 -22.734375 L 1.4375 -23.984375 L 21.109375 -23.984375 L 21.328125 -17.875 L 20 -17.875 C 19.875 -18.75 19.675781 -19.46875 19.40625 -20.03125 C 19.132812 -20.601562 18.757812 -21.0625 18.28125 -21.40625 C 17.800781 -21.75 17.179688 -21.988281 16.421875 -22.125 C 15.671875 -22.257812 14.742188 -22.328125 13.640625 -22.328125 L 10.125 -22.328125 C 9.582031 -22.328125 9.25 -22.257812 9.125 -22.125 C 9 -21.988281 8.9375 -21.671875 8.9375 -21.171875 Z M 8.9375 -13.265625 "/></g></g></g><g fill="#ffffff" fill-opacity="1"><g transform="translate(185.947205, 39.494884)"><g><path d="M 3.140625 -12.484375 C 2.910156 -13.085938 2.691406 -13.570312 2.484375 -13.9375 C 2.285156 -14.300781 2.078125 -14.582031 1.859375 -14.78125 C 1.640625 -14.976562 1.398438 -15.109375 1.140625 -15.171875 C 0.878906 -15.234375 0.570312 -15.265625 0.21875 -15.265625 L 0.21875 -16.5 L 9.53125 -16.5 L 9.53125 -15.265625 C 9.007812 -15.265625 8.597656 -15.242188 8.296875 -15.203125 C 7.992188 -15.160156 7.765625 -15.097656 7.609375 -15.015625 C 7.453125 -14.929688 7.351562 -14.820312 7.3125 -14.6875 C 7.269531 -14.550781 7.25 -14.398438 7.25 -14.234375 C 7.25 -13.960938 7.300781 -13.648438 7.40625 -13.296875 C 7.507812 -12.941406 7.632812 -12.585938 7.78125 -12.234375 L 10.75 -4.078125 L 10.875 -4.078125 L 14.203125 -12.203125 C 14.347656 -12.554688 14.460938 -12.875 14.546875 -13.15625 C 14.628906 -13.4375 14.671875 -13.691406 14.671875 -13.921875 C 14.671875 -14.378906 14.515625 -14.710938 14.203125 -14.921875 C 13.890625 -15.128906 13.335938 -15.242188 12.546875 -15.265625 L 12.546875 -16.5 L 19.4375 -16.5 L 19.4375 -15.265625 C 18.875 -15.265625 18.390625 -15.117188 17.984375 -14.828125 C 17.578125 -14.535156 17.15625 -13.890625 16.71875 -12.890625 L 10.90625 0.3125 L 8.0625 0.3125 Z M 3.140625 -12.484375 "/></g></g></g><g fill="#ffffff" fill-opacity="1"><g transform="translate(205.364029, 39.494884)"><g><path d="M 10.71875 -8.875 C 8.96875 -8.082031 7.648438 -7.347656 6.765625 -6.671875 C 5.890625 -6.003906 5.453125 -5.304688 5.453125 -4.578125 C 5.453125 -3.972656 5.617188 -3.492188 5.953125 -3.140625 C 6.285156 -2.785156 6.695312 -2.609375 7.1875 -2.609375 C 7.6875 -2.609375 8.15625 -2.695312 8.59375 -2.875 C 9.03125 -3.050781 9.40625 -3.285156 9.71875 -3.578125 C 10.03125 -3.867188 10.273438 -4.21875 10.453125 -4.625 C 10.628906 -5.03125 10.71875 -5.460938 10.71875 -5.921875 Z M 10.71875 -10.53125 L 10.71875 -11.828125 C 10.71875 -13.035156 10.503906 -13.914062 10.078125 -14.46875 C 9.648438 -15.019531 8.988281 -15.296875 8.09375 -15.296875 C 7.488281 -15.296875 7.03125 -15.132812 6.71875 -14.8125 C 6.414062 -14.488281 6.128906 -13.953125 5.859375 -13.203125 C 5.671875 -12.679688 5.40625 -12.273438 5.0625 -11.984375 C 4.71875 -11.691406 4.242188 -11.546875 3.640625 -11.546875 C 3.054688 -11.546875 2.609375 -11.722656 2.296875 -12.078125 C 1.992188 -12.429688 1.84375 -12.929688 1.84375 -13.578125 C 1.84375 -14.578125 2.382812 -15.363281 3.46875 -15.9375 C 4.5625 -16.519531 6.207031 -16.8125 8.40625 -16.8125 C 10.726562 -16.8125 12.390625 -16.390625 13.390625 -15.546875 C 14.390625 -14.710938 14.890625 -13.304688 14.890625 -11.328125 L 14.890625 -4.515625 C 14.890625 -2.753906 15.238281 -1.875 15.9375 -1.875 C 16.332031 -1.875 16.695312 -2.003906 17.03125 -2.265625 L 17.5 -1.375 C 17.207031 -0.851562 16.753906 -0.441406 16.140625 -0.140625 C 15.535156 0.160156 14.847656 0.3125 14.078125 0.3125 C 13.117188 0.3125 12.390625 0.0195312 11.890625 -0.5625 C 11.390625 -1.144531 11.140625 -1.960938 11.140625 -3.015625 L 11 -3.015625 C 10.394531 -1.941406 9.613281 -1.125 8.65625 -0.5625 C 7.695312 0 6.609375 0.28125 5.390625 0.28125 C 4.078125 0.28125 3.023438 -0.0859375 2.234375 -0.828125 C 1.453125 -1.566406 1.0625 -2.523438 1.0625 -3.703125 C 1.0625 -4.617188 1.460938 -5.472656 2.265625 -6.265625 C 3.078125 -7.066406 4.429688 -7.851562 6.328125 -8.625 Z M 10.71875 -10.53125 "/></g></g></g><g fill="#ffffff" fill-opacity="1"><g transform="translate(223.225025, 39.494884)"><g><path d="M 8 -5.078125 C 8 -4.222656 8.023438 -3.550781 8.078125 -3.0625 C 8.128906 -2.570312 8.242188 -2.195312 8.421875 -1.9375 C 8.597656 -1.6875 8.867188 -1.519531 9.234375 -1.4375 C 9.597656 -1.351562 10.09375 -1.289062 10.71875 -1.25 L 10.71875 0 L 0.90625 0 L 0.90625 -1.25 C 1.507812 -1.289062 1.988281 -1.351562 2.34375 -1.4375 C 2.707031 -1.519531 2.988281 -1.679688 3.1875 -1.921875 C 3.382812 -2.171875 3.515625 -2.523438 3.578125 -2.984375 C 3.640625 -3.441406 3.671875 -4.066406 3.671875 -4.859375 L 3.671875 -8.75 C 3.671875 -9.976562 3.648438 -10.96875 3.609375 -11.71875 C 3.566406 -12.476562 3.515625 -12.992188 3.453125 -13.265625 C 3.390625 -13.535156 3.304688 -13.757812 3.203125 -13.9375 C 3.097656 -14.113281 2.941406 -14.25 2.734375 -14.34375 C 2.523438 -14.4375 2.265625 -14.5 1.953125 -14.53125 C 1.648438 -14.5625 1.257812 -14.578125 0.78125 -14.578125 L 0.78125 -15.625 L 6.78125 -16.8125 L 7.1875 -14.078125 L 7.3125 -14.078125 C 8 -14.953125 8.804688 -15.625 9.734375 -16.09375 C 10.671875 -16.570312 11.703125 -16.8125 12.828125 -16.8125 C 14.160156 -16.8125 15.234375 -16.628906 16.046875 -16.265625 C 16.867188 -15.898438 17.601562 -15.296875 18.25 -14.453125 C 18.601562 -13.972656 18.914062 -13.351562 19.1875 -12.59375 C 19.457031 -11.832031 19.59375 -10.789062 19.59375 -9.46875 L 19.59375 -5.078125 C 19.59375 -4.222656 19.617188 -3.550781 19.671875 -3.0625 C 19.722656 -2.570312 19.832031 -2.195312 20 -1.9375 C 20.175781 -1.6875 20.441406 -1.519531 20.796875 -1.4375 C 21.148438 -1.351562 21.628906 -1.289062 22.234375 -1.25 L 22.234375 0 L 12.484375 0 L 12.484375 -1.25 C 13.109375 -1.269531 13.601562 -1.328125 13.96875 -1.421875 C 14.332031 -1.515625 14.609375 -1.679688 14.796875 -1.921875 C 14.984375 -2.171875 15.109375 -2.53125 15.171875 -3 C 15.234375 -3.46875 15.265625 -4.085938 15.265625 -4.859375 L 15.265625 -9.09375 C 15.265625 -10.15625 15.203125 -11.046875 15.078125 -11.765625 C 14.953125 -12.492188 14.75 -13.082031 14.46875 -13.53125 C 14.1875 -13.976562 13.816406 -14.300781 13.359375 -14.5 C 12.898438 -14.695312 12.328125 -14.796875 11.640625 -14.796875 C 10.984375 -14.796875 10.414062 -14.609375 9.9375 -14.234375 C 9.457031 -13.859375 9.039062 -13.335938 8.6875 -12.671875 C 8.5 -12.296875 8.335938 -11.8125 8.203125 -11.21875 C 8.066406 -10.632812 8 -10.019531 8 -9.375 Z M 8 -5.078125 "/></g></g></g><g fill="#ffffff" fill-opacity="1"><g transform="translate(245.846873, 39.494884)"><g><path d="M 2.640625 0 L 1.6875 0 L 1.6875 -5.671875 L 2.984375 -5.671875 C 3.335938 -4.171875 3.847656 -3.078125 4.515625 -2.390625 C 5.179688 -1.710938 6.039062 -1.375 7.09375 -1.375 C 7.863281 -1.375 8.460938 -1.53125 8.890625 -1.84375 C 9.316406 -2.164062 9.53125 -2.609375 9.53125 -3.171875 C 9.53125 -3.753906 9.269531 -4.320312 8.75 -4.875 C 8.226562 -5.425781 7.390625 -6.015625 6.234375 -6.640625 C 4.648438 -7.484375 3.515625 -8.328125 2.828125 -9.171875 C 2.148438 -10.015625 1.8125 -10.960938 1.8125 -12.015625 C 1.8125 -12.703125 1.9375 -13.34375 2.1875 -13.9375 C 2.445312 -14.53125 2.800781 -15.039062 3.25 -15.46875 C 3.695312 -15.90625 4.234375 -16.242188 4.859375 -16.484375 C 5.484375 -16.722656 6.15625 -16.84375 6.875 -16.84375 C 7.519531 -16.84375 8.160156 -16.75 8.796875 -16.5625 C 9.429688 -16.375 9.988281 -16.113281 10.46875 -15.78125 L 11.03125 -16.53125 L 11.828125 -16.53125 L 11.828125 -11.828125 L 10.625 -11.828125 C 10.144531 -13.015625 9.648438 -13.867188 9.140625 -14.390625 C 8.628906 -14.910156 8.007812 -15.171875 7.28125 -15.171875 C 6.707031 -15.171875 6.25 -15.015625 5.90625 -14.703125 C 5.5625 -14.390625 5.390625 -13.972656 5.390625 -13.453125 C 5.390625 -12.867188 5.640625 -12.316406 6.140625 -11.796875 C 6.648438 -11.285156 7.5 -10.71875 8.6875 -10.09375 C 9.519531 -9.632812 10.234375 -9.1875 10.828125 -8.75 C 11.429688 -8.3125 11.921875 -7.867188 12.296875 -7.421875 C 12.671875 -6.972656 12.945312 -6.503906 13.125 -6.015625 C 13.300781 -5.535156 13.390625 -5.015625 13.390625 -4.453125 C 13.390625 -3.722656 13.253906 -3.066406 12.984375 -2.484375 C 12.710938 -1.910156 12.328125 -1.414062 11.828125 -1 C 11.335938 -0.582031 10.742188 -0.257812 10.046875 -0.03125 C 9.347656 0.195312 8.570312 0.3125 7.71875 0.3125 C 6.832031 0.3125 6.003906 0.191406 5.234375 -0.046875 C 4.460938 -0.285156 3.828125 -0.632812 3.328125 -1.09375 Z M 2.640625 0 "/></g></g></g><path fill="#bd9d60" d="M 8.246094 31.847656 L 7.175781 35.175781 L 10.019531 34.578125 L 9.121094 31.789062 Z M 7.015625 35.425781 C 6.984375 35.425781 6.957031 35.414062 6.933594 35.390625 C 6.910156 35.363281 6.902344 35.320312 6.914062 35.285156 L 8.066406 31.710938 C 8.078125 31.671875 8.117188 31.640625 8.160156 31.636719 L 9.191406 31.566406 C 9.242188 31.5625 9.285156 31.59375 9.300781 31.640625 L 10.261719 34.625 C 10.269531 34.65625 10.269531 34.6875 10.253906 34.714844 C 10.238281 34.742188 10.210938 34.761719 10.183594 34.765625 L 7.035156 35.425781 C 7.03125 35.425781 7.023438 35.425781 7.015625 35.425781 " fill-opacity="1" fill-rule="nonzero"/><path fill="#bd9d60" d="M 6.246094 38.0625 L 7.269531 38.8125 L 10.957031 37.492188 L 10.085938 34.785156 L 7.097656 35.414062 Z M 7.25 39.042969 C 7.230469 39.042969 7.207031 39.035156 7.1875 39.023438 L 6.054688 38.191406 C 6.015625 38.164062 6 38.113281 6.015625 38.070312 L 6.914062 35.285156 C 6.925781 35.25 6.957031 35.21875 6.992188 35.210938 L 10.136719 34.554688 C 10.191406 34.542969 10.246094 34.574219 10.261719 34.625 L 11.195312 37.523438 C 11.214844 37.582031 11.183594 37.640625 11.128906 37.660156 L 7.289062 39.035156 C 7.277344 39.039062 7.265625 39.042969 7.25 39.042969 " fill-opacity="1" fill-rule="nonzero"/><path fill="#bd9d60" d="M 13.066406 43.324219 L 13.074219 43.359375 L 13.09375 43.347656 Z M 13.019531 43.640625 C 13.007812 43.640625 12.996094 43.636719 12.984375 43.632812 C 12.953125 43.625 12.925781 43.597656 12.917969 43.5625 L 12.757812 43.074219 C 12.746094 43.03125 12.761719 42.980469 12.796875 42.953125 C 12.835938 42.925781 12.886719 42.925781 12.925781 42.953125 L 13.339844 43.257812 C 13.367188 43.28125 13.386719 43.3125 13.386719 43.347656 C 13.382812 43.382812 13.367188 43.414062 13.339844 43.433594 L 13.078125 43.621094 C 13.0625 43.632812 13.039062 43.640625 13.019531 43.640625 " fill-opacity="1" fill-rule="nonzero"/><path fill="#bd9d60" d="M 7.480469 38.96875 L 10.480469 41.164062 L 11.902344 40.421875 L 11.023438 37.695312 Z M 10.472656 41.398438 C 10.449219 41.398438 10.429688 41.394531 10.410156 41.378906 L 7.1875 39.023438 C 7.15625 38.996094 7.140625 38.957031 7.144531 38.917969 C 7.152344 38.878906 7.179688 38.84375 7.214844 38.832031 L 11.058594 37.457031 C 11.085938 37.445312 11.113281 37.449219 11.140625 37.460938 C 11.167969 37.472656 11.1875 37.496094 11.195312 37.523438 L 12.136719 40.441406 C 12.152344 40.492188 12.128906 40.546875 12.082031 40.574219 L 10.523438 41.386719 C 10.507812 41.398438 10.488281 41.398438 10.472656 41.398438 " fill-opacity="1" fill-rule="nonzero"/><path fill="#bd9d60" d="M 10.675781 41.308594 L 12.65625 42.757812 L 11.972656 40.632812 Z M 12.859375 43.152344 C 12.839844 43.152344 12.816406 43.144531 12.796875 43.128906 L 10.410156 41.378906 C 10.378906 41.359375 10.363281 41.320312 10.367188 41.285156 C 10.367188 41.246094 10.390625 41.214844 10.421875 41.195312 L 11.984375 40.378906 C 12.011719 40.367188 12.046875 40.363281 12.074219 40.375 C 12.105469 40.386719 12.125 40.414062 12.136719 40.441406 L 12.964844 43.007812 C 12.976562 43.054688 12.960938 43.101562 12.925781 43.128906 C 12.90625 43.144531 12.882812 43.152344 12.859375 43.152344 " fill-opacity="1" fill-rule="nonzero"/><path fill="#bd9d60" d="M 10.675781 18.914062 L 11.972656 19.589844 L 12.65625 17.464844 Z M 12.035156 19.851562 C 12.015625 19.851562 12 19.847656 11.984375 19.839844 L 10.421875 19.027344 C 10.390625 19.007812 10.367188 18.976562 10.367188 18.9375 C 10.363281 18.898438 10.378906 18.863281 10.410156 18.84375 L 12.796875 17.089844 C 12.835938 17.0625 12.886719 17.0625 12.925781 17.089844 C 12.960938 17.121094 12.976562 17.167969 12.964844 17.210938 L 12.136719 19.777344 C 12.125 19.808594 12.105469 19.832031 12.074219 19.84375 C 12.0625 19.851562 12.046875 19.851562 12.035156 19.851562 " fill-opacity="1" fill-rule="nonzero"/><path fill="#bd9d60" d="M 8.695312 30.460938 L 8.316406 31.625 L 9.054688 31.574219 Z M 8.167969 31.855469 C 8.132812 31.855469 8.101562 31.839844 8.082031 31.8125 C 8.058594 31.785156 8.054688 31.746094 8.066406 31.710938 L 8.59375 30.078125 C 8.605469 30.03125 8.648438 30.003906 8.695312 30.003906 C 8.742188 30.003906 8.78125 30.03125 8.796875 30.078125 L 9.300781 31.640625 C 9.3125 31.671875 9.304688 31.707031 9.289062 31.734375 C 9.269531 31.761719 9.238281 31.78125 9.207031 31.78125 L 8.175781 31.855469 C 8.171875 31.855469 8.167969 31.855469 8.167969 31.855469 " fill-opacity="1" fill-rule="nonzero"/><path fill="#bd9d60" d="M 7.480469 21.253906 L 11.023438 22.523438 L 11.902344 19.796875 L 10.480469 19.054688 Z M 11.09375 22.773438 C 11.082031 22.773438 11.070312 22.769531 11.058594 22.765625 L 7.214844 21.390625 C 7.179688 21.375 7.152344 21.34375 7.144531 21.304688 C 7.140625 21.261719 7.15625 21.222656 7.1875 21.199219 L 10.410156 18.84375 C 10.441406 18.816406 10.484375 18.8125 10.523438 18.832031 L 12.082031 19.648438 C 12.128906 19.671875 12.152344 19.726562 12.136719 19.777344 L 11.195312 22.699219 C 11.1875 22.726562 11.167969 22.75 11.140625 22.761719 C 11.125 22.769531 11.109375 22.773438 11.09375 22.773438 " fill-opacity="1" fill-rule="nonzero"/><path fill="#bd9d60" d="M 7.097656 24.808594 L 10.085938 25.433594 L 10.957031 22.730469 L 7.269531 21.410156 L 6.246094 22.160156 Z M 10.160156 25.667969 C 10.152344 25.667969 10.144531 25.667969 10.136719 25.667969 L 6.992188 25.007812 C 6.957031 25 6.925781 24.972656 6.914062 24.9375 L 6.015625 22.152344 C 6 22.109375 6.015625 22.058594 6.054688 22.03125 L 7.1875 21.199219 C 7.21875 21.179688 7.253906 21.171875 7.289062 21.1875 L 11.128906 22.5625 C 11.183594 22.582031 11.214844 22.640625 11.195312 22.699219 L 10.261719 25.59375 C 10.246094 25.640625 10.207031 25.667969 10.160156 25.667969 " fill-opacity="1" fill-rule="nonzero"/><path fill="#bd9d60" d="M 8.316406 28.59375 L 8.695312 29.761719 L 9.054688 28.644531 Z M 8.695312 30.21875 C 8.648438 30.21875 8.605469 30.1875 8.59375 30.144531 L 8.066406 28.507812 C 8.054688 28.476562 8.058594 28.4375 8.082031 28.410156 C 8.105469 28.378906 8.140625 28.363281 8.175781 28.367188 L 9.207031 28.4375 C 9.238281 28.441406 9.269531 28.460938 9.289062 28.488281 C 9.304688 28.515625 9.3125 28.550781 9.300781 28.582031 L 8.796875 30.144531 C 8.78125 30.1875 8.742188 30.21875 8.695312 30.21875 " fill-opacity="1" fill-rule="nonzero"/><path fill="#bd9d60" d="M 8.246094 28.371094 L 9.121094 28.433594 L 10.019531 25.644531 L 7.175781 25.046875 Z M 9.199219 28.65625 C 9.195312 28.65625 9.195312 28.65625 9.191406 28.65625 L 8.160156 28.585938 C 8.117188 28.582031 8.078125 28.550781 8.066406 28.507812 L 6.914062 24.9375 C 6.902344 24.898438 6.910156 24.859375 6.933594 24.832031 C 6.960938 24.800781 7 24.789062 7.035156 24.796875 L 10.183594 25.453125 C 10.210938 25.460938 10.238281 25.480469 10.253906 25.507812 C 10.269531 25.53125 10.269531 25.566406 10.261719 25.59375 L 9.300781 28.582031 C 9.285156 28.625 9.246094 28.65625 9.199219 28.65625 " fill-opacity="1" fill-rule="nonzero"/><path fill="#bd9d60" d="M 13.074219 16.863281 L 13.066406 16.894531 L 13.09375 16.875 Z M 12.859375 17.289062 C 12.839844 17.289062 12.816406 17.28125 12.796875 17.265625 C 12.761719 17.238281 12.746094 17.191406 12.757812 17.144531 L 12.917969 16.65625 C 12.925781 16.625 12.953125 16.597656 12.984375 16.585938 C 13.015625 16.578125 13.050781 16.582031 13.082031 16.601562 L 13.339844 16.785156 C 13.367188 16.804688 13.382812 16.839844 13.386719 16.875 C 13.386719 16.910156 13.367188 16.941406 13.339844 16.960938 L 12.925781 17.265625 C 12.90625 17.28125 12.882812 17.289062 12.859375 17.289062 " fill-opacity="1" fill-rule="nonzero"/><path fill="#bd9d60" d="M 13.144531 43.574219 L 14.140625 46.660156 L 15.664062 45.230469 L 13.277344 43.480469 Z M 14.089844 46.964844 C 14.082031 46.964844 14.074219 46.964844 14.0625 46.960938 C 14.027344 46.953125 14 46.925781 13.988281 46.890625 L 12.917969 43.566406 C 12.902344 43.519531 12.917969 43.46875 12.957031 43.441406 L 13.214844 43.257812 C 13.253906 43.230469 13.304688 43.230469 13.339844 43.257812 L 15.894531 45.128906 C 15.921875 45.148438 15.9375 45.179688 15.9375 45.210938 C 15.941406 45.242188 15.929688 45.277344 15.90625 45.296875 L 14.164062 46.9375 C 14.144531 46.953125 14.117188 46.964844 14.089844 46.964844 " fill-opacity="1" fill-rule="nonzero"/><path fill="#bd9d60" d="M 13.144531 16.648438 L 13.277344 16.742188 L 15.664062 14.992188 L 14.140625 13.558594 Z M 13.277344 16.984375 C 13.253906 16.984375 13.234375 16.976562 13.214844 16.964844 L 12.957031 16.777344 C 12.917969 16.75 12.902344 16.703125 12.917969 16.65625 L 13.988281 13.332031 C 14 13.296875 14.027344 13.269531 14.0625 13.261719 C 14.097656 13.25 14.136719 13.261719 14.164062 13.285156 L 15.90625 14.925781 C 15.929688 14.945312 15.941406 14.976562 15.9375 15.011719 C 15.9375 15.042969 15.921875 15.070312 15.894531 15.089844 L 13.339844 16.960938 C 13.320312 16.976562 13.300781 16.984375 13.277344 16.984375 " fill-opacity="1" fill-rule="nonzero"/><path fill="#bd9d60" d="M 14.214844 13.332031 L 15.839844 14.863281 L 18.097656 13.210938 L 15.351562 9.804688 Z M 15.832031 15.113281 C 15.804688 15.113281 15.777344 15.101562 15.757812 15.082031 L 14.015625 13.445312 C 13.988281 13.414062 13.976562 13.371094 13.988281 13.332031 L 15.207031 9.546875 C 15.21875 9.507812 15.25 9.480469 15.289062 9.472656 C 15.328125 9.464844 15.367188 9.480469 15.394531 9.511719 L 18.335938 13.160156 C 18.355469 13.183594 18.363281 13.214844 18.359375 13.242188 C 18.355469 13.273438 18.339844 13.300781 18.316406 13.316406 L 15.894531 15.089844 C 15.875 15.105469 15.855469 15.113281 15.832031 15.113281 " fill-opacity="1" fill-rule="nonzero"/><path fill="#bd9d60" d="M 14.214844 46.890625 L 15.351562 50.417969 L 18.097656 47.011719 L 15.839844 45.359375 Z M 15.308594 50.75 C 15.304688 50.75 15.296875 50.75 15.289062 50.746094 C 15.25 50.738281 15.21875 50.710938 15.207031 50.675781 L 13.988281 46.890625 C 13.976562 46.851562 13.988281 46.804688 14.015625 46.777344 L 15.757812 45.140625 C 15.796875 45.105469 15.855469 45.101562 15.894531 45.128906 L 18.316406 46.90625 C 18.339844 46.921875 18.355469 46.949219 18.359375 46.976562 C 18.363281 47.007812 18.355469 47.039062 18.335938 47.0625 L 15.394531 50.710938 C 15.371094 50.734375 15.34375 50.75 15.308594 50.75 " fill-opacity="1" fill-rule="nonzero"/><path fill="#bd9d60" d="M 15.429688 9.558594 L 18.273438 13.082031 L 20.496094 11.453125 L 18.222656 7.683594 L 16.035156 7.683594 Z M 18.253906 13.335938 C 18.222656 13.335938 18.191406 13.324219 18.167969 13.296875 L 15.226562 9.648438 C 15.203125 9.621094 15.195312 9.582031 15.207031 9.546875 L 15.855469 7.542969 C 15.867188 7.496094 15.910156 7.464844 15.957031 7.464844 L 18.28125 7.464844 C 18.320312 7.464844 18.355469 7.484375 18.375 7.519531 L 20.730469 11.425781 C 20.761719 11.472656 20.746094 11.539062 20.703125 11.570312 L 18.316406 13.316406 C 18.296875 13.332031 18.277344 13.335938 18.253906 13.335938 " fill-opacity="1" fill-rule="nonzero"/><path fill="#bd9d60" d="M 16.035156 52.539062 L 18.222656 52.539062 L 20.496094 48.769531 L 18.273438 47.140625 L 15.429688 50.664062 Z M 18.28125 52.753906 L 15.957031 52.753906 C 15.910156 52.753906 15.867188 52.726562 15.855469 52.679688 L 15.207031 50.675781 C 15.195312 50.640625 15.203125 50.601562 15.226562 50.574219 L 18.167969 46.925781 C 18.207031 46.878906 18.269531 46.871094 18.316406 46.90625 L 20.703125 48.652344 C 20.746094 48.683594 20.761719 48.746094 20.730469 48.796875 L 18.375 52.703125 C 18.355469 52.734375 18.320312 52.753906 18.28125 52.753906 " fill-opacity="1" fill-rule="nonzero"/><path fill="#bd9d60" d="M 18.472656 7.683594 L 20.667969 11.324219 L 22.945312 9.65625 L 22.09375 7.683594 Z M 20.640625 11.589844 C 20.632812 11.589844 20.625 11.589844 20.617188 11.589844 C 20.589844 11.582031 20.5625 11.566406 20.546875 11.539062 L 18.191406 7.632812 C 18.167969 7.597656 18.167969 7.554688 18.1875 7.523438 C 18.207031 7.488281 18.242188 7.464844 18.28125 7.464844 L 22.164062 7.464844 C 22.207031 7.464844 22.246094 7.492188 22.265625 7.53125 L 23.179688 9.652344 C 23.199219 9.699219 23.183594 9.753906 23.140625 9.78125 L 20.703125 11.570312 C 20.683594 11.582031 20.660156 11.589844 20.640625 11.589844 " fill-opacity="1" fill-rule="nonzero"/><path fill="#bd9d60" d="M 18.472656 52.539062 L 22.09375 52.539062 L 22.945312 50.5625 L 20.667969 48.894531 Z M 22.164062 52.753906 L 18.28125 52.753906 C 18.242188 52.753906 18.207031 52.734375 18.1875 52.699219 C 18.167969 52.664062 18.167969 52.625 18.191406 52.589844 L 20.546875 48.683594 C 20.5625 48.65625 20.589844 48.640625 20.617188 48.632812 C 20.648438 48.628906 20.679688 48.632812 20.703125 48.652344 L 23.140625 50.4375 C 23.183594 50.46875 23.199219 50.523438 23.179688 50.570312 L 22.265625 52.691406 C 22.246094 52.730469 22.207031 52.753906 22.164062 52.753906 " fill-opacity="1" fill-rule="nonzero"/><path fill="#bd9d60" d="M 22.332031 7.683594 L 23.125 9.527344 L 25.550781 7.75 L 25.53125 7.683594 Z M 23.078125 9.804688 C 23.070312 9.804688 23.058594 9.800781 23.050781 9.800781 C 23.019531 9.789062 22.992188 9.769531 22.980469 9.738281 L 22.066406 7.617188 C 22.054688 7.585938 22.054688 7.546875 22.074219 7.515625 C 22.097656 7.484375 22.128906 7.464844 22.164062 7.464844 L 25.613281 7.464844 C 25.660156 7.464844 25.703125 7.5 25.714844 7.546875 L 25.777344 7.765625 C 25.789062 7.808594 25.773438 7.855469 25.734375 7.882812 L 23.140625 9.78125 C 23.125 9.796875 23.101562 9.804688 23.078125 9.804688 " fill-opacity="1" fill-rule="nonzero"/><path fill="#bd9d60" d="M 22.332031 52.539062 L 25.53125 52.539062 L 25.550781 52.46875 L 23.125 50.695312 Z M 25.613281 52.753906 L 22.164062 52.753906 C 22.128906 52.753906 22.097656 52.738281 22.074219 52.707031 C 22.054688 52.675781 22.054688 52.636719 22.066406 52.605469 L 22.980469 50.484375 C 22.992188 50.453125 23.019531 50.429688 23.050781 50.421875 C 23.082031 50.414062 23.117188 50.421875 23.140625 50.4375 L 25.734375 52.339844 C 25.773438 52.367188 25.789062 52.410156 25.777344 52.457031 L 25.714844 52.675781 C 25.703125 52.722656 25.660156 52.753906 25.613281 52.753906 " fill-opacity="1" fill-rule="nonzero"/><path fill="#bd9d60" d="M 25.972656 52.753906 L 25.613281 52.753906 C 25.578125 52.753906 25.546875 52.738281 25.527344 52.710938 C 25.507812 52.683594 25.5 52.652344 25.507812 52.617188 L 25.570312 52.398438 C 25.578125 52.363281 25.605469 52.335938 25.636719 52.324219 C 25.671875 52.3125 25.707031 52.316406 25.734375 52.339844 L 26.035156 52.558594 C 26.074219 52.585938 26.089844 52.636719 26.074219 52.679688 C 26.0625 52.726562 26.019531 52.753906 25.972656 52.753906 " fill-opacity="1" fill-rule="nonzero"/><path fill="#bd9d60" d="M 25.671875 7.902344 C 25.660156 7.902344 25.648438 7.902344 25.636719 7.898438 C 25.605469 7.886719 25.578125 7.859375 25.570312 7.824219 L 25.507812 7.605469 C 25.5 7.570312 25.507812 7.535156 25.527344 7.507812 C 25.546875 7.480469 25.578125 7.464844 25.613281 7.464844 L 25.972656 7.464844 C 26.019531 7.464844 26.0625 7.496094 26.074219 7.542969 C 26.089844 7.585938 26.074219 7.636719 26.035156 7.664062 L 25.734375 7.882812 C 25.71875 7.894531 25.695312 7.902344 25.671875 7.902344 " fill-opacity="1" fill-rule="nonzero"/><path fill="#bd9d60" d="M 26.304688 7.464844 L 28.679688 7.464844 L 28.464844 5.882812 Z M 28.800781 7.683594 L 25.972656 7.683594 C 25.925781 7.683594 25.886719 7.652344 25.871094 7.609375 C 25.855469 7.5625 25.871094 7.515625 25.910156 7.488281 L 28.484375 5.601562 C 28.515625 5.578125 28.554688 5.574219 28.589844 5.589844 C 28.625 5.605469 28.648438 5.636719 28.652344 5.675781 L 28.910156 7.558594 C 28.914062 7.589844 28.902344 7.621094 28.882812 7.644531 C 28.863281 7.667969 28.832031 7.683594 28.800781 7.683594 " fill-opacity="1" fill-rule="nonzero"/><path fill="#bd9d60" d="M 26.304688 52.753906 L 28.464844 54.335938 L 28.679688 52.753906 Z M 28.546875 54.640625 C 28.523438 54.640625 28.503906 54.632812 28.484375 54.617188 L 25.910156 52.734375 C 25.871094 52.707031 25.855469 52.65625 25.871094 52.613281 C 25.886719 52.570312 25.925781 52.539062 25.972656 52.539062 L 28.800781 52.539062 C 28.832031 52.539062 28.863281 52.550781 28.882812 52.574219 C 28.902344 52.597656 28.914062 52.628906 28.910156 52.660156 L 28.652344 54.546875 C 28.648438 54.582031 28.625 54.617188 28.589844 54.632812 C 28.574219 54.636719 28.5625 54.640625 28.546875 54.640625 " fill-opacity="1" fill-rule="nonzero"/><path fill="#bd9d60" d="M 13.277344 16.875 Z M 26.007812 52.539062 L 37.742188 52.539062 L 50.796875 42.976562 L 54.941406 30.109375 L 50.796875 17.246094 L 37.742188 7.683594 L 26.007812 7.683594 L 13.339844 16.960938 L 12.953125 17.246094 L 8.808594 30.109375 L 12.953125 42.976562 Z M 37.777344 52.753906 L 25.972656 52.753906 C 25.949219 52.753906 25.929688 52.746094 25.910156 52.734375 L 12.796875 43.128906 C 12.78125 43.117188 12.765625 43.097656 12.757812 43.074219 L 8.59375 30.144531 C 8.585938 30.121094 8.585938 30.097656 8.59375 30.078125 L 12.757812 17.144531 C 12.765625 17.125 12.78125 17.105469 12.796875 17.089844 L 25.910156 7.488281 C 25.929688 7.472656 25.949219 7.464844 25.972656 7.464844 L 37.777344 7.464844 C 37.800781 7.464844 37.820312 7.472656 37.839844 7.488281 L 50.953125 17.089844 C 50.96875 17.105469 50.984375 17.125 50.992188 17.144531 L 55.15625 30.078125 C 55.164062 30.097656 55.164062 30.121094 55.15625 30.144531 L 50.992188 43.074219 C 50.984375 43.097656 50.96875 43.117188 50.953125 43.128906 L 37.839844 52.734375 C 37.820312 52.746094 37.800781 52.753906 37.777344 52.753906 " fill-opacity="1" fill-rule="nonzero"/><g clip-path="url(#id1)"><path fill="#bd9d60" d="M 28.898438 7.464844 L 31.765625 7.464844 L 31.765625 3.464844 L 28.660156 5.738281 Z M 31.875 7.683594 L 28.800781 7.683594 C 28.75 7.683594 28.703125 7.644531 28.695312 7.589844 L 28.441406 5.703125 C 28.433594 5.664062 28.453125 5.625 28.484375 5.601562 L 31.8125 3.164062 C 31.84375 3.140625 31.886719 3.136719 31.921875 3.15625 C 31.960938 3.171875 31.984375 3.210938 31.984375 3.25 L 31.984375 7.574219 C 31.984375 7.632812 31.933594 7.683594 31.875 7.683594 " fill-opacity="1" fill-rule="nonzero"/></g><g clip-path="url(#id2)"><path fill="#bd9d60" d="M 28.660156 54.480469 L 31.765625 56.757812 L 31.765625 52.753906 L 28.898438 52.753906 Z M 31.875 57.078125 C 31.851562 57.078125 31.832031 57.070312 31.8125 57.058594 L 28.484375 54.617188 C 28.453125 54.597656 28.433594 54.554688 28.441406 54.515625 L 28.695312 52.632812 C 28.703125 52.578125 28.75 52.539062 28.800781 52.539062 L 31.875 52.539062 C 31.933594 52.539062 31.984375 52.585938 31.984375 52.648438 L 31.984375 56.96875 C 31.984375 57.011719 31.960938 57.046875 31.921875 57.066406 C 31.910156 57.074219 31.890625 57.078125 31.875 57.078125 " fill-opacity="1" fill-rule="nonzero"/></g><g clip-path="url(#id3)"><path fill="#bd9d60" d="M 31.984375 7.464844 L 34.855469 7.464844 L 35.089844 5.738281 L 31.984375 3.464844 Z M 34.949219 7.683594 L 31.875 7.683594 C 31.816406 7.683594 31.765625 7.632812 31.765625 7.574219 L 31.765625 3.25 C 31.765625 3.210938 31.789062 3.171875 31.828125 3.15625 C 31.863281 3.136719 31.90625 3.140625 31.9375 3.164062 L 35.265625 5.601562 C 35.296875 5.625 35.316406 5.664062 35.308594 5.703125 L 35.054688 7.589844 C 35.046875 7.644531 35 7.683594 34.949219 7.683594 " fill-opacity="1" fill-rule="nonzero"/></g><g clip-path="url(#id4)"><path fill="#bd9d60" d="M 31.984375 52.753906 L 31.984375 56.757812 L 35.089844 54.480469 L 34.855469 52.753906 Z M 31.875 57.078125 C 31.859375 57.078125 31.84375 57.074219 31.828125 57.066406 C 31.789062 57.046875 31.765625 57.011719 31.765625 56.96875 L 31.765625 52.648438 C 31.765625 52.585938 31.816406 52.539062 31.875 52.539062 L 34.949219 52.539062 C 35 52.539062 35.046875 52.578125 35.054688 52.632812 L 35.308594 54.515625 C 35.316406 54.554688 35.296875 54.597656 35.265625 54.617188 L 31.9375 57.058594 C 31.917969 57.070312 31.898438 57.078125 31.875 57.078125 " fill-opacity="1" fill-rule="nonzero"/></g><path fill="#bd9d60" d="M 35.070312 52.753906 L 35.285156 54.335938 L 37.445312 52.753906 Z M 35.203125 54.640625 C 35.1875 54.640625 35.175781 54.636719 35.160156 54.632812 C 35.125 54.617188 35.101562 54.582031 35.097656 54.546875 L 34.839844 52.660156 C 34.835938 52.628906 34.847656 52.597656 34.867188 52.574219 C 34.886719 52.550781 34.917969 52.539062 34.949219 52.539062 L 37.777344 52.539062 C 37.824219 52.539062 37.863281 52.570312 37.878906 52.613281 C 37.894531 52.65625 37.878906 52.707031 37.839844 52.734375 L 35.265625 54.617188 C 35.246094 54.632812 35.226562 54.640625 35.203125 54.640625 " fill-opacity="1" fill-rule="nonzero"/><path fill="#bd9d60" d="M 35.070312 7.464844 L 37.445312 7.464844 L 35.285156 5.882812 Z M 37.777344 7.683594 L 34.949219 7.683594 C 34.917969 7.683594 34.886719 7.667969 34.867188 7.644531 C 34.847656 7.621094 34.835938 7.589844 34.839844 7.558594 L 35.097656 5.675781 C 35.101562 5.636719 35.125 5.605469 35.160156 5.589844 C 35.195312 5.574219 35.234375 5.578125 35.265625 5.601562 L 37.839844 7.488281 C 37.878906 7.515625 37.894531 7.5625 37.878906 7.609375 C 37.863281 7.652344 37.824219 7.683594 37.777344 7.683594 " fill-opacity="1" fill-rule="nonzero"/><path fill="#bd9d60" d="M 38.078125 7.902344 C 38.054688 7.902344 38.03125 7.894531 38.015625 7.882812 L 37.714844 7.664062 C 37.675781 7.636719 37.660156 7.585938 37.675781 7.542969 C 37.6875 7.496094 37.730469 7.464844 37.777344 7.464844 L 38.136719 7.464844 C 38.171875 7.464844 38.203125 7.480469 38.222656 7.507812 C 38.242188 7.535156 38.25 7.570312 38.242188 7.605469 L 38.179688 7.824219 C 38.171875 7.859375 38.144531 7.886719 38.113281 7.898438 C 38.101562 7.902344 38.089844 7.902344 38.078125 7.902344 " fill-opacity="1" fill-rule="nonzero"/><path fill="#bd9d60" d="M 38.136719 52.753906 L 37.777344 52.753906 C 37.730469 52.753906 37.6875 52.726562 37.675781 52.679688 C 37.660156 52.636719 37.675781 52.585938 37.714844 52.558594 L 38.015625 52.339844 C 38.042969 52.316406 38.078125 52.3125 38.113281 52.324219 C 38.144531 52.335938 38.171875 52.363281 38.179688 52.398438 L 38.242188 52.617188 C 38.25 52.652344 38.242188 52.683594 38.222656 52.710938 C 38.203125 52.738281 38.171875 52.753906 38.136719 52.753906 " fill-opacity="1" fill-rule="nonzero"/><path fill="#bd9d60" d="M 38.199219 7.75 L 40.625 9.527344 L 41.421875 7.683594 L 38.21875 7.683594 Z M 40.671875 9.804688 C 40.648438 9.804688 40.625 9.796875 40.609375 9.78125 L 38.015625 7.882812 C 37.976562 7.855469 37.960938 7.808594 37.972656 7.765625 L 38.035156 7.546875 C 38.046875 7.5 38.089844 7.464844 38.136719 7.464844 L 41.585938 7.464844 C 41.621094 7.464844 41.65625 7.484375 41.675781 7.515625 C 41.695312 7.546875 41.695312 7.585938 41.683594 7.617188 L 40.769531 9.738281 C 40.757812 9.769531 40.730469 9.789062 40.699219 9.800781 C 40.691406 9.800781 40.679688 9.804688 40.671875 9.804688 " fill-opacity="1" fill-rule="nonzero"/><path fill="#bd9d60" d="M 38.21875 52.539062 L 41.421875 52.539062 L 40.625 50.695312 L 38.199219 52.46875 Z M 41.585938 52.753906 L 38.136719 52.753906 C 38.089844 52.753906 38.046875 52.722656 38.035156 52.675781 L 37.972656 52.457031 C 37.960938 52.410156 37.976562 52.367188 38.015625 52.339844 L 40.609375 50.4375 C 40.632812 50.421875 40.667969 50.414062 40.699219 50.421875 C 40.730469 50.429688 40.757812 50.453125 40.769531 50.484375 L 41.683594 52.605469 C 41.695312 52.636719 41.695312 52.675781 41.675781 52.707031 C 41.65625 52.738281 41.621094 52.753906 41.585938 52.753906 " fill-opacity="1" fill-rule="nonzero"/><path fill="#bd9d60" d="M 41.65625 52.539062 L 45.277344 52.539062 L 43.082031 48.894531 L 40.804688 50.5625 Z M 45.46875 52.753906 L 41.585938 52.753906 C 41.542969 52.753906 41.503906 52.730469 41.484375 52.691406 L 40.570312 50.570312 C 40.550781 50.523438 40.566406 50.46875 40.609375 50.4375 L 43.046875 48.652344 C 43.070312 48.632812 43.101562 48.628906 43.132812 48.632812 C 43.160156 48.640625 43.1875 48.65625 43.203125 48.683594 L 45.558594 52.589844 C 45.582031 52.625 45.582031 52.664062 45.5625 52.699219 C 45.542969 52.734375 45.507812 52.753906 45.46875 52.753906 " fill-opacity="1" fill-rule="nonzero"/><path fill="#bd9d60" d="M 40.804688 9.65625 L 43.082031 11.324219 L 45.277344 7.683594 L 41.65625 7.683594 Z M 43.109375 11.589844 C 43.089844 11.589844 43.066406 11.582031 43.046875 11.570312 L 40.609375 9.78125 C 40.566406 9.753906 40.550781 9.699219 40.570312 9.652344 L 41.484375 7.53125 C 41.503906 7.492188 41.542969 7.464844 41.585938 7.464844 L 45.46875 7.464844 C 45.507812 7.464844 45.542969 7.488281 45.5625 7.523438 C 45.582031 7.554688 45.582031 7.597656 45.558594 7.632812 L 43.203125 11.539062 C 43.1875 11.566406 43.160156 11.582031 43.132812 11.589844 C 43.125 11.589844 43.117188 11.589844 43.109375 11.589844 " fill-opacity="1" fill-rule="nonzero"/><path fill="#bd9d60" d="M 43.253906 11.453125 L 45.476562 13.082031 L 48.320312 9.558594 L 47.714844 7.683594 L 45.527344 7.683594 Z M 45.496094 13.335938 C 45.472656 13.335938 45.453125 13.332031 45.433594 13.316406 L 43.046875 11.570312 C 43.003906 11.539062 42.988281 11.472656 43.019531 11.425781 L 45.375 7.519531 C 45.394531 7.484375 45.429688 7.464844 45.46875 7.464844 L 47.792969 7.464844 C 47.839844 7.464844 47.882812 7.496094 47.894531 7.542969 L 48.542969 9.546875 C 48.554688 9.582031 48.546875 9.621094 48.523438 9.648438 L 45.582031 13.296875 C 45.558594 13.324219 45.527344 13.335938 45.496094 13.335938 " fill-opacity="1" fill-rule="nonzero"/><path fill="#bd9d60" d="M 45.527344 52.539062 L 47.714844 52.539062 L 48.320312 50.664062 L 45.476562 47.140625 L 43.253906 48.769531 Z M 47.792969 52.753906 L 45.46875 52.753906 C 45.429688 52.753906 45.394531 52.734375 45.375 52.703125 L 43.019531 48.796875 C 42.988281 48.746094 43.003906 48.683594 43.046875 48.652344 L 45.433594 46.90625 C 45.480469 46.871094 45.542969 46.878906 45.582031 46.925781 L 48.523438 50.574219 C 48.546875 50.601562 48.554688 50.640625 48.542969 50.675781 L 47.894531 52.679688 C 47.882812 52.726562 47.839844 52.753906 47.792969 52.753906 " fill-opacity="1" fill-rule="nonzero"/><path fill="#bd9d60" d="M 45.652344 13.210938 L 47.910156 14.863281 L 49.535156 13.332031 L 48.398438 9.804688 Z M 47.917969 15.113281 C 47.894531 15.113281 47.875 15.105469 47.855469 15.089844 L 45.433594 13.316406 C 45.410156 13.300781 45.394531 13.273438 45.390625 13.242188 C 45.386719 13.214844 45.394531 13.183594 45.414062 13.160156 L 48.355469 9.511719 C 48.382812 9.480469 48.421875 9.464844 48.460938 9.472656 C 48.5 9.480469 48.53125 9.507812 48.542969 9.546875 L 49.761719 13.332031 C 49.773438 13.371094 49.761719 13.414062 49.734375 13.445312 L 47.992188 15.082031 C 47.972656 15.101562 47.945312 15.113281 47.917969 15.113281 " fill-opacity="1" fill-rule="nonzero"/><path fill="#bd9d60" d="M 45.652344 47.011719 L 48.398438 50.417969 L 49.535156 46.890625 L 47.910156 45.359375 Z M 48.441406 50.75 C 48.40625 50.75 48.378906 50.734375 48.355469 50.710938 L 45.414062 47.0625 C 45.394531 47.039062 45.386719 47.007812 45.390625 46.976562 C 45.394531 46.949219 45.410156 46.921875 45.433594 46.90625 L 47.855469 45.128906 C 47.898438 45.101562 47.953125 45.101562 47.992188 45.140625 L 49.734375 46.777344 C 49.761719 46.804688 49.773438 46.851562 49.761719 46.890625 L 48.542969 50.675781 C 48.53125 50.710938 48.5 50.738281 48.460938 50.746094 C 48.453125 50.75 48.445312 50.75 48.441406 50.75 " fill-opacity="1" fill-rule="nonzero"/><path fill="#bd9d60" d="M 48.085938 45.230469 L 49.609375 46.660156 L 50.605469 43.574219 L 50.472656 43.480469 Z M 49.660156 46.964844 C 49.632812 46.964844 49.605469 46.953125 49.585938 46.9375 L 47.84375 45.296875 C 47.820312 45.277344 47.808594 45.242188 47.8125 45.210938 C 47.8125 45.179688 47.828125 45.148438 47.855469 45.128906 L 50.410156 43.257812 C 50.445312 43.230469 50.496094 43.230469 50.535156 43.257812 L 50.792969 43.441406 C 50.832031 43.46875 50.847656 43.519531 50.832031 43.566406 L 49.761719 46.890625 C 49.75 46.925781 49.722656 46.953125 49.6875 46.960938 C 49.675781 46.964844 49.667969 46.964844 49.660156 46.964844 " fill-opacity="1" fill-rule="nonzero"/><path fill="#bd9d60" d="M 48.085938 14.992188 L 50.472656 16.742188 L 50.605469 16.648438 L 49.609375 13.558594 Z M 50.472656 16.984375 C 50.449219 16.984375 50.429688 16.976562 50.410156 16.960938 L 47.855469 15.089844 C 47.828125 15.070312 47.8125 15.042969 47.8125 15.011719 C 47.808594 14.976562 47.820312 14.945312 47.84375 14.925781 L 49.585938 13.285156 C 49.613281 13.261719 49.648438 13.25 49.6875 13.261719 C 49.722656 13.269531 49.75 13.296875 49.761719 13.332031 L 50.832031 16.65625 C 50.847656 16.703125 50.832031 16.75 50.792969 16.777344 L 50.535156 16.964844 C 50.515625 16.976562 50.496094 16.984375 50.472656 16.984375 " fill-opacity="1" fill-rule="nonzero"/><path fill="#bd9d60" d="M 50.65625 43.347656 L 50.675781 43.359375 L 50.683594 43.324219 Z M 50.730469 43.640625 C 50.710938 43.640625 50.6875 43.632812 50.671875 43.621094 L 50.410156 43.433594 C 50.382812 43.414062 50.367188 43.382812 50.363281 43.347656 C 50.363281 43.3125 50.382812 43.28125 50.410156 43.257812 L 50.824219 42.953125 C 50.863281 42.925781 50.914062 42.925781 50.953125 42.953125 C 50.988281 42.980469 51.003906 43.03125 50.992188 43.074219 L 50.832031 43.5625 C 50.824219 43.597656 50.796875 43.625 50.765625 43.632812 C 50.753906 43.636719 50.742188 43.640625 50.730469 43.640625 " fill-opacity="1" fill-rule="nonzero"/><path fill="#bd9d60" d="M 50.65625 16.875 L 50.683594 16.894531 L 50.675781 16.863281 Z M 50.890625 17.289062 C 50.867188 17.289062 50.84375 17.28125 50.824219 17.265625 L 50.410156 16.960938 C 50.382812 16.941406 50.363281 16.910156 50.363281 16.875 C 50.367188 16.839844 50.382812 16.804688 50.410156 16.785156 L 50.671875 16.601562 C 50.699219 16.582031 50.734375 16.578125 50.765625 16.585938 C 50.796875 16.597656 50.824219 16.625 50.832031 16.65625 L 50.992188 17.144531 C 51.003906 17.191406 50.988281 17.238281 50.953125 17.265625 C 50.933594 17.28125 50.910156 17.289062 50.890625 17.289062 " fill-opacity="1" fill-rule="nonzero"/><path fill="#bd9d60" d="M 51.09375 17.464844 L 51.777344 19.589844 L 53.074219 18.914062 Z M 51.714844 19.851562 C 51.703125 19.851562 51.6875 19.851562 51.675781 19.84375 C 51.644531 19.832031 51.625 19.808594 51.613281 19.777344 L 50.785156 17.210938 C 50.773438 17.167969 50.789062 17.121094 50.824219 17.089844 C 50.863281 17.0625 50.914062 17.0625 50.953125 17.089844 L 53.339844 18.84375 C 53.371094 18.863281 53.386719 18.898438 53.382812 18.9375 C 53.382812 18.976562 53.359375 19.007812 53.328125 19.027344 L 51.765625 19.839844 C 51.75 19.847656 51.734375 19.851562 51.714844 19.851562 " fill-opacity="1" fill-rule="nonzero"/><path fill="#bd9d60" d="M 51.777344 40.632812 L 51.09375 42.757812 L 53.074219 41.308594 Z M 50.890625 43.152344 C 50.867188 43.152344 50.84375 43.144531 50.824219 43.128906 C 50.789062 43.101562 50.773438 43.054688 50.785156 43.007812 L 51.613281 40.441406 C 51.625 40.414062 51.644531 40.386719 51.675781 40.375 C 51.703125 40.363281 51.738281 40.367188 51.765625 40.378906 L 53.328125 41.195312 C 53.359375 41.214844 53.382812 41.246094 53.382812 41.285156 C 53.386719 41.320312 53.371094 41.359375 53.339844 41.378906 L 50.953125 43.128906 C 50.933594 43.144531 50.910156 43.152344 50.890625 43.152344 " fill-opacity="1" fill-rule="nonzero"/><path fill="#bd9d60" d="M 54.695312 28.644531 L 55.054688 29.761719 L 55.429688 28.59375 Z M 55.054688 30.21875 C 55.007812 30.21875 54.96875 30.1875 54.953125 30.144531 L 54.449219 28.582031 C 54.4375 28.550781 54.445312 28.515625 54.460938 28.488281 C 54.480469 28.460938 54.511719 28.441406 54.542969 28.4375 L 55.574219 28.367188 C 55.613281 28.367188 55.644531 28.378906 55.667969 28.410156 C 55.691406 28.4375 55.695312 28.476562 55.683594 28.507812 L 55.15625 30.144531 C 55.144531 30.1875 55.101562 30.21875 55.054688 30.21875 " fill-opacity="1" fill-rule="nonzero"/><path fill="#bd9d60" d="M 54.695312 31.574219 L 55.429688 31.625 L 55.054688 30.460938 Z M 55.582031 31.855469 C 55.582031 31.855469 55.578125 31.855469 55.574219 31.855469 L 54.542969 31.78125 C 54.511719 31.78125 54.480469 31.761719 54.460938 31.734375 C 54.445312 31.707031 54.4375 31.671875 54.449219 31.640625 L 54.953125 30.078125 C 54.96875 30.03125 55.007812 30.003906 55.054688 30.003906 C 55.101562 30.003906 55.144531 30.03125 55.15625 30.078125 L 55.683594 31.710938 C 55.695312 31.746094 55.691406 31.785156 55.667969 31.8125 C 55.648438 31.839844 55.617188 31.855469 55.582031 31.855469 " fill-opacity="1" fill-rule="nonzero"/><path fill="#bd9d60" d="M 51.847656 40.421875 L 53.269531 41.164062 L 56.269531 38.96875 L 52.726562 37.695312 Z M 53.277344 41.398438 C 53.261719 41.398438 53.242188 41.398438 53.226562 41.386719 L 51.667969 40.574219 C 51.621094 40.546875 51.597656 40.492188 51.613281 40.441406 L 52.554688 37.523438 C 52.5625 37.496094 52.582031 37.472656 52.609375 37.460938 C 52.636719 37.449219 52.664062 37.445312 52.691406 37.457031 L 56.535156 38.832031 C 56.570312 38.84375 56.597656 38.878906 56.605469 38.917969 C 56.609375 38.957031 56.59375 38.996094 56.5625 39.023438 L 53.339844 41.378906 C 53.320312 41.394531 53.300781 41.398438 53.277344 41.398438 " fill-opacity="1" fill-rule="nonzero"/><path fill="#bd9d60" d="M 51.847656 19.796875 L 52.726562 22.523438 L 56.269531 21.253906 L 53.269531 19.054688 Z M 52.65625 22.773438 C 52.640625 22.773438 52.625 22.769531 52.609375 22.761719 C 52.582031 22.75 52.5625 22.726562 52.554688 22.699219 L 51.613281 19.777344 C 51.597656 19.726562 51.621094 19.671875 51.667969 19.648438 L 53.226562 18.832031 C 53.261719 18.8125 53.308594 18.816406 53.339844 18.84375 L 56.5625 21.199219 C 56.59375 21.222656 56.609375 21.261719 56.605469 21.304688 C 56.597656 21.34375 56.570312 21.375 56.535156 21.390625 L 52.691406 22.765625 C 52.679688 22.769531 52.667969 22.773438 52.65625 22.773438 " fill-opacity="1" fill-rule="nonzero"/><path fill="#bd9d60" d="M 53.730469 34.578125 L 56.574219 35.175781 L 55.503906 31.847656 L 54.628906 31.789062 Z M 56.734375 35.425781 C 56.726562 35.425781 56.71875 35.425781 56.714844 35.425781 L 53.570312 34.765625 C 53.539062 34.761719 53.511719 34.742188 53.496094 34.714844 C 53.480469 34.6875 53.480469 34.65625 53.488281 34.625 L 54.449219 31.640625 C 54.464844 31.59375 54.511719 31.5625 54.558594 31.566406 L 55.589844 31.636719 C 55.632812 31.640625 55.671875 31.671875 55.683594 31.710938 L 56.835938 35.285156 C 56.847656 35.320312 56.839844 35.363281 56.816406 35.390625 C 56.792969 35.414062 56.765625 35.425781 56.734375 35.425781 " fill-opacity="1" fill-rule="nonzero"/><path fill="#bd9d60" d="M 53.730469 25.644531 L 54.628906 28.433594 L 55.503906 28.371094 L 56.574219 25.046875 Z M 54.550781 28.65625 C 54.503906 28.65625 54.464844 28.625 54.449219 28.582031 L 53.488281 25.59375 C 53.480469 25.566406 53.480469 25.53125 53.496094 25.507812 C 53.511719 25.480469 53.539062 25.460938 53.570312 25.453125 L 56.714844 24.796875 C 56.75 24.789062 56.789062 24.800781 56.816406 24.832031 C 56.839844 24.859375 56.847656 24.898438 56.835938 24.9375 L 55.683594 28.507812 C 55.671875 28.550781 55.632812 28.582031 55.589844 28.585938 L 54.558594 28.65625 C 54.554688 28.65625 54.554688 28.65625 54.550781 28.65625 " fill-opacity="1" fill-rule="nonzero"/><g clip-path="url(#id5)"><path fill="#bd9d60" d="M 52.792969 37.492188 L 56.480469 38.8125 L 57.503906 38.0625 L 56.652344 35.414062 L 53.664062 34.785156 Z M 56.5 39.042969 C 56.484375 39.042969 56.472656 39.039062 56.460938 39.035156 L 52.621094 37.660156 C 52.566406 37.640625 52.535156 37.582031 52.554688 37.523438 L 53.488281 34.625 C 53.503906 34.574219 53.558594 34.542969 53.613281 34.554688 L 56.757812 35.210938 C 56.792969 35.21875 56.824219 35.25 56.835938 35.285156 L 57.734375 38.070312 C 57.75 38.113281 57.734375 38.164062 57.695312 38.191406 L 56.5625 39.023438 C 56.542969 39.035156 56.519531 39.042969 56.5 39.042969 " fill-opacity="1" fill-rule="nonzero"/></g><g clip-path="url(#id6)"><path fill="#bd9d60" d="M 52.792969 22.730469 L 53.664062 25.433594 L 56.652344 24.808594 L 57.503906 22.160156 L 56.480469 21.410156 Z M 53.589844 25.667969 C 53.542969 25.667969 53.503906 25.640625 53.488281 25.59375 L 52.554688 22.699219 C 52.535156 22.640625 52.566406 22.582031 52.621094 22.5625 L 56.460938 21.1875 C 56.496094 21.175781 56.53125 21.179688 56.5625 21.199219 L 57.695312 22.03125 C 57.734375 22.058594 57.75 22.109375 57.734375 22.152344 L 56.835938 24.9375 C 56.824219 24.972656 56.792969 25 56.757812 25.007812 L 53.613281 25.667969 C 53.605469 25.667969 53.597656 25.667969 53.589844 25.667969 " fill-opacity="1" fill-rule="nonzero"/></g><g clip-path="url(#id7)"><path fill="#bd9d60" d="M 31.824219 16.851562 L 32.414062 17.691406 C 32.527344 17.832031 32.597656 18.011719 32.597656 18.207031 C 32.597656 18.457031 32.488281 18.679688 32.3125 18.828125 C 31.898438 19.203125 32.117188 19.546875 32.566406 19.761719 C 32.574219 20.320312 32.5625 20.683594 32.574219 20.921875 C 32.734375 21.039062 32.867188 21.191406 32.960938 21.367188 C 33.117188 21.371094 33.273438 21.386719 33.417969 21.402344 C 35.53125 21.578125 37.429688 22.59375 39.417969 23.25 C 40.40625 23.578125 41.492188 23.679688 42.5 23.363281 C 42.621094 23.324219 42.746094 23.285156 42.871094 23.246094 L 43.007812 22.867188 C 42.976562 22.863281 42.949219 22.859375 42.921875 22.847656 C 42.398438 22.765625 42.226562 22.066406 42.539062 21.675781 C 43.019531 20.960938 44.101562 21.03125 44.679688 21.578125 C 45.230469 22 45.234375 22.871094 44.769531 23.359375 C 44.496094 23.65625 44.167969 23.875 43.808594 24.039062 L 47.785156 35.203125 L 48.699219 35.203125 C 48.433594 35.359375 48.199219 35.539062 47.953125 35.660156 C 45.78125 36.925781 43.109375 37.183594 40.683594 36.546875 C 39.53125 36.214844 38.644531 35.835938 37.707031 35.207031 L 38.609375 35.207031 L 42.441406 24.453125 C 42.273438 24.488281 42.105469 24.515625 41.945312 24.542969 C 40.144531 24.796875 38.449219 24 36.796875 23.402344 C 35.566406 22.949219 34.292969 22.570312 32.972656 22.546875 L 32.972656 22.550781 C 32.878906 22.742188 32.738281 22.910156 32.5625 23.03125 L 32.5625 38.058594 C 32.5625 40.925781 35.246094 41.449219 35.796875 41.449219 C 36.347656 41.449219 36.859375 41.710938 36.859375 42.132812 C 37.984375 42.167969 39.320312 42.132812 40.160156 42.132812 C 41 42.132812 41.628906 42.375 41.628906 43.078125 C 38.363281 43.101562 35.09375 43.089844 31.824219 43.09375 Z M 43.355469 21.769531 C 43.265625 21.769531 43.152344 21.789062 43.074219 21.832031 C 42.707031 21.980469 42.800781 22.523438 43.128906 22.535156 C 43.148438 22.480469 43.132812 22.425781 43.191406 22.414062 C 43.242188 22.40625 43.261719 22.46875 43.277344 22.503906 C 43.304688 22.492188 43.335938 22.484375 43.363281 22.464844 C 43.703125 22.21875 43.160156 21.875 43.582031 21.996094 C 44.011719 22.273438 43.710938 22.648438 43.371094 22.808594 L 43.445312 23.011719 C 43.648438 22.898438 43.832031 22.753906 43.960938 22.550781 C 44.164062 22.148438 43.75 21.773438 43.355469 21.773438 Z M 43.285156 22.84375 L 43.25 22.855469 L 43.25 23.105469 L 43.359375 23.054688 Z M 43.152344 22.871094 L 43.105469 22.875 L 42.988281 23.207031 L 43.152344 23.144531 Z M 43.722656 24.078125 C 43.570312 24.148438 43.410156 24.203125 43.246094 24.253906 L 43.242188 35.203125 L 47.6875 35.203125 Z M 43.152344 24.28125 L 42.550781 24.429688 L 38.707031 35.207031 L 43.144531 35.207031 L 43.15625 35.171875 Z M 43.152344 24.28125 " fill-opacity="1" fill-rule="nonzero"/></g><g clip-path="url(#id8)"><path fill="#bd9d60" d="M 31.828125 16.851562 L 31.238281 17.691406 C 31.125 17.832031 31.054688 18.011719 31.054688 18.207031 C 31.054688 18.457031 31.164062 18.679688 31.339844 18.828125 C 31.753906 19.203125 31.535156 19.546875 31.085938 19.761719 C 31.078125 20.320312 31.089844 20.683594 31.078125 20.921875 C 30.917969 21.039062 30.785156 21.191406 30.691406 21.367188 C 30.535156 21.371094 30.378906 21.386719 30.234375 21.402344 C 28.121094 21.578125 26.222656 22.59375 24.234375 23.25 C 23.246094 23.578125 22.160156 23.679688 21.152344 23.363281 C 21.03125 23.324219 20.90625 23.285156 20.78125 23.246094 L 20.644531 22.867188 C 20.675781 22.863281 20.703125 22.859375 20.730469 22.847656 C 21.253906 22.765625 21.425781 22.066406 21.113281 21.675781 C 20.632812 20.960938 19.550781 21.03125 18.972656 21.578125 C 18.417969 22 18.417969 22.871094 18.882812 23.359375 C 19.15625 23.65625 19.484375 23.875 19.84375 24.039062 L 15.867188 35.203125 L 14.953125 35.203125 C 15.21875 35.359375 15.453125 35.539062 15.695312 35.660156 C 17.871094 36.925781 20.542969 37.183594 22.96875 36.546875 C 24.121094 36.214844 25.007812 35.835938 25.945312 35.207031 L 25.042969 35.207031 L 21.210938 24.453125 C 21.378906 24.488281 21.546875 24.515625 21.707031 24.542969 C 23.507812 24.796875 25.203125 24 26.855469 23.402344 C 28.085938 22.949219 29.359375 22.570312 30.679688 22.546875 L 30.679688 22.550781 C 30.773438 22.742188 30.914062 22.910156 31.089844 23.03125 L 31.089844 38.058594 C 31.089844 40.925781 28.40625 41.449219 27.855469 41.449219 C 27.304688 41.449219 26.792969 41.710938 26.792969 42.132812 C 25.667969 42.167969 24.332031 42.132812 23.492188 42.132812 C 22.652344 42.132812 22.023438 42.375 22.023438 43.078125 C 25.289062 43.101562 28.558594 43.089844 31.828125 43.09375 Z M 20.296875 21.769531 C 20.386719 21.769531 20.5 21.789062 20.578125 21.832031 C 20.945312 21.980469 20.851562 22.523438 20.523438 22.535156 C 20.503906 22.480469 20.519531 22.425781 20.460938 22.414062 C 20.410156 22.40625 20.390625 22.46875 20.375 22.503906 C 20.347656 22.492188 20.316406 22.484375 20.289062 22.464844 C 19.949219 22.21875 20.492188 21.875 20.070312 21.996094 C 19.640625 22.273438 19.941406 22.648438 20.28125 22.808594 L 20.207031 23.011719 C 20.003906 22.898438 19.820312 22.753906 19.691406 22.550781 C 19.488281 22.148438 19.902344 21.773438 20.296875 21.773438 Z M 20.367188 22.84375 L 20.402344 22.855469 L 20.402344 23.105469 L 20.292969 23.054688 Z M 20.5 22.871094 L 20.546875 22.875 L 20.664062 23.207031 L 20.5 23.144531 Z M 19.925781 24.078125 C 20.082031 24.148438 20.242188 24.203125 20.40625 24.253906 L 20.410156 35.203125 L 15.964844 35.203125 Z M 20.5 24.28125 L 21.101562 24.429688 L 24.945312 35.207031 L 20.507812 35.207031 L 20.496094 35.171875 Z M 20.5 24.28125 " fill-opacity="1" fill-rule="nonzero"/></g><g clip-path="url(#id9)"><path fill="#bd9d60" d="M 32.0625 10.929688 L 32.6875 12.195312 C 32.695312 12.21875 32.71875 12.234375 32.742188 12.238281 L 34.144531 12.441406 C 34.207031 12.449219 34.230469 12.527344 34.1875 12.566406 L 33.171875 13.550781 C 33.152344 13.570312 33.148438 13.59375 33.152344 13.621094 L 33.390625 15.011719 C 33.398438 15.074219 33.335938 15.121094 33.28125 15.09375 L 32.027344 14.433594 C 32.003906 14.421875 31.976562 14.421875 31.957031 14.433594 L 30.699219 15.09375 C 30.648438 15.121094 30.582031 15.074219 30.59375 15.011719 L 30.832031 13.621094 C 30.835938 13.59375 30.828125 13.570312 30.808594 13.550781 L 29.796875 12.566406 C 29.753906 12.523438 29.78125 12.449219 29.839844 12.441406 L 31.242188 12.238281 C 31.265625 12.234375 31.285156 12.21875 31.296875 12.195312 L 31.925781 10.929688 C 31.953125 10.875 32.03125 10.875 32.0625 10.929688 Z M 32.0625 10.929688 " fill-opacity="1" fill-rule="nonzero"/></g><g clip-path="url(#id10)"><path fill="#bd9d60" d="M 25.070312 46.042969 C 25.070312 41.898438 28.425781 38.542969 32.570312 38.542969 C 36.710938 38.542969 40.054688 41.898438 40.054688 46.042969 Z M 25.070312 46.042969 " fill-opacity="1" fill-rule="nonzero"/></g></svg>