<svg xmlns="http://www.w3.org/2000/svg" xmlns:xlink="http://www.w3.org/1999/xlink" width="50" zoomAndPan="magnify" viewBox="0 0 37.5 37.499999" height="50" preserveAspectRatio="xMidYMid meet" version="1.0"><defs><clipPath id="id1"><path d="M 2.292969 19 L 6 19 L 6 23 L 2.292969 23 Z M 2.292969 19 " clip-rule="nonzero"/></clipPath><clipPath id="id2"><path d="M 2.292969 21 L 6 21 L 6 25 L 2.292969 25 Z M 2.292969 21 " clip-rule="nonzero"/></clipPath><clipPath id="id3"><path d="M 2.292969 12 L 6 12 L 6 16 L 2.292969 16 Z M 2.292969 12 " clip-rule="nonzero"/></clipPath><clipPath id="id4"><path d="M 2.292969 15 L 6 15 L 6 18 L 2.292969 18 Z M 2.292969 15 " clip-rule="nonzero"/></clipPath><clipPath id="id5"><path d="M 16 1.402344 L 19 1.402344 L 19 5 L 16 5 Z M 16 1.402344 " clip-rule="nonzero"/></clipPath><clipPath id="id6"><path d="M 16.5625 32.945312 L 18.894531 32.945312 L 18.894531 35.882812 L 16.5625 35.882812 Z M 16.5625 32.945312 " clip-rule="nonzero"/></clipPath><clipPath id="id7"><path d="M 18 1.402344 L 21 1.402344 L 21 5 L 18 5 Z M 18 1.402344 " clip-rule="nonzero"/></clipPath><clipPath id="id8"><path d="M 18.6875 32.945312 L 21 32.945312 L 21 35.882812 L 18.6875 35.882812 Z M 18.6875 32.945312 " clip-rule="nonzero"/></clipPath><clipPath id="id9"><path d="M 31 21 L 35.292969 21 L 35.292969 25 L 31 25 Z M 31 21 " clip-rule="nonzero"/></clipPath><clipPath id="id10"><path d="M 31 12 L 35.292969 12 L 35.292969 16 L 31 16 Z M 31 12 " clip-rule="nonzero"/></clipPath><clipPath id="id11"><path d="M 18 10.1875 L 29.761719 10.1875 L 29.761719 26.6875 L 18 26.6875 Z M 18 10.1875 " clip-rule="nonzero"/></clipPath><clipPath id="id12"><path d="M 8.011719 10.1875 L 19 10.1875 L 19 26.6875 L 8.011719 26.6875 Z M 8.011719 10.1875 " clip-rule="nonzero"/></clipPath><clipPath id="id13"><path d="M 17.71875 6.210938 L 20.09375 6.210938 L 20.09375 8.464844 L 17.71875 8.464844 Z M 17.71875 6.210938 " clip-rule="nonzero"/></clipPath><clipPath id="id14"><path d="M 14.507812 24.511719 L 23.507812 24.511719 L 23.507812 29.011719 L 14.507812 29.011719 Z M 14.507812 24.511719 " clip-rule="nonzero"/></clipPath></defs><g clip-path="url(#id1)"><path fill="#bd9d60" d="M 3.722656 19.765625 L 3.039062 21.890625 L 4.855469 21.507812 L 4.28125 19.726562 Z M 2.9375 22.050781 C 2.917969 22.050781 2.902344 22.042969 2.886719 22.027344 C 2.871094 22.011719 2.867188 21.984375 2.875 21.960938 L 3.609375 19.679688 C 3.617188 19.652344 3.640625 19.632812 3.667969 19.628906 L 4.324219 19.585938 C 4.359375 19.582031 4.386719 19.601562 4.394531 19.632812 L 5.007812 21.539062 C 5.015625 21.558594 5.011719 21.578125 5.003906 21.597656 C 4.992188 21.613281 4.976562 21.625 4.957031 21.628906 L 2.953125 22.050781 C 2.949219 22.050781 2.941406 22.050781 2.9375 22.050781 " fill-opacity="1" fill-rule="nonzero"/></g><g clip-path="url(#id2)"><path fill="#bd9d60" d="M 2.449219 23.734375 L 3.101562 24.214844 L 5.453125 23.371094 L 4.898438 21.640625 L 2.992188 22.042969 Z M 3.089844 24.359375 C 3.074219 24.359375 3.0625 24.355469 3.050781 24.347656 L 2.328125 23.816406 C 2.300781 23.800781 2.292969 23.769531 2.300781 23.738281 L 2.875 21.960938 C 2.882812 21.9375 2.902344 21.917969 2.925781 21.914062 L 4.929688 21.492188 C 4.964844 21.488281 5 21.507812 5.007812 21.539062 L 5.605469 23.390625 C 5.617188 23.425781 5.597656 23.464844 5.5625 23.476562 L 3.113281 24.355469 C 3.105469 24.359375 3.097656 24.359375 3.089844 24.359375 " fill-opacity="1" fill-rule="nonzero"/></g><path fill="#bd9d60" d="M 6.796875 27.097656 L 6.804688 27.117188 L 6.8125 27.109375 Z M 6.765625 27.296875 C 6.757812 27.296875 6.753906 27.296875 6.746094 27.296875 C 6.722656 27.289062 6.707031 27.273438 6.703125 27.25 L 6.601562 26.9375 C 6.59375 26.910156 6.601562 26.878906 6.625 26.859375 C 6.652344 26.84375 6.683594 26.84375 6.707031 26.859375 L 6.972656 27.054688 C 6.988281 27.070312 7 27.089844 7 27.113281 C 7 27.132812 6.988281 27.15625 6.972656 27.167969 L 6.804688 27.285156 C 6.792969 27.292969 6.78125 27.296875 6.765625 27.296875 " fill-opacity="1" fill-rule="nonzero"/><path fill="#bd9d60" d="M 3.234375 24.3125 L 5.148438 25.71875 L 6.054688 25.242188 L 5.496094 23.503906 Z M 5.144531 25.867188 C 5.128906 25.867188 5.117188 25.863281 5.101562 25.855469 L 3.050781 24.347656 C 3.027344 24.332031 3.019531 24.308594 3.023438 24.28125 C 3.023438 24.257812 3.042969 24.234375 3.066406 24.226562 L 5.515625 23.347656 C 5.535156 23.339844 5.554688 23.34375 5.570312 23.351562 C 5.585938 23.359375 5.597656 23.375 5.605469 23.390625 L 6.203125 25.257812 C 6.214844 25.289062 6.199219 25.324219 6.171875 25.339844 L 5.175781 25.859375 C 5.164062 25.867188 5.15625 25.867188 5.144531 25.867188 " fill-opacity="1" fill-rule="nonzero"/><path fill="#bd9d60" d="M 5.273438 25.808594 L 6.535156 26.734375 L 6.097656 25.375 Z M 6.667969 26.984375 C 6.652344 26.984375 6.636719 26.980469 6.625 26.972656 L 5.101562 25.855469 C 5.082031 25.839844 5.074219 25.816406 5.074219 25.792969 C 5.078125 25.769531 5.089844 25.75 5.113281 25.738281 L 6.109375 25.214844 C 6.125 25.207031 6.148438 25.207031 6.164062 25.214844 C 6.183594 25.222656 6.199219 25.238281 6.203125 25.257812 L 6.730469 26.894531 C 6.742188 26.921875 6.730469 26.957031 6.707031 26.972656 C 6.695312 26.980469 6.679688 26.984375 6.667969 26.984375 " fill-opacity="1" fill-rule="nonzero"/><path fill="#bd9d60" d="M 5.273438 11.5 L 6.097656 11.933594 L 6.535156 10.574219 Z M 6.140625 12.101562 C 6.128906 12.101562 6.117188 12.097656 6.109375 12.09375 L 5.113281 11.574219 C 5.089844 11.5625 5.078125 11.539062 5.074219 11.515625 C 5.074219 11.492188 5.082031 11.46875 5.101562 11.457031 L 6.625 10.335938 C 6.652344 10.320312 6.683594 10.320312 6.707031 10.335938 C 6.730469 10.355469 6.742188 10.386719 6.730469 10.414062 L 6.203125 12.054688 C 6.199219 12.074219 6.183594 12.089844 6.164062 12.097656 C 6.15625 12.101562 6.148438 12.101562 6.140625 12.101562 " fill-opacity="1" fill-rule="nonzero"/><path fill="#bd9d60" d="M 4.007812 18.878906 L 3.769531 19.625 L 4.238281 19.589844 Z M 3.671875 19.769531 C 3.652344 19.769531 3.632812 19.757812 3.617188 19.742188 C 3.605469 19.722656 3.601562 19.699219 3.609375 19.679688 L 3.945312 18.632812 C 3.953125 18.605469 3.980469 18.585938 4.007812 18.585938 C 4.039062 18.585938 4.066406 18.605469 4.074219 18.632812 L 4.394531 19.632812 C 4.402344 19.652344 4.398438 19.675781 4.386719 19.691406 C 4.375 19.710938 4.355469 19.722656 4.335938 19.722656 L 3.679688 19.769531 C 3.675781 19.769531 3.675781 19.769531 3.671875 19.769531 " fill-opacity="1" fill-rule="nonzero"/><path fill="#bd9d60" d="M 3.234375 12.996094 L 5.496094 13.808594 L 6.054688 12.066406 L 5.148438 11.59375 Z M 5.539062 13.964844 C 5.53125 13.964844 5.523438 13.964844 5.515625 13.960938 L 3.066406 13.082031 C 3.042969 13.074219 3.023438 13.054688 3.023438 13.027344 C 3.019531 13.003906 3.027344 12.976562 3.050781 12.960938 L 5.101562 11.457031 C 5.125 11.441406 5.152344 11.4375 5.175781 11.449219 L 6.171875 11.972656 C 6.199219 11.984375 6.214844 12.019531 6.203125 12.054688 L 5.605469 13.917969 C 5.597656 13.9375 5.585938 13.949219 5.570312 13.960938 C 5.558594 13.964844 5.550781 13.964844 5.539062 13.964844 " fill-opacity="1" fill-rule="nonzero"/><g clip-path="url(#id3)"><path fill="#bd9d60" d="M 2.992188 15.269531 L 4.898438 15.667969 L 5.453125 13.941406 L 3.101562 13.09375 L 2.449219 13.574219 Z M 4.945312 15.816406 C 4.9375 15.816406 4.933594 15.816406 4.929688 15.816406 L 2.925781 15.394531 C 2.902344 15.390625 2.882812 15.371094 2.875 15.347656 L 2.300781 13.570312 C 2.292969 13.542969 2.300781 13.511719 2.328125 13.492188 L 3.050781 12.960938 C 3.066406 12.949219 3.089844 12.945312 3.113281 12.953125 L 5.5625 13.832031 C 5.597656 13.84375 5.617188 13.882812 5.605469 13.917969 L 5.007812 15.769531 C 5 15.796875 4.972656 15.816406 4.945312 15.816406 " fill-opacity="1" fill-rule="nonzero"/></g><path fill="#bd9d60" d="M 3.769531 17.6875 L 4.007812 18.429688 L 4.238281 17.71875 Z M 4.007812 18.722656 C 3.980469 18.722656 3.953125 18.703125 3.945312 18.675781 L 3.609375 17.632812 C 3.601562 17.609375 3.605469 17.585938 3.617188 17.566406 C 3.632812 17.550781 3.65625 17.539062 3.679688 17.542969 L 4.335938 17.585938 C 4.355469 17.589844 4.375 17.601562 4.386719 17.617188 C 4.398438 17.636719 4.402344 17.65625 4.394531 17.675781 L 4.074219 18.675781 C 4.066406 18.703125 4.039062 18.722656 4.007812 18.722656 " fill-opacity="1" fill-rule="nonzero"/><g clip-path="url(#id4)"><path fill="#bd9d60" d="M 3.722656 17.542969 L 4.28125 17.582031 L 4.855469 15.800781 L 3.039062 15.417969 Z M 4.332031 17.726562 C 4.328125 17.726562 4.328125 17.726562 4.324219 17.726562 L 3.667969 17.679688 C 3.640625 17.675781 3.617188 17.660156 3.609375 17.632812 L 2.875 15.347656 C 2.867188 15.324219 2.871094 15.300781 2.886719 15.28125 C 2.902344 15.261719 2.929688 15.253906 2.953125 15.261719 L 4.957031 15.679688 C 4.976562 15.683594 4.992188 15.695312 5.003906 15.714844 C 5.011719 15.730469 5.015625 15.75 5.007812 15.769531 L 4.394531 17.675781 C 4.386719 17.707031 4.359375 17.726562 4.332031 17.726562 " fill-opacity="1" fill-rule="nonzero"/></g><path fill="#bd9d60" d="M 6.804688 10.191406 L 6.796875 10.210938 L 6.8125 10.199219 Z M 6.667969 10.460938 C 6.652344 10.460938 6.636719 10.457031 6.625 10.449219 C 6.601562 10.429688 6.59375 10.402344 6.601562 10.371094 L 6.703125 10.058594 C 6.707031 10.039062 6.722656 10.023438 6.746094 10.015625 C 6.765625 10.007812 6.789062 10.011719 6.804688 10.023438 L 6.972656 10.140625 C 6.988281 10.15625 7 10.175781 7 10.199219 C 7 10.21875 6.988281 10.242188 6.972656 10.253906 L 6.707031 10.449219 C 6.695312 10.457031 6.679688 10.460938 6.667969 10.460938 " fill-opacity="1" fill-rule="nonzero"/><path fill="#bd9d60" d="M 6.847656 27.257812 L 7.484375 29.230469 L 8.453125 28.3125 L 6.929688 27.195312 Z M 7.449219 29.421875 C 7.445312 29.421875 7.4375 29.421875 7.433594 29.421875 C 7.410156 29.414062 7.390625 29.398438 7.386719 29.375 L 6.703125 27.25 C 6.691406 27.222656 6.703125 27.191406 6.726562 27.171875 L 6.890625 27.054688 C 6.917969 27.039062 6.949219 27.039062 6.972656 27.054688 L 8.601562 28.25 C 8.617188 28.261719 8.628906 28.28125 8.628906 28.304688 C 8.628906 28.324219 8.621094 28.34375 8.609375 28.359375 L 7.496094 29.40625 C 7.484375 29.417969 7.46875 29.421875 7.449219 29.421875 " fill-opacity="1" fill-rule="nonzero"/><path fill="#bd9d60" d="M 6.847656 10.054688 L 6.929688 10.113281 L 8.453125 8.996094 L 7.484375 8.082031 Z M 6.933594 10.269531 C 6.917969 10.269531 6.902344 10.261719 6.890625 10.253906 L 6.726562 10.136719 C 6.703125 10.121094 6.691406 10.089844 6.703125 10.058594 L 7.386719 7.933594 C 7.390625 7.914062 7.410156 7.894531 7.433594 7.890625 C 7.457031 7.882812 7.480469 7.890625 7.496094 7.90625 L 8.609375 8.953125 C 8.621094 8.964844 8.628906 8.988281 8.628906 9.007812 C 8.628906 9.027344 8.617188 9.046875 8.601562 9.058594 L 6.972656 10.253906 C 6.960938 10.261719 6.945312 10.269531 6.933594 10.269531 " fill-opacity="1" fill-rule="nonzero"/><path fill="#bd9d60" d="M 7.527344 7.933594 L 8.566406 8.914062 L 10.007812 7.855469 L 8.253906 5.679688 Z M 8.5625 9.070312 C 8.542969 9.070312 8.527344 9.066406 8.515625 9.054688 L 7.402344 8.007812 C 7.382812 7.988281 7.378906 7.960938 7.386719 7.933594 L 8.164062 5.515625 C 8.171875 5.492188 8.191406 5.476562 8.214844 5.46875 C 8.242188 5.464844 8.265625 5.476562 8.28125 5.496094 L 10.160156 7.824219 C 10.171875 7.839844 10.175781 7.859375 10.171875 7.878906 C 10.171875 7.898438 10.160156 7.914062 10.144531 7.925781 L 8.601562 9.058594 C 8.589844 9.066406 8.574219 9.070312 8.5625 9.070312 " fill-opacity="1" fill-rule="nonzero"/><path fill="#bd9d60" d="M 7.527344 29.375 L 8.253906 31.628906 L 10.007812 29.453125 L 8.566406 28.398438 Z M 8.226562 31.839844 C 8.222656 31.839844 8.21875 31.839844 8.214844 31.839844 C 8.191406 31.835938 8.171875 31.816406 8.164062 31.792969 L 7.386719 29.375 C 7.378906 29.351562 7.382812 29.320312 7.402344 29.304688 L 8.515625 28.257812 C 8.539062 28.234375 8.574219 28.230469 8.601562 28.25 L 10.144531 29.382812 C 10.160156 29.394531 10.171875 29.414062 10.171875 29.429688 C 10.175781 29.449219 10.171875 29.46875 10.160156 29.484375 L 8.28125 31.816406 C 8.269531 31.832031 8.25 31.839844 8.226562 31.839844 " fill-opacity="1" fill-rule="nonzero"/><path fill="#bd9d60" d="M 8.304688 5.523438 L 10.117188 7.773438 L 11.535156 6.734375 L 10.085938 4.324219 L 8.691406 4.324219 Z M 10.105469 7.9375 C 10.085938 7.9375 10.066406 7.929688 10.050781 7.914062 L 8.175781 5.582031 C 8.160156 5.5625 8.15625 5.539062 8.164062 5.515625 L 8.574219 4.234375 C 8.585938 4.207031 8.609375 4.1875 8.640625 4.1875 L 10.125 4.1875 C 10.148438 4.1875 10.167969 4.199219 10.179688 4.222656 L 11.683594 6.71875 C 11.703125 6.75 11.695312 6.789062 11.667969 6.808594 L 10.144531 7.925781 C 10.132812 7.933594 10.121094 7.9375 10.105469 7.9375 " fill-opacity="1" fill-rule="nonzero"/><path fill="#bd9d60" d="M 8.691406 32.984375 L 10.085938 32.984375 L 11.535156 30.574219 L 10.117188 29.535156 L 8.304688 31.785156 Z M 10.125 33.121094 L 8.640625 33.121094 C 8.609375 33.121094 8.585938 33.101562 8.574219 33.074219 L 8.164062 31.792969 C 8.15625 31.769531 8.160156 31.746094 8.175781 31.726562 L 10.050781 29.398438 C 10.074219 29.367188 10.117188 29.363281 10.144531 29.382812 L 11.667969 30.5 C 11.695312 30.523438 11.703125 30.5625 11.683594 30.59375 L 10.179688 33.089844 C 10.167969 33.109375 10.148438 33.121094 10.125 33.121094 " fill-opacity="1" fill-rule="nonzero"/><path fill="#bd9d60" d="M 10.246094 4.324219 L 11.644531 6.652344 L 13.097656 5.585938 L 12.554688 4.324219 Z M 11.625 6.824219 C 11.621094 6.824219 11.617188 6.820312 11.613281 6.820312 C 11.59375 6.816406 11.578125 6.804688 11.566406 6.789062 L 10.0625 4.292969 C 10.050781 4.269531 10.050781 4.246094 10.0625 4.222656 C 10.074219 4.199219 10.097656 4.1875 10.125 4.1875 L 12.601562 4.1875 C 12.628906 4.1875 12.652344 4.203125 12.664062 4.230469 L 13.246094 5.582031 C 13.257812 5.613281 13.25 5.648438 13.222656 5.667969 L 11.667969 6.808594 C 11.65625 6.816406 11.640625 6.824219 11.625 6.824219 " fill-opacity="1" fill-rule="nonzero"/><path fill="#bd9d60" d="M 10.246094 32.984375 L 12.554688 32.984375 L 13.097656 31.722656 L 11.644531 30.65625 Z M 12.601562 33.121094 L 10.125 33.121094 C 10.097656 33.121094 10.074219 33.109375 10.0625 33.085938 C 10.050781 33.066406 10.050781 33.039062 10.0625 33.015625 L 11.566406 30.519531 C 11.578125 30.503906 11.59375 30.492188 11.613281 30.488281 C 11.632812 30.484375 11.652344 30.488281 11.667969 30.5 L 13.222656 31.644531 C 13.25 31.664062 13.257812 31.695312 13.246094 31.726562 L 12.664062 33.082031 C 12.652344 33.105469 12.628906 33.121094 12.601562 33.121094 " fill-opacity="1" fill-rule="nonzero"/><path fill="#bd9d60" d="M 12.703125 4.324219 L 13.210938 5.503906 L 14.757812 4.371094 L 14.746094 4.324219 Z M 13.183594 5.679688 C 13.175781 5.679688 13.171875 5.679688 13.164062 5.679688 C 13.144531 5.671875 13.128906 5.65625 13.121094 5.636719 L 12.539062 4.285156 C 12.527344 4.261719 12.53125 4.238281 12.542969 4.21875 C 12.554688 4.199219 12.578125 4.1875 12.601562 4.1875 L 14.796875 4.1875 C 14.828125 4.1875 14.855469 4.207031 14.863281 4.238281 L 14.902344 4.378906 C 14.910156 4.40625 14.898438 4.4375 14.875 4.453125 L 13.222656 5.667969 C 13.210938 5.675781 13.195312 5.679688 13.183594 5.679688 " fill-opacity="1" fill-rule="nonzero"/><path fill="#bd9d60" d="M 12.703125 32.984375 L 14.746094 32.984375 L 14.757812 32.941406 L 13.210938 31.804688 Z M 14.796875 33.121094 L 12.601562 33.121094 C 12.578125 33.121094 12.554688 33.109375 12.542969 33.089844 C 12.53125 33.070312 12.527344 33.046875 12.539062 33.027344 L 13.121094 31.671875 C 13.128906 31.652344 13.144531 31.636719 13.164062 31.632812 C 13.183594 31.625 13.207031 31.628906 13.222656 31.644531 L 14.875 32.855469 C 14.898438 32.875 14.910156 32.902344 14.902344 32.929688 L 14.863281 33.070312 C 14.855469 33.101562 14.828125 33.121094 14.796875 33.121094 " fill-opacity="1" fill-rule="nonzero"/><path fill="#bd9d60" d="M 15.027344 33.121094 L 14.796875 33.121094 C 14.777344 33.121094 14.757812 33.113281 14.742188 33.09375 C 14.730469 33.078125 14.726562 33.054688 14.730469 33.035156 L 14.769531 32.894531 C 14.777344 32.871094 14.792969 32.855469 14.8125 32.847656 C 14.835938 32.839844 14.859375 32.84375 14.875 32.855469 L 15.066406 32.996094 C 15.09375 33.015625 15.101562 33.046875 15.09375 33.074219 C 15.082031 33.101562 15.058594 33.121094 15.027344 33.121094 " fill-opacity="1" fill-rule="nonzero"/><path fill="#bd9d60" d="M 14.835938 4.464844 C 14.828125 4.464844 14.820312 4.464844 14.8125 4.460938 C 14.792969 4.457031 14.777344 4.4375 14.769531 4.414062 L 14.730469 4.273438 C 14.726562 4.253906 14.730469 4.230469 14.742188 4.214844 C 14.757812 4.199219 14.777344 4.1875 14.796875 4.1875 L 15.027344 4.1875 C 15.058594 4.1875 15.082031 4.207031 15.09375 4.234375 C 15.101562 4.265625 15.09375 4.296875 15.066406 4.3125 L 14.875 4.453125 C 14.863281 4.460938 14.851562 4.464844 14.835938 4.464844 " fill-opacity="1" fill-rule="nonzero"/><path fill="#bd9d60" d="M 15.238281 4.1875 L 16.753906 4.1875 L 16.617188 3.175781 Z M 16.832031 4.324219 L 15.027344 4.324219 C 15 4.324219 14.972656 4.308594 14.960938 4.277344 C 14.953125 4.25 14.964844 4.21875 14.988281 4.199219 L 16.628906 2.996094 C 16.648438 2.980469 16.671875 2.980469 16.695312 2.988281 C 16.71875 3 16.734375 3.019531 16.738281 3.042969 L 16.898438 4.246094 C 16.902344 4.265625 16.898438 4.289062 16.882812 4.300781 C 16.871094 4.316406 16.851562 4.324219 16.832031 4.324219 " fill-opacity="1" fill-rule="nonzero"/><path fill="#bd9d60" d="M 15.238281 33.121094 L 16.617188 34.132812 L 16.753906 33.121094 Z M 16.667969 34.328125 C 16.65625 34.328125 16.640625 34.320312 16.628906 34.3125 L 14.988281 33.109375 C 14.964844 33.089844 14.953125 33.058594 14.960938 33.03125 C 14.972656 33.003906 15 32.984375 15.027344 32.984375 L 16.832031 32.984375 C 16.851562 32.984375 16.871094 32.992188 16.882812 33.007812 C 16.898438 33.023438 16.902344 33.042969 16.898438 33.0625 L 16.738281 34.265625 C 16.734375 34.289062 16.71875 34.3125 16.695312 34.320312 C 16.6875 34.324219 16.679688 34.328125 16.667969 34.328125 " fill-opacity="1" fill-rule="nonzero"/><path fill="#bd9d60" d="M 6.933594 10.199219 Z M 15.050781 32.984375 L 22.53125 32.984375 L 30.859375 26.875 L 33.5 18.65625 L 30.859375 10.4375 L 22.53125 4.324219 L 15.050781 4.324219 L 6.972656 10.253906 L 6.726562 10.4375 L 4.082031 18.65625 L 6.726562 26.875 Z M 22.554688 33.121094 L 15.027344 33.121094 C 15.011719 33.121094 15 33.117188 14.988281 33.109375 L 6.625 26.972656 C 6.613281 26.964844 6.605469 26.953125 6.601562 26.9375 L 3.945312 18.675781 C 3.941406 18.664062 3.941406 18.648438 3.945312 18.632812 L 6.601562 10.371094 C 6.605469 10.359375 6.613281 10.347656 6.625 10.335938 L 14.988281 4.199219 C 15 4.191406 15.011719 4.1875 15.027344 4.1875 L 22.554688 4.1875 C 22.570312 4.1875 22.582031 4.191406 22.59375 4.199219 L 30.957031 10.335938 C 30.96875 10.347656 30.976562 10.359375 30.980469 10.371094 L 33.636719 18.632812 C 33.644531 18.648438 33.644531 18.664062 33.636719 18.675781 L 30.980469 26.9375 C 30.976562 26.953125 30.96875 26.964844 30.957031 26.972656 L 22.59375 33.109375 C 22.582031 33.117188 22.570312 33.121094 22.554688 33.121094 " fill-opacity="1" fill-rule="nonzero"/><g clip-path="url(#id5)"><path fill="#bd9d60" d="M 16.890625 4.1875 L 18.722656 4.1875 L 18.722656 1.632812 L 16.742188 3.085938 Z M 18.792969 4.324219 L 16.832031 4.324219 C 16.796875 4.324219 16.769531 4.300781 16.765625 4.265625 L 16.601562 3.0625 C 16.597656 3.035156 16.609375 3.011719 16.628906 2.996094 L 18.75 1.4375 C 18.773438 1.421875 18.800781 1.421875 18.824219 1.433594 C 18.84375 1.445312 18.859375 1.46875 18.859375 1.496094 L 18.859375 4.257812 C 18.859375 4.296875 18.828125 4.324219 18.792969 4.324219 " fill-opacity="1" fill-rule="nonzero"/></g><g clip-path="url(#id6)"><path fill="#bd9d60" d="M 16.742188 34.226562 L 18.722656 35.679688 L 18.722656 33.121094 L 16.890625 33.121094 Z M 18.792969 35.882812 C 18.777344 35.882812 18.761719 35.878906 18.75 35.871094 L 16.628906 34.3125 C 16.609375 34.296875 16.597656 34.273438 16.601562 34.246094 L 16.765625 33.042969 C 16.769531 33.007812 16.796875 32.984375 16.832031 32.984375 L 18.792969 32.984375 C 18.828125 32.984375 18.859375 33.015625 18.859375 33.054688 L 18.859375 35.816406 C 18.859375 35.839844 18.84375 35.867188 18.824219 35.875 C 18.8125 35.882812 18.800781 35.882812 18.792969 35.882812 " fill-opacity="1" fill-rule="nonzero"/></g><g clip-path="url(#id7)"><path fill="#bd9d60" d="M 18.859375 4.1875 L 20.691406 4.1875 L 20.839844 3.085938 L 18.859375 1.632812 Z M 20.75 4.324219 L 18.792969 4.324219 C 18.753906 4.324219 18.722656 4.296875 18.722656 4.257812 L 18.722656 1.496094 C 18.722656 1.46875 18.738281 1.445312 18.761719 1.433594 C 18.785156 1.421875 18.8125 1.421875 18.832031 1.4375 L 20.953125 2.996094 C 20.972656 3.011719 20.984375 3.035156 20.980469 3.0625 L 20.820312 4.265625 C 20.8125 4.300781 20.785156 4.324219 20.75 4.324219 " fill-opacity="1" fill-rule="nonzero"/></g><g clip-path="url(#id8)"><path fill="#bd9d60" d="M 18.859375 33.121094 L 18.859375 35.679688 L 20.839844 34.226562 L 20.691406 33.121094 Z M 18.792969 35.882812 C 18.78125 35.882812 18.769531 35.882812 18.761719 35.875 C 18.738281 35.867188 18.722656 35.839844 18.722656 35.816406 L 18.722656 33.054688 C 18.722656 33.015625 18.753906 32.984375 18.792969 32.984375 L 20.75 32.984375 C 20.785156 32.984375 20.8125 33.007812 20.820312 33.042969 L 20.980469 34.246094 C 20.984375 34.273438 20.972656 34.296875 20.953125 34.3125 L 18.832031 35.871094 C 18.820312 35.878906 18.804688 35.882812 18.792969 35.882812 " fill-opacity="1" fill-rule="nonzero"/></g><path fill="#bd9d60" d="M 20.828125 33.121094 L 20.964844 34.132812 L 22.34375 33.121094 Z M 20.914062 34.328125 C 20.90625 34.328125 20.894531 34.324219 20.886719 34.320312 C 20.863281 34.3125 20.847656 34.289062 20.847656 34.265625 L 20.683594 33.0625 C 20.679688 33.042969 20.6875 33.023438 20.699219 33.007812 C 20.710938 32.992188 20.730469 32.984375 20.75 32.984375 L 22.554688 32.984375 C 22.585938 32.984375 22.609375 33.003906 22.621094 33.03125 C 22.628906 33.058594 22.621094 33.089844 22.59375 33.109375 L 20.953125 34.3125 C 20.941406 34.320312 20.929688 34.328125 20.914062 34.328125 " fill-opacity="1" fill-rule="nonzero"/><path fill="#bd9d60" d="M 20.828125 4.1875 L 22.34375 4.1875 L 20.964844 3.175781 Z M 22.554688 4.324219 L 20.75 4.324219 C 20.730469 4.324219 20.710938 4.316406 20.699219 4.300781 C 20.6875 4.289062 20.679688 4.265625 20.683594 4.246094 L 20.847656 3.042969 C 20.847656 3.019531 20.863281 3 20.886719 2.988281 C 20.910156 2.980469 20.933594 2.980469 20.953125 2.996094 L 22.59375 4.199219 C 22.621094 4.21875 22.628906 4.25 22.621094 4.277344 C 22.609375 4.308594 22.585938 4.324219 22.554688 4.324219 " fill-opacity="1" fill-rule="nonzero"/><path fill="#bd9d60" d="M 22.746094 4.464844 C 22.730469 4.464844 22.71875 4.460938 22.707031 4.453125 L 22.515625 4.3125 C 22.492188 4.296875 22.480469 4.265625 22.488281 4.234375 C 22.5 4.207031 22.523438 4.1875 22.554688 4.1875 L 22.785156 4.1875 C 22.804688 4.1875 22.828125 4.199219 22.839844 4.214844 C 22.851562 4.230469 22.855469 4.253906 22.851562 4.273438 L 22.8125 4.414062 C 22.804688 4.4375 22.789062 4.457031 22.769531 4.460938 C 22.761719 4.464844 22.753906 4.464844 22.746094 4.464844 " fill-opacity="1" fill-rule="nonzero"/><path fill="#bd9d60" d="M 22.785156 33.121094 L 22.554688 33.121094 C 22.523438 33.121094 22.5 33.101562 22.488281 33.074219 C 22.480469 33.046875 22.492188 33.015625 22.515625 32.996094 L 22.707031 32.855469 C 22.722656 32.84375 22.746094 32.839844 22.769531 32.847656 C 22.789062 32.855469 22.804688 32.871094 22.8125 32.894531 L 22.851562 33.035156 C 22.855469 33.054688 22.851562 33.078125 22.839844 33.09375 C 22.828125 33.113281 22.804688 33.121094 22.785156 33.121094 " fill-opacity="1" fill-rule="nonzero"/><path fill="#bd9d60" d="M 22.824219 4.371094 L 24.371094 5.503906 L 24.878906 4.324219 L 22.835938 4.324219 Z M 24.398438 5.679688 C 24.386719 5.679688 24.371094 5.675781 24.359375 5.667969 L 22.707031 4.453125 C 22.683594 4.4375 22.671875 4.40625 22.679688 4.378906 L 22.71875 4.238281 C 22.726562 4.207031 22.753906 4.1875 22.785156 4.1875 L 24.984375 4.1875 C 25.003906 4.1875 25.027344 4.199219 25.039062 4.21875 C 25.050781 4.238281 25.054688 4.261719 25.046875 4.285156 L 24.464844 5.636719 C 24.453125 5.65625 24.4375 5.671875 24.417969 5.679688 C 24.414062 5.679688 24.40625 5.679688 24.398438 5.679688 " fill-opacity="1" fill-rule="nonzero"/><path fill="#bd9d60" d="M 22.835938 32.984375 L 24.878906 32.984375 L 24.371094 31.804688 L 22.824219 32.941406 Z M 24.984375 33.121094 L 22.785156 33.121094 C 22.753906 33.121094 22.726562 33.101562 22.71875 33.070312 L 22.679688 32.929688 C 22.671875 32.902344 22.683594 32.875 22.707031 32.855469 L 24.359375 31.644531 C 24.375 31.628906 24.398438 31.625 24.417969 31.632812 C 24.4375 31.636719 24.453125 31.652344 24.464844 31.671875 L 25.046875 33.027344 C 25.054688 33.046875 25.050781 33.070312 25.039062 33.089844 C 25.027344 33.109375 25.003906 33.121094 24.984375 33.121094 " fill-opacity="1" fill-rule="nonzero"/><path fill="#bd9d60" d="M 25.027344 32.984375 L 27.335938 32.984375 L 25.9375 30.65625 L 24.484375 31.722656 Z M 27.460938 33.121094 L 24.984375 33.121094 C 24.957031 33.121094 24.929688 33.105469 24.917969 33.082031 L 24.335938 31.726562 C 24.324219 31.695312 24.335938 31.664062 24.359375 31.644531 L 25.917969 30.5 C 25.929688 30.488281 25.949219 30.484375 25.96875 30.488281 C 25.988281 30.492188 26.003906 30.503906 26.015625 30.519531 L 27.519531 33.015625 C 27.53125 33.039062 27.53125 33.066406 27.519531 33.085938 C 27.507812 33.109375 27.484375 33.121094 27.460938 33.121094 " fill-opacity="1" fill-rule="nonzero"/><path fill="#bd9d60" d="M 24.484375 5.585938 L 25.9375 6.652344 L 27.335938 4.324219 L 25.027344 4.324219 Z M 25.957031 6.824219 C 25.941406 6.824219 25.929688 6.816406 25.917969 6.808594 L 24.359375 5.667969 C 24.335938 5.648438 24.324219 5.613281 24.335938 5.582031 L 24.917969 4.230469 C 24.929688 4.203125 24.957031 4.1875 24.984375 4.1875 L 27.460938 4.1875 C 27.484375 4.1875 27.507812 4.199219 27.519531 4.222656 C 27.53125 4.246094 27.53125 4.269531 27.519531 4.292969 L 26.015625 6.789062 C 26.003906 6.804688 25.988281 6.816406 25.96875 6.820312 C 25.964844 6.820312 25.960938 6.824219 25.957031 6.824219 " fill-opacity="1" fill-rule="nonzero"/><path fill="#bd9d60" d="M 26.046875 6.734375 L 27.464844 7.773438 L 29.277344 5.523438 L 28.890625 4.324219 L 27.5 4.324219 Z M 27.476562 7.9375 C 27.464844 7.9375 27.449219 7.933594 27.4375 7.925781 L 25.917969 6.808594 C 25.886719 6.789062 25.878906 6.75 25.898438 6.71875 L 27.402344 4.222656 C 27.414062 4.199219 27.4375 4.1875 27.460938 4.1875 L 28.941406 4.1875 C 28.972656 4.1875 29 4.207031 29.007812 4.234375 L 29.417969 5.515625 C 29.425781 5.539062 29.421875 5.5625 29.40625 5.582031 L 27.53125 7.914062 C 27.515625 7.929688 27.496094 7.9375 27.476562 7.9375 " fill-opacity="1" fill-rule="nonzero"/><path fill="#bd9d60" d="M 27.5 32.984375 L 28.890625 32.984375 L 29.277344 31.785156 L 27.464844 29.535156 L 26.046875 30.574219 Z M 28.941406 33.121094 L 27.460938 33.121094 C 27.4375 33.121094 27.414062 33.109375 27.402344 33.089844 L 25.898438 30.59375 C 25.878906 30.5625 25.886719 30.523438 25.917969 30.5 L 27.4375 29.382812 C 27.464844 29.363281 27.507812 29.367188 27.53125 29.398438 L 29.40625 31.726562 C 29.421875 31.746094 29.425781 31.769531 29.417969 31.792969 L 29.007812 33.074219 C 29 33.101562 28.972656 33.121094 28.941406 33.121094 " fill-opacity="1" fill-rule="nonzero"/><path fill="#bd9d60" d="M 27.578125 7.855469 L 29.015625 8.914062 L 30.054688 7.933594 L 29.328125 5.679688 Z M 29.023438 9.070312 C 29.007812 9.070312 28.992188 9.066406 28.980469 9.058594 L 27.4375 7.925781 C 27.421875 7.914062 27.410156 7.898438 27.410156 7.878906 C 27.40625 7.859375 27.414062 7.839844 27.425781 7.824219 L 29.300781 5.496094 C 29.316406 5.476562 29.34375 5.464844 29.367188 5.46875 C 29.390625 5.476562 29.410156 5.492188 29.417969 5.515625 L 30.199219 7.933594 C 30.207031 7.960938 30.199219 7.988281 30.179688 8.007812 L 29.070312 9.054688 C 29.054688 9.066406 29.039062 9.070312 29.023438 9.070312 " fill-opacity="1" fill-rule="nonzero"/><path fill="#bd9d60" d="M 27.578125 29.453125 L 29.328125 31.628906 L 30.054688 29.375 L 29.015625 28.398438 Z M 29.355469 31.839844 C 29.335938 31.839844 29.3125 31.832031 29.300781 31.816406 L 27.425781 29.484375 C 27.414062 29.46875 27.40625 29.449219 27.410156 29.429688 C 27.410156 29.414062 27.421875 29.394531 27.4375 29.382812 L 28.980469 28.25 C 29.007812 28.230469 29.042969 28.234375 29.070312 28.257812 L 30.179688 29.304688 C 30.199219 29.320312 30.207031 29.351562 30.199219 29.375 L 29.417969 31.792969 C 29.410156 31.816406 29.390625 31.835938 29.367188 31.839844 C 29.363281 31.839844 29.359375 31.839844 29.355469 31.839844 " fill-opacity="1" fill-rule="nonzero"/><path fill="#bd9d60" d="M 29.128906 28.3125 L 30.101562 29.230469 L 30.734375 27.257812 L 30.652344 27.195312 Z M 30.132812 29.421875 C 30.113281 29.421875 30.097656 29.417969 30.085938 29.40625 L 28.976562 28.359375 C 28.960938 28.34375 28.953125 28.324219 28.953125 28.304688 C 28.953125 28.28125 28.964844 28.261719 28.980469 28.25 L 30.609375 27.054688 C 30.632812 27.039062 30.667969 27.039062 30.691406 27.054688 L 30.855469 27.171875 C 30.878906 27.191406 30.890625 27.222656 30.882812 27.25 L 30.199219 29.375 C 30.191406 29.398438 30.171875 29.414062 30.148438 29.421875 C 30.144531 29.421875 30.136719 29.421875 30.132812 29.421875 " fill-opacity="1" fill-rule="nonzero"/><path fill="#bd9d60" d="M 29.128906 8.996094 L 30.652344 10.113281 L 30.734375 10.054688 L 30.101562 8.082031 Z M 30.652344 10.269531 C 30.636719 10.269531 30.621094 10.261719 30.609375 10.253906 L 28.980469 9.058594 C 28.964844 9.046875 28.953125 9.027344 28.953125 9.007812 C 28.953125 8.988281 28.960938 8.964844 28.976562 8.953125 L 30.085938 7.90625 C 30.101562 7.890625 30.125 7.882812 30.148438 7.890625 C 30.171875 7.894531 30.191406 7.914062 30.199219 7.933594 L 30.882812 10.058594 C 30.890625 10.089844 30.878906 10.121094 30.855469 10.136719 L 30.691406 10.253906 C 30.679688 10.261719 30.664062 10.269531 30.652344 10.269531 " fill-opacity="1" fill-rule="nonzero"/><path fill="#bd9d60" d="M 30.769531 27.109375 L 30.78125 27.117188 L 30.785156 27.097656 Z M 30.816406 27.296875 C 30.800781 27.296875 30.789062 27.292969 30.777344 27.285156 L 30.609375 27.167969 C 30.59375 27.15625 30.582031 27.132812 30.582031 27.113281 C 30.582031 27.089844 30.59375 27.070312 30.609375 27.054688 L 30.875 26.859375 C 30.898438 26.84375 30.933594 26.84375 30.957031 26.859375 C 30.980469 26.878906 30.992188 26.910156 30.980469 26.9375 L 30.882812 27.25 C 30.875 27.273438 30.859375 27.289062 30.835938 27.296875 C 30.832031 27.296875 30.824219 27.296875 30.816406 27.296875 " fill-opacity="1" fill-rule="nonzero"/><path fill="#bd9d60" d="M 30.769531 10.199219 L 30.785156 10.210938 L 30.78125 10.191406 Z M 30.917969 10.460938 C 30.902344 10.460938 30.886719 10.457031 30.875 10.449219 L 30.609375 10.253906 C 30.59375 10.242188 30.582031 10.21875 30.582031 10.199219 C 30.582031 10.175781 30.59375 10.15625 30.609375 10.140625 L 30.777344 10.023438 C 30.792969 10.011719 30.816406 10.007812 30.835938 10.015625 C 30.859375 10.023438 30.875 10.039062 30.882812 10.058594 L 30.980469 10.371094 C 30.992188 10.402344 30.980469 10.429688 30.957031 10.449219 C 30.945312 10.457031 30.929688 10.460938 30.917969 10.460938 " fill-opacity="1" fill-rule="nonzero"/><path fill="#bd9d60" d="M 31.046875 10.574219 L 31.484375 11.933594 L 32.308594 11.5 Z M 31.441406 12.101562 C 31.433594 12.101562 31.425781 12.101562 31.417969 12.097656 C 31.398438 12.089844 31.382812 12.074219 31.378906 12.054688 L 30.851562 10.414062 C 30.839844 10.386719 30.851562 10.355469 30.875 10.335938 C 30.898438 10.320312 30.933594 10.320312 30.957031 10.335938 L 32.480469 11.457031 C 32.5 11.46875 32.507812 11.492188 32.507812 11.515625 C 32.503906 11.539062 32.492188 11.5625 32.46875 11.574219 L 31.476562 12.09375 C 31.464844 12.097656 31.453125 12.101562 31.441406 12.101562 " fill-opacity="1" fill-rule="nonzero"/><path fill="#bd9d60" d="M 31.484375 25.375 L 31.046875 26.734375 L 32.308594 25.808594 Z M 30.917969 26.984375 C 30.902344 26.984375 30.886719 26.980469 30.875 26.972656 C 30.851562 26.957031 30.839844 26.921875 30.851562 26.894531 L 31.378906 25.257812 C 31.382812 25.238281 31.398438 25.222656 31.417969 25.214844 C 31.4375 25.207031 31.457031 25.207031 31.476562 25.214844 L 32.46875 25.738281 C 32.492188 25.75 32.503906 25.769531 32.507812 25.792969 C 32.507812 25.816406 32.5 25.839844 32.480469 25.855469 L 30.957031 26.972656 C 30.945312 26.980469 30.929688 26.984375 30.917969 26.984375 " fill-opacity="1" fill-rule="nonzero"/><path fill="#bd9d60" d="M 33.34375 17.71875 L 33.574219 18.429688 L 33.8125 17.6875 Z M 33.574219 18.722656 C 33.542969 18.722656 33.515625 18.703125 33.507812 18.675781 L 33.1875 17.675781 C 33.179688 17.65625 33.183594 17.636719 33.195312 17.617188 C 33.207031 17.601562 33.226562 17.589844 33.246094 17.585938 L 33.90625 17.542969 C 33.925781 17.539062 33.949219 17.550781 33.964844 17.566406 C 33.976562 17.585938 33.980469 17.609375 33.976562 17.632812 L 33.636719 18.675781 C 33.628906 18.703125 33.601562 18.722656 33.574219 18.722656 " fill-opacity="1" fill-rule="nonzero"/><path fill="#bd9d60" d="M 33.34375 19.589844 L 33.8125 19.625 L 33.574219 18.878906 Z M 33.910156 19.769531 C 33.90625 19.769531 33.90625 19.769531 33.90625 19.769531 L 33.246094 19.722656 C 33.226562 19.722656 33.207031 19.710938 33.195312 19.691406 C 33.183594 19.675781 33.179688 19.652344 33.1875 19.632812 L 33.507812 18.632812 C 33.515625 18.605469 33.542969 18.585938 33.574219 18.585938 C 33.601562 18.585938 33.628906 18.605469 33.636719 18.632812 L 33.976562 19.679688 C 33.980469 19.699219 33.976562 19.722656 33.964844 19.742188 C 33.949219 19.757812 33.929688 19.769531 33.910156 19.769531 " fill-opacity="1" fill-rule="nonzero"/><path fill="#bd9d60" d="M 31.527344 25.242188 L 32.433594 25.71875 L 34.347656 24.3125 L 32.085938 23.503906 Z M 32.4375 25.867188 C 32.429688 25.867188 32.417969 25.867188 32.40625 25.859375 L 31.410156 25.339844 C 31.382812 25.324219 31.367188 25.289062 31.378906 25.257812 L 31.976562 23.390625 C 31.984375 23.375 31.996094 23.359375 32.011719 23.351562 C 32.03125 23.34375 32.050781 23.339844 32.066406 23.347656 L 34.515625 24.226562 C 34.539062 24.234375 34.558594 24.257812 34.5625 24.28125 C 34.566406 24.308594 34.554688 24.332031 34.535156 24.347656 L 32.480469 25.855469 C 32.46875 25.863281 32.453125 25.867188 32.4375 25.867188 " fill-opacity="1" fill-rule="nonzero"/><path fill="#bd9d60" d="M 31.527344 12.066406 L 32.085938 13.808594 L 34.347656 12.996094 L 32.433594 11.59375 Z M 32.042969 13.964844 C 32.03125 13.964844 32.023438 13.964844 32.011719 13.960938 C 31.996094 13.949219 31.984375 13.9375 31.976562 13.917969 L 31.378906 12.054688 C 31.367188 12.019531 31.382812 11.984375 31.410156 11.972656 L 32.40625 11.449219 C 32.429688 11.4375 32.457031 11.441406 32.480469 11.457031 L 34.535156 12.960938 C 34.554688 12.976562 34.566406 13.003906 34.5625 13.027344 C 34.558594 13.054688 34.539062 13.074219 34.515625 13.082031 L 32.066406 13.960938 C 32.058594 13.964844 32.050781 13.964844 32.042969 13.964844 " fill-opacity="1" fill-rule="nonzero"/><path fill="#bd9d60" d="M 32.726562 21.507812 L 34.542969 21.890625 L 33.859375 19.765625 L 33.300781 19.726562 Z M 34.644531 22.050781 C 34.640625 22.050781 34.632812 22.050781 34.628906 22.050781 L 32.625 21.628906 C 32.605469 21.625 32.589844 21.613281 32.578125 21.597656 C 32.570312 21.578125 32.566406 21.558594 32.574219 21.539062 L 33.1875 19.632812 C 33.195312 19.601562 33.226562 19.582031 33.257812 19.585938 L 33.914062 19.628906 C 33.941406 19.632812 33.964844 19.652344 33.976562 19.679688 L 34.710938 21.960938 C 34.714844 21.984375 34.710938 22.011719 34.695312 22.027344 C 34.683594 22.042969 34.664062 22.050781 34.644531 22.050781 " fill-opacity="1" fill-rule="nonzero"/><path fill="#bd9d60" d="M 32.726562 15.800781 L 33.300781 17.582031 L 33.859375 17.542969 L 34.542969 15.417969 Z M 33.25 17.726562 C 33.222656 17.726562 33.195312 17.707031 33.1875 17.675781 L 32.574219 15.769531 C 32.566406 15.75 32.570312 15.730469 32.578125 15.714844 C 32.589844 15.695312 32.605469 15.683594 32.625 15.679688 L 34.628906 15.261719 C 34.652344 15.253906 34.679688 15.261719 34.695312 15.28125 C 34.710938 15.300781 34.714844 15.324219 34.710938 15.347656 L 33.976562 17.632812 C 33.964844 17.660156 33.941406 17.675781 33.914062 17.679688 L 33.257812 17.726562 C 33.253906 17.726562 33.253906 17.726562 33.25 17.726562 " fill-opacity="1" fill-rule="nonzero"/><g clip-path="url(#id9)"><path fill="#bd9d60" d="M 32.128906 23.371094 L 34.480469 24.214844 L 35.136719 23.734375 L 34.589844 22.042969 L 32.683594 21.640625 Z M 34.492188 24.359375 C 34.484375 24.359375 34.476562 24.359375 34.46875 24.355469 L 32.019531 23.476562 C 31.984375 23.464844 31.964844 23.425781 31.976562 23.390625 L 32.574219 21.539062 C 32.585938 21.507812 32.617188 21.488281 32.652344 21.492188 L 34.65625 21.914062 C 34.683594 21.917969 34.703125 21.9375 34.710938 21.960938 L 35.28125 23.738281 C 35.289062 23.769531 35.28125 23.800781 35.257812 23.816406 L 34.535156 24.347656 C 34.523438 24.355469 34.507812 24.359375 34.492188 24.359375 " fill-opacity="1" fill-rule="nonzero"/></g><g clip-path="url(#id10)"><path fill="#bd9d60" d="M 32.128906 13.941406 L 32.683594 15.667969 L 34.589844 15.269531 L 35.136719 13.574219 L 34.480469 13.09375 Z M 32.636719 15.816406 C 32.609375 15.816406 32.582031 15.796875 32.574219 15.769531 L 31.976562 13.917969 C 31.964844 13.882812 31.984375 13.84375 32.019531 13.832031 L 34.46875 12.953125 C 34.492188 12.945312 34.515625 12.949219 34.535156 12.960938 L 35.257812 13.492188 C 35.28125 13.511719 35.289062 13.542969 35.28125 13.570312 L 34.710938 15.347656 C 34.703125 15.371094 34.683594 15.390625 34.65625 15.394531 L 32.652344 15.816406 C 32.648438 15.816406 32.644531 15.816406 32.636719 15.816406 " fill-opacity="1" fill-rule="nonzero"/></g><g clip-path="url(#id11)"><path fill="#bd9d60" d="M 18.886719 10.1875 L 19.265625 10.714844 C 19.339844 10.804688 19.386719 10.917969 19.386719 11.039062 C 19.386719 11.199219 19.3125 11.335938 19.199219 11.429688 C 18.933594 11.667969 19.074219 11.882812 19.363281 12.015625 C 19.371094 12.367188 19.363281 12.597656 19.371094 12.746094 C 19.472656 12.820312 19.558594 12.914062 19.617188 13.027344 C 19.71875 13.027344 19.820312 13.039062 19.914062 13.046875 C 21.277344 13.160156 22.5 13.796875 23.777344 14.207031 C 24.417969 14.414062 25.117188 14.480469 25.765625 14.28125 C 25.84375 14.257812 25.921875 14.234375 26.003906 14.207031 L 26.089844 13.96875 C 26.074219 13.96875 26.054688 13.964844 26.039062 13.957031 C 25.699219 13.90625 25.589844 13.464844 25.789062 13.21875 C 26.097656 12.769531 26.796875 12.8125 27.171875 13.15625 C 27.527344 13.425781 27.527344 13.96875 27.226562 14.277344 C 27.050781 14.464844 26.839844 14.601562 26.609375 14.707031 L 29.167969 21.722656 L 29.761719 21.722656 C 29.589844 21.820312 29.4375 21.933594 29.28125 22.011719 C 27.878906 22.808594 26.15625 22.96875 24.59375 22.566406 C 23.851562 22.359375 23.28125 22.121094 22.675781 21.726562 L 23.257812 21.726562 L 25.726562 14.964844 C 25.621094 14.988281 25.511719 15.003906 25.40625 15.023438 C 24.246094 15.179688 23.15625 14.679688 22.089844 14.308594 C 21.300781 14.019531 20.476562 13.78125 19.628906 13.765625 L 19.628906 13.769531 C 19.566406 13.890625 19.476562 13.996094 19.363281 14.074219 L 19.363281 23.519531 C 19.363281 25.320312 21.089844 25.648438 21.445312 25.648438 C 21.800781 25.648438 22.132812 25.8125 22.132812 26.078125 C 22.855469 26.101562 23.714844 26.078125 24.257812 26.078125 C 24.800781 26.078125 25.203125 26.230469 25.203125 26.671875 C 23.097656 26.6875 20.992188 26.679688 18.886719 26.683594 Z M 26.316406 13.28125 C 26.257812 13.28125 26.1875 13.292969 26.136719 13.320312 C 25.898438 13.410156 25.957031 13.753906 26.171875 13.761719 C 26.183594 13.726562 26.171875 13.691406 26.210938 13.683594 C 26.242188 13.679688 26.253906 13.71875 26.265625 13.742188 C 26.28125 13.734375 26.304688 13.730469 26.324219 13.714844 C 26.539062 13.5625 26.191406 13.34375 26.464844 13.421875 C 26.738281 13.597656 26.546875 13.832031 26.328125 13.933594 L 26.375 14.058594 C 26.507812 13.988281 26.621094 13.898438 26.707031 13.769531 C 26.839844 13.519531 26.570312 13.28125 26.316406 13.28125 Z M 26.269531 13.953125 L 26.246094 13.960938 L 26.246094 14.121094 L 26.320312 14.085938 Z M 26.1875 13.972656 L 26.15625 13.976562 L 26.078125 14.183594 L 26.1875 14.144531 Z M 26.554688 14.730469 C 26.453125 14.773438 26.351562 14.808594 26.246094 14.839844 L 26.242188 21.722656 L 29.109375 21.722656 Z M 26.1875 14.859375 L 25.796875 14.953125 L 23.320312 21.726562 L 26.179688 21.726562 L 26.1875 21.703125 Z M 26.1875 14.859375 " fill-opacity="1" fill-rule="nonzero"/></g><g clip-path="url(#id12)"><path fill="#bd9d60" d="M 18.890625 10.1875 L 18.507812 10.714844 C 18.433594 10.804688 18.390625 10.917969 18.390625 11.039062 C 18.390625 11.199219 18.460938 11.335938 18.574219 11.429688 C 18.839844 11.667969 18.703125 11.882812 18.410156 12.015625 C 18.40625 12.367188 18.414062 12.597656 18.40625 12.746094 C 18.304688 12.820312 18.21875 12.914062 18.15625 13.027344 C 18.054688 13.027344 17.953125 13.039062 17.863281 13.046875 C 16.5 13.160156 15.277344 13.796875 13.996094 14.207031 C 13.359375 14.414062 12.660156 14.480469 12.011719 14.28125 C 11.933594 14.257812 11.851562 14.234375 11.769531 14.207031 L 11.683594 13.96875 C 11.703125 13.96875 11.71875 13.964844 11.738281 13.957031 C 12.074219 13.90625 12.1875 13.464844 11.984375 13.21875 C 11.675781 12.769531 10.980469 12.8125 10.605469 13.15625 C 10.25 13.425781 10.25 13.96875 10.546875 14.277344 C 10.722656 14.464844 10.9375 14.601562 11.167969 14.707031 L 8.605469 21.722656 L 8.015625 21.722656 C 8.1875 21.820312 8.335938 21.933594 8.496094 22.011719 C 9.894531 22.808594 11.617188 22.96875 13.179688 22.566406 C 13.921875 22.359375 14.496094 22.121094 15.097656 21.726562 L 14.519531 21.726562 L 12.046875 14.964844 C 12.15625 14.988281 12.261719 15.003906 12.367188 15.023438 C 13.527344 15.179688 14.621094 14.679688 15.683594 14.308594 C 16.476562 14.019531 17.296875 13.78125 18.148438 13.765625 L 18.148438 13.769531 C 18.210938 13.890625 18.300781 13.996094 18.414062 14.074219 L 18.414062 23.519531 C 18.414062 25.320312 16.683594 25.648438 16.328125 25.648438 C 15.972656 25.648438 15.644531 25.8125 15.644531 26.078125 C 14.917969 26.101562 14.058594 26.078125 13.519531 26.078125 C 12.976562 26.078125 12.570312 26.230469 12.570312 26.671875 C 14.675781 26.6875 16.785156 26.679688 18.890625 26.683594 Z M 11.457031 13.28125 C 11.515625 13.28125 11.589844 13.292969 11.640625 13.320312 C 11.875 13.410156 11.816406 13.753906 11.605469 13.761719 C 11.59375 13.726562 11.601562 13.691406 11.566406 13.683594 C 11.53125 13.679688 11.519531 13.71875 11.511719 13.742188 C 11.492188 13.734375 11.472656 13.730469 11.453125 13.714844 C 11.234375 13.5625 11.585938 13.34375 11.3125 13.421875 C 11.035156 13.597656 11.230469 13.832031 11.449219 13.933594 L 11.402344 14.058594 C 11.269531 13.988281 11.152344 13.898438 11.070312 13.769531 C 10.9375 13.519531 11.207031 13.28125 11.457031 13.28125 Z M 11.503906 13.953125 L 11.527344 13.960938 L 11.527344 14.121094 L 11.457031 14.085938 Z M 11.589844 13.972656 L 11.621094 13.976562 L 11.695312 14.183594 L 11.589844 14.144531 Z M 11.222656 14.730469 C 11.320312 14.773438 11.421875 14.808594 11.527344 14.839844 L 11.53125 21.722656 L 8.667969 21.722656 Z M 11.589844 14.859375 L 11.976562 14.953125 L 14.453125 21.726562 L 11.59375 21.726562 L 11.589844 21.703125 Z M 11.589844 14.859375 " fill-opacity="1" fill-rule="nonzero"/></g><g clip-path="url(#id13)"><path fill="#bd9d60" d="M 18.941406 6.230469 L 19.277344 6.910156 C 19.28125 6.921875 19.292969 6.929688 19.308594 6.929688 L 20.054688 7.039062 C 20.089844 7.046875 20.101562 7.085938 20.078125 7.109375 L 19.535156 7.636719 C 19.527344 7.644531 19.523438 7.65625 19.523438 7.671875 L 19.652344 8.417969 C 19.65625 8.449219 19.625 8.472656 19.59375 8.457031 L 18.921875 8.105469 C 18.910156 8.097656 18.898438 8.097656 18.886719 8.105469 L 18.214844 8.457031 C 18.183594 8.472656 18.152344 8.449219 18.15625 8.417969 L 18.285156 7.671875 C 18.285156 7.65625 18.28125 7.644531 18.273438 7.636719 L 17.730469 7.109375 C 17.707031 7.085938 17.722656 7.046875 17.753906 7.039062 L 18.503906 6.929688 C 18.515625 6.929688 18.527344 6.921875 18.535156 6.910156 L 18.867188 6.230469 C 18.882812 6.203125 18.925781 6.203125 18.941406 6.230469 Z M 18.941406 6.230469 " fill-opacity="1" fill-rule="nonzero"/></g><g clip-path="url(#id14)"><path fill="#bd9d60" d="M 14.519531 29.011719 C 14.519531 26.523438 16.53125 24.511719 19.011719 24.511719 C 21.496094 24.511719 23.5 26.523438 23.5 29.011719 Z M 14.519531 29.011719 " fill-opacity="1" fill-rule="nonzero"/></g></svg>