<svg xmlns="http://www.w3.org/2000/svg" xmlns:xlink="http://www.w3.org/1999/xlink" width="420" zoomAndPan="magnify" viewBox="0 0 315 60" height="80" preserveAspectRatio="xMidYMid meet" version="1.0"><defs><g/><clipPath id="4d06782980"><path d="M 2.164062 34 L 8 34 L 8 40 L 2.164062 40 Z M 2.164062 34 " clip-rule="nonzero"/></clipPath><clipPath id="925f387f8a"><path d="M 2.164062 21 L 8 21 L 8 26 L 2.164062 26 Z M 2.164062 21 " clip-rule="nonzero"/></clipPath><clipPath id="dcd3e04b80"><path d="M 24 3.105469 L 29 3.105469 L 29 8 L 24 8 Z M 24 3.105469 " clip-rule="nonzero"/></clipPath><clipPath id="a0859e0153"><path d="M 24.542969 52.480469 L 28.199219 52.480469 L 28.199219 57.078125 L 24.542969 57.078125 Z M 24.542969 52.480469 " clip-rule="nonzero"/></clipPath><clipPath id="5d998bee73"><path d="M 27 3.105469 L 32 3.105469 L 32 8 L 27 8 Z M 27 3.105469 " clip-rule="nonzero"/></clipPath><clipPath id="35945b6426"><path d="M 27.878906 52.480469 L 31.535156 52.480469 L 31.535156 57.078125 L 27.878906 57.078125 Z M 27.878906 52.480469 " clip-rule="nonzero"/></clipPath><clipPath id="6bead3ac49"><path d="M 49 31 L 53.914062 31 L 53.914062 36 L 49 36 Z M 49 31 " clip-rule="nonzero"/></clipPath><clipPath id="ff7e3173ed"><path d="M 49 24 L 53.914062 24 L 53.914062 29 L 49 29 Z M 49 24 " clip-rule="nonzero"/></clipPath><clipPath id="552839b078"><path d="M 48 34 L 53.914062 34 L 53.914062 40 L 48 40 Z M 48 34 " clip-rule="nonzero"/></clipPath><clipPath id="d3d2ff8be1"><path d="M 48 21 L 53.914062 21 L 53.914062 26 L 48 26 Z M 48 21 " clip-rule="nonzero"/></clipPath><clipPath id="d022d53053"><path d="M 27 16.851562 L 44.867188 16.851562 L 44.867188 43.101562 L 27 43.101562 Z M 27 16.851562 " clip-rule="nonzero"/></clipPath><clipPath id="acbd1d16c1"><path d="M 11.117188 16.851562 L 28 16.851562 L 28 43.101562 L 11.117188 43.101562 Z M 11.117188 16.851562 " clip-rule="nonzero"/></clipPath><clipPath id="2edffc4978"><path d="M 25.941406 10.886719 L 30.375 10.886719 L 30.375 15.101562 L 25.941406 15.101562 Z M 25.941406 10.886719 " clip-rule="nonzero"/></clipPath><clipPath id="d031bdc6e0"><path d="M 21.226562 38.542969 L 36.226562 38.542969 L 36.226562 46.042969 L 21.226562 46.042969 Z M 21.226562 38.542969 " clip-rule="nonzero"/></clipPath></defs><g fill="#ffffff" fill-opacity="1"><g transform="translate(151.214392, 53.737803)"><g><path d="M 5.9375 -0.40625 C 5.957031 -0.351562 5.96875 -0.300781 5.96875 -0.25 C 5.96875 -0.164062 5.929688 -0.09375 5.859375 -0.03125 C 5.796875 0.0195312 5.71875 0.046875 5.625 0.046875 C 5.488281 0.046875 5.390625 -0.0195312 5.328125 -0.15625 L 4.71875 -1.546875 L 1.5 -1.546875 L 0.890625 -0.15625 C 0.828125 -0.0195312 0.726562 0.046875 0.59375 0.046875 C 0.5 0.046875 0.414062 0.015625 0.34375 -0.046875 C 0.28125 -0.109375 0.25 -0.179688 0.25 -0.265625 C 0.25 -0.304688 0.257812 -0.351562 0.28125 -0.40625 L 2.71875 -5.84375 C 2.757812 -5.914062 2.8125 -5.972656 2.875 -6.015625 C 2.945312 -6.054688 3.023438 -6.078125 3.109375 -6.078125 C 3.191406 -6.078125 3.265625 -6.054688 3.328125 -6.015625 C 3.398438 -5.972656 3.453125 -5.914062 3.484375 -5.84375 Z M 1.765625 -2.125 L 4.46875 -2.125 L 3.109375 -5.203125 Z M 1.765625 -2.125 "/></g></g></g><g fill="#ffffff" fill-opacity="1"><g transform="translate(161.901347, 53.737803)"><g><path d="M 2.5625 0.046875 C 2.445312 0.046875 2.359375 0.015625 2.296875 -0.046875 C 2.234375 -0.117188 2.203125 -0.207031 2.203125 -0.3125 L 2.203125 -5.421875 L 0.359375 -5.421875 C 0.253906 -5.421875 0.171875 -5.445312 0.109375 -5.5 C 0.0546875 -5.550781 0.03125 -5.625 0.03125 -5.71875 C 0.03125 -5.820312 0.0546875 -5.898438 0.109375 -5.953125 C 0.171875 -6.003906 0.253906 -6.03125 0.359375 -6.03125 L 4.75 -6.03125 C 4.84375 -6.03125 4.914062 -6.003906 4.96875 -5.953125 C 5.03125 -5.898438 5.0625 -5.820312 5.0625 -5.71875 C 5.0625 -5.625 5.03125 -5.550781 4.96875 -5.5 C 4.914062 -5.445312 4.84375 -5.421875 4.75 -5.421875 L 2.90625 -5.421875 L 2.90625 -0.3125 C 2.90625 -0.207031 2.875 -0.117188 2.8125 -0.046875 C 2.75 0.015625 2.664062 0.046875 2.5625 0.046875 Z M 2.5625 0.046875 "/></g></g></g><g fill="#ffffff" fill-opacity="1"><g transform="translate(171.48541, 53.737803)"><g><path d="M 2.5625 0.046875 C 2.445312 0.046875 2.359375 0.015625 2.296875 -0.046875 C 2.234375 -0.117188 2.203125 -0.207031 2.203125 -0.3125 L 2.203125 -5.421875 L 0.359375 -5.421875 C 0.253906 -5.421875 0.171875 -5.445312 0.109375 -5.5 C 0.0546875 -5.550781 0.03125 -5.625 0.03125 -5.71875 C 0.03125 -5.820312 0.0546875 -5.898438 0.109375 -5.953125 C 0.171875 -6.003906 0.253906 -6.03125 0.359375 -6.03125 L 4.75 -6.03125 C 4.84375 -6.03125 4.914062 -6.003906 4.96875 -5.953125 C 5.03125 -5.898438 5.0625 -5.820312 5.0625 -5.71875 C 5.0625 -5.625 5.03125 -5.550781 4.96875 -5.5 C 4.914062 -5.445312 4.84375 -5.421875 4.75 -5.421875 L 2.90625 -5.421875 L 2.90625 -0.3125 C 2.90625 -0.207031 2.875 -0.117188 2.8125 -0.046875 C 2.75 0.015625 2.664062 0.046875 2.5625 0.046875 Z M 2.5625 0.046875 "/></g></g></g><g fill="#ffffff" fill-opacity="1"><g transform="translate(181.069472, 53.737803)"><g><path d="M 3.265625 0.0625 C 2.703125 0.0625 2.210938 -0.0625 1.796875 -0.3125 C 1.390625 -0.5625 1.070312 -0.914062 0.84375 -1.375 C 0.625 -1.832031 0.515625 -2.378906 0.515625 -3.015625 C 0.515625 -3.640625 0.625 -4.179688 0.84375 -4.640625 C 1.0625 -5.109375 1.378906 -5.46875 1.796875 -5.71875 C 2.210938 -5.96875 2.703125 -6.09375 3.265625 -6.09375 C 3.828125 -6.09375 4.3125 -5.96875 4.71875 -5.71875 C 5.132812 -5.46875 5.453125 -5.109375 5.671875 -4.640625 C 5.898438 -4.179688 6.015625 -3.640625 6.015625 -3.015625 C 6.015625 -2.390625 5.898438 -1.84375 5.671875 -1.375 C 5.453125 -0.914062 5.132812 -0.5625 4.71875 -0.3125 C 4.3125 -0.0625 3.828125 0.0625 3.265625 0.0625 Z M 3.265625 -0.53125 C 3.898438 -0.53125 4.394531 -0.742188 4.75 -1.171875 C 5.113281 -1.609375 5.296875 -2.222656 5.296875 -3.015625 C 5.296875 -3.816406 5.117188 -4.429688 4.765625 -4.859375 C 4.410156 -5.285156 3.910156 -5.5 3.265625 -5.5 C 2.628906 -5.5 2.128906 -5.28125 1.765625 -4.84375 C 1.410156 -4.414062 1.234375 -3.804688 1.234375 -3.015625 C 1.234375 -2.222656 1.410156 -1.609375 1.765625 -1.171875 C 2.128906 -0.742188 2.628906 -0.53125 3.265625 -0.53125 Z M 3.265625 -0.53125 "/></g></g></g><g fill="#ffffff" fill-opacity="1"><g transform="translate(192.072761, 53.737803)"><g><path d="M 5.34375 -0.4375 C 5.382812 -0.375 5.40625 -0.304688 5.40625 -0.234375 C 5.40625 -0.148438 5.367188 -0.0820312 5.296875 -0.03125 C 5.234375 0.0195312 5.160156 0.046875 5.078125 0.046875 C 4.941406 0.046875 4.835938 -0.0078125 4.765625 -0.125 L 3.625 -1.9375 C 3.476562 -2.164062 3.320312 -2.320312 3.15625 -2.40625 C 3 -2.5 2.785156 -2.546875 2.515625 -2.546875 L 1.4375 -2.546875 L 1.4375 -0.3125 C 1.4375 -0.207031 1.40625 -0.117188 1.34375 -0.046875 C 1.28125 0.015625 1.195312 0.046875 1.09375 0.046875 C 0.988281 0.046875 0.90625 0.015625 0.84375 -0.046875 C 0.78125 -0.117188 0.75 -0.207031 0.75 -0.3125 L 0.75 -5.6875 C 0.75 -5.789062 0.78125 -5.875 0.84375 -5.9375 C 0.90625 -6 0.992188 -6.03125 1.109375 -6.03125 L 3.21875 -6.03125 C 3.875 -6.03125 4.375 -5.882812 4.71875 -5.59375 C 5.0625 -5.300781 5.234375 -4.875 5.234375 -4.3125 C 5.234375 -3.832031 5.09375 -3.445312 4.8125 -3.15625 C 4.539062 -2.863281 4.148438 -2.6875 3.640625 -2.625 C 3.785156 -2.582031 3.914062 -2.507812 4.03125 -2.40625 C 4.144531 -2.300781 4.257812 -2.15625 4.375 -1.96875 Z M 3.15625 -3.125 C 3.625 -3.125 3.972656 -3.21875 4.203125 -3.40625 C 4.441406 -3.601562 4.5625 -3.898438 4.5625 -4.296875 C 4.5625 -4.679688 4.445312 -4.96875 4.21875 -5.15625 C 3.988281 -5.34375 3.632812 -5.4375 3.15625 -5.4375 L 1.4375 -5.4375 L 1.4375 -3.125 Z M 3.15625 -3.125 "/></g></g></g><g fill="#ffffff" fill-opacity="1"><g transform="translate(202.40918, 53.737803)"><g><path d="M 5.25 -6.0625 C 5.351562 -6.0625 5.429688 -6.03125 5.484375 -5.96875 C 5.546875 -5.90625 5.578125 -5.816406 5.578125 -5.703125 L 5.578125 -0.3125 C 5.578125 -0.207031 5.546875 -0.117188 5.484375 -0.046875 C 5.421875 0.015625 5.335938 0.046875 5.234375 0.046875 C 5.117188 0.046875 5.023438 -0.00390625 4.953125 -0.109375 L 1.40625 -4.84375 L 1.40625 -0.3125 C 1.40625 -0.207031 1.375 -0.117188 1.3125 -0.046875 C 1.25 0.015625 1.164062 0.046875 1.0625 0.046875 C 0.96875 0.046875 0.890625 0.015625 0.828125 -0.046875 C 0.773438 -0.117188 0.75 -0.207031 0.75 -0.3125 L 0.75 -5.703125 C 0.75 -5.816406 0.773438 -5.90625 0.828125 -5.96875 C 0.890625 -6.03125 0.972656 -6.0625 1.078125 -6.0625 C 1.191406 -6.0625 1.289062 -6.015625 1.375 -5.921875 L 4.921875 -1.171875 L 4.921875 -5.703125 C 4.921875 -5.816406 4.945312 -5.90625 5 -5.96875 C 5.0625 -6.03125 5.144531 -6.0625 5.25 -6.0625 Z M 5.25 -6.0625 "/></g></g></g><g fill="#ffffff" fill-opacity="1"><g transform="translate(213.198729, 53.737803)"><g><path d="M 1.109375 0 C 0.992188 0 0.90625 -0.03125 0.84375 -0.09375 C 0.78125 -0.15625 0.75 -0.238281 0.75 -0.34375 L 0.75 -5.6875 C 0.75 -5.789062 0.78125 -5.875 0.84375 -5.9375 C 0.90625 -6 0.992188 -6.03125 1.109375 -6.03125 L 4.296875 -6.03125 C 4.398438 -6.03125 4.476562 -6.003906 4.53125 -5.953125 C 4.59375 -5.898438 4.625 -5.828125 4.625 -5.734375 C 4.625 -5.640625 4.59375 -5.566406 4.53125 -5.515625 C 4.476562 -5.460938 4.398438 -5.4375 4.296875 -5.4375 L 1.4375 -5.4375 L 1.4375 -3.34375 L 4.125 -3.34375 C 4.226562 -3.34375 4.304688 -3.316406 4.359375 -3.265625 C 4.421875 -3.222656 4.453125 -3.15625 4.453125 -3.0625 C 4.453125 -2.96875 4.421875 -2.894531 4.359375 -2.84375 C 4.304688 -2.789062 4.226562 -2.765625 4.125 -2.765625 L 1.4375 -2.765625 L 1.4375 -0.578125 L 4.296875 -0.578125 C 4.398438 -0.578125 4.476562 -0.550781 4.53125 -0.5 C 4.59375 -0.457031 4.625 -0.390625 4.625 -0.296875 C 4.625 -0.203125 4.59375 -0.128906 4.53125 -0.078125 C 4.476562 -0.0234375 4.398438 0 4.296875 0 Z M 1.109375 0 "/></g></g></g><g fill="#ffffff" fill-opacity="1"><g transform="translate(222.645999, 53.737803)"><g><path d="M 4.515625 -5.9375 C 4.578125 -6.019531 4.660156 -6.0625 4.765625 -6.0625 C 4.835938 -6.0625 4.90625 -6.03125 4.96875 -5.96875 C 5.03125 -5.90625 5.0625 -5.828125 5.0625 -5.734375 C 5.0625 -5.648438 5.035156 -5.578125 4.984375 -5.515625 L 2.921875 -2.890625 L 2.921875 -0.3125 C 2.921875 -0.195312 2.882812 -0.109375 2.8125 -0.046875 C 2.75 0.015625 2.664062 0.046875 2.5625 0.046875 C 2.457031 0.046875 2.375 0.015625 2.3125 -0.046875 C 2.25 -0.109375 2.21875 -0.195312 2.21875 -0.3125 L 2.21875 -2.90625 L 0.140625 -5.515625 C 0.078125 -5.578125 0.046875 -5.648438 0.046875 -5.734375 C 0.046875 -5.828125 0.078125 -5.90625 0.140625 -5.96875 C 0.210938 -6.03125 0.289062 -6.0625 0.375 -6.0625 C 0.46875 -6.0625 0.550781 -6.019531 0.625 -5.9375 L 2.578125 -3.4375 Z M 4.515625 -5.9375 "/></g></g></g><g fill="#ffffff" fill-opacity="1"><g transform="translate(232.255708, 53.737803)"><g/></g></g><g fill="#ffffff" fill-opacity="1"><g transform="translate(238.932908, 53.737803)"><g><path d="M 5.9375 -0.40625 C 5.957031 -0.351562 5.96875 -0.300781 5.96875 -0.25 C 5.96875 -0.164062 5.929688 -0.09375 5.859375 -0.03125 C 5.796875 0.0195312 5.71875 0.046875 5.625 0.046875 C 5.488281 0.046875 5.390625 -0.0195312 5.328125 -0.15625 L 4.71875 -1.546875 L 1.5 -1.546875 L 0.890625 -0.15625 C 0.828125 -0.0195312 0.726562 0.046875 0.59375 0.046875 C 0.5 0.046875 0.414062 0.015625 0.34375 -0.046875 C 0.28125 -0.109375 0.25 -0.179688 0.25 -0.265625 C 0.25 -0.304688 0.257812 -0.351562 0.28125 -0.40625 L 2.71875 -5.84375 C 2.757812 -5.914062 2.8125 -5.972656 2.875 -6.015625 C 2.945312 -6.054688 3.023438 -6.078125 3.109375 -6.078125 C 3.191406 -6.078125 3.265625 -6.054688 3.328125 -6.015625 C 3.398438 -5.972656 3.453125 -5.914062 3.484375 -5.84375 Z M 1.765625 -2.125 L 4.46875 -2.125 L 3.109375 -5.203125 Z M 1.765625 -2.125 "/></g></g></g><g fill="#ffffff" fill-opacity="1"><g transform="translate(249.619858, 53.737803)"><g><path d="M 2.5625 0.046875 C 2.445312 0.046875 2.359375 0.015625 2.296875 -0.046875 C 2.234375 -0.117188 2.203125 -0.207031 2.203125 -0.3125 L 2.203125 -5.421875 L 0.359375 -5.421875 C 0.253906 -5.421875 0.171875 -5.445312 0.109375 -5.5 C 0.0546875 -5.550781 0.03125 -5.625 0.03125 -5.71875 C 0.03125 -5.820312 0.0546875 -5.898438 0.109375 -5.953125 C 0.171875 -6.003906 0.253906 -6.03125 0.359375 -6.03125 L 4.75 -6.03125 C 4.84375 -6.03125 4.914062 -6.003906 4.96875 -5.953125 C 5.03125 -5.898438 5.0625 -5.820312 5.0625 -5.71875 C 5.0625 -5.625 5.03125 -5.550781 4.96875 -5.5 C 4.914062 -5.445312 4.84375 -5.421875 4.75 -5.421875 L 2.90625 -5.421875 L 2.90625 -0.3125 C 2.90625 -0.207031 2.875 -0.117188 2.8125 -0.046875 C 2.75 0.015625 2.664062 0.046875 2.5625 0.046875 Z M 2.5625 0.046875 "/></g></g></g><g fill="#ffffff" fill-opacity="1"><g transform="translate(259.203922, 53.737803)"><g/></g></g><g fill="#ffffff" fill-opacity="1"><g transform="translate(265.881122, 53.737803)"><g><path d="M 1.078125 0 C 0.984375 0 0.90625 -0.0234375 0.84375 -0.078125 C 0.78125 -0.140625 0.75 -0.222656 0.75 -0.328125 L 0.75 -5.703125 C 0.75 -5.816406 0.78125 -5.90625 0.84375 -5.96875 C 0.90625 -6.03125 0.988281 -6.0625 1.09375 -6.0625 C 1.195312 -6.0625 1.28125 -6.03125 1.34375 -5.96875 C 1.40625 -5.90625 1.4375 -5.816406 1.4375 -5.703125 L 1.4375 -0.59375 L 4.203125 -0.59375 C 4.304688 -0.59375 4.382812 -0.566406 4.4375 -0.515625 C 4.5 -0.460938 4.53125 -0.390625 4.53125 -0.296875 C 4.53125 -0.203125 4.5 -0.128906 4.4375 -0.078125 C 4.382812 -0.0234375 4.304688 0 4.203125 0 Z M 1.078125 0 "/></g></g></g><g fill="#ffffff" fill-opacity="1"><g transform="translate(274.969303, 53.737803)"><g><path d="M 5.9375 -0.40625 C 5.957031 -0.351562 5.96875 -0.300781 5.96875 -0.25 C 5.96875 -0.164062 5.929688 -0.09375 5.859375 -0.03125 C 5.796875 0.0195312 5.71875 0.046875 5.625 0.046875 C 5.488281 0.046875 5.390625 -0.0195312 5.328125 -0.15625 L 4.71875 -1.546875 L 1.5 -1.546875 L 0.890625 -0.15625 C 0.828125 -0.0195312 0.726562 0.046875 0.59375 0.046875 C 0.5 0.046875 0.414062 0.015625 0.34375 -0.046875 C 0.28125 -0.109375 0.25 -0.179688 0.25 -0.265625 C 0.25 -0.304688 0.257812 -0.351562 0.28125 -0.40625 L 2.71875 -5.84375 C 2.757812 -5.914062 2.8125 -5.972656 2.875 -6.015625 C 2.945312 -6.054688 3.023438 -6.078125 3.109375 -6.078125 C 3.191406 -6.078125 3.265625 -6.054688 3.328125 -6.015625 C 3.398438 -5.972656 3.453125 -5.914062 3.484375 -5.84375 Z M 1.765625 -2.125 L 4.46875 -2.125 L 3.109375 -5.203125 Z M 1.765625 -2.125 "/></g></g></g><g fill="#ffffff" fill-opacity="1"><g transform="translate(285.656259, 53.737803)"><g><path d="M 8.4375 -5.859375 C 8.46875 -5.929688 8.507812 -5.984375 8.5625 -6.015625 C 8.625 -6.054688 8.6875 -6.078125 8.75 -6.078125 C 8.84375 -6.078125 8.921875 -6.050781 8.984375 -6 C 9.046875 -5.945312 9.078125 -5.875 9.078125 -5.78125 C 9.078125 -5.738281 9.070312 -5.691406 9.0625 -5.640625 L 7.125 -0.203125 C 7.09375 -0.117188 7.039062 -0.0546875 6.96875 -0.015625 C 6.90625 0.0234375 6.832031 0.046875 6.75 0.046875 C 6.664062 0.046875 6.585938 0.0234375 6.515625 -0.015625 C 6.453125 -0.0546875 6.410156 -0.117188 6.390625 -0.203125 L 4.703125 -4.9375 L 3.015625 -0.203125 C 2.984375 -0.117188 2.929688 -0.0546875 2.859375 -0.015625 C 2.796875 0.0234375 2.726562 0.046875 2.65625 0.046875 C 2.570312 0.046875 2.492188 0.0234375 2.421875 -0.015625 C 2.359375 -0.0546875 2.3125 -0.117188 2.28125 -0.203125 L 0.34375 -5.640625 C 0.320312 -5.679688 0.3125 -5.722656 0.3125 -5.765625 C 0.3125 -5.859375 0.347656 -5.929688 0.421875 -5.984375 C 0.492188 -6.046875 0.578125 -6.078125 0.671875 -6.078125 C 0.734375 -6.078125 0.796875 -6.054688 0.859375 -6.015625 C 0.921875 -5.984375 0.960938 -5.929688 0.984375 -5.859375 L 2.671875 -1 L 4.375 -5.796875 C 4.40625 -5.890625 4.453125 -5.957031 4.515625 -6 C 4.578125 -6.039062 4.644531 -6.0625 4.71875 -6.0625 C 4.789062 -6.0625 4.859375 -6.035156 4.921875 -5.984375 C 4.984375 -5.941406 5.03125 -5.878906 5.0625 -5.796875 L 6.75 -0.984375 Z M 8.4375 -5.859375 "/></g></g></g><g fill="#ffffff" fill-opacity="1"><g transform="translate(60.820063, 40.574127)"><g><path d="M 25.375 -17.125 L 24.046875 -17.125 C 23.984375 -18.144531 23.832031 -18.988281 23.59375 -19.65625 C 23.351562 -20.332031 23.015625 -20.875 22.578125 -21.28125 C 22.140625 -21.6875 21.609375 -21.96875 20.984375 -22.125 C 20.359375 -22.28125 19.632812 -22.359375 18.8125 -22.359375 C 18 -22.359375 17.347656 -22.34375 16.859375 -22.3125 C 16.367188 -22.28125 15.992188 -22.226562 15.734375 -22.15625 C 15.484375 -22.082031 15.316406 -21.984375 15.234375 -21.859375 C 15.148438 -21.734375 15.109375 -21.578125 15.109375 -21.390625 L 15.109375 -5.078125 C 15.109375 -4.410156 15.15625 -3.835938 15.25 -3.359375 C 15.34375 -2.878906 15.53125 -2.488281 15.8125 -2.1875 C 16.101562 -1.894531 16.53125 -1.671875 17.09375 -1.515625 C 17.65625 -1.359375 18.394531 -1.269531 19.3125 -1.25 L 19.3125 0 L 6.265625 0 L 6.265625 -1.25 C 7.191406 -1.269531 7.9375 -1.359375 8.5 -1.515625 C 9.0625 -1.671875 9.492188 -1.894531 9.796875 -2.1875 C 10.097656 -2.488281 10.296875 -2.878906 10.390625 -3.359375 C 10.484375 -3.835938 10.53125 -4.410156 10.53125 -5.078125 L 10.53125 -21.390625 C 10.53125 -21.578125 10.492188 -21.734375 10.421875 -21.859375 C 10.347656 -21.984375 10.195312 -22.082031 9.96875 -22.15625 C 9.738281 -22.226562 9.410156 -22.28125 8.984375 -22.3125 C 8.554688 -22.34375 8 -22.359375 7.3125 -22.359375 C 6.570312 -22.359375 5.859375 -22.320312 5.171875 -22.25 C 4.484375 -22.175781 3.878906 -21.96875 3.359375 -21.625 C 2.835938 -21.28125 2.414062 -20.757812 2.09375 -20.0625 C 1.78125 -19.375 1.613281 -18.394531 1.59375 -17.125 L 0.375 -17.125 L 0.6875 -23.984375 L 25.0625 -23.984375 Z M 25.375 -17.125 "/></g></g></g><g fill="#ffffff" fill-opacity="1"><g transform="translate(86.553569, 40.574127)"><g><path d="M 10.21875 -16.8125 C 11.457031 -16.8125 12.632812 -16.597656 13.75 -16.171875 C 14.863281 -15.753906 15.835938 -15.171875 16.671875 -14.421875 C 17.515625 -13.671875 18.179688 -12.78125 18.671875 -11.75 C 19.160156 -10.726562 19.40625 -9.601562 19.40625 -8.375 C 19.40625 -7.113281 19.160156 -5.953125 18.671875 -4.890625 C 18.179688 -3.828125 17.515625 -2.910156 16.671875 -2.140625 C 15.835938 -1.378906 14.863281 -0.78125 13.75 -0.34375 C 12.632812 0.09375 11.457031 0.3125 10.21875 0.3125 C 8.988281 0.3125 7.820312 0.0976562 6.71875 -0.328125 C 5.625 -0.753906 4.660156 -1.347656 3.828125 -2.109375 C 2.992188 -2.878906 2.335938 -3.800781 1.859375 -4.875 C 1.390625 -5.945312 1.15625 -7.113281 1.15625 -8.375 C 1.15625 -9.601562 1.390625 -10.734375 1.859375 -11.765625 C 2.335938 -12.804688 2.992188 -13.695312 3.828125 -14.4375 C 4.660156 -15.1875 5.625 -15.769531 6.71875 -16.1875 C 7.820312 -16.601562 8.988281 -16.8125 10.21875 -16.8125 Z M 10.21875 -15.015625 C 9.59375 -15.015625 9.019531 -14.851562 8.5 -14.53125 C 7.976562 -14.207031 7.535156 -13.753906 7.171875 -13.171875 C 6.816406 -12.585938 6.539062 -11.882812 6.34375 -11.0625 C 6.144531 -10.25 6.046875 -9.34375 6.046875 -8.34375 C 6.046875 -7.300781 6.144531 -6.363281 6.34375 -5.53125 C 6.539062 -4.707031 6.816406 -4.003906 7.171875 -3.421875 C 7.535156 -2.835938 7.972656 -2.382812 8.484375 -2.0625 C 8.992188 -1.75 9.570312 -1.59375 10.21875 -1.59375 C 10.851562 -1.59375 11.4375 -1.75 11.96875 -2.0625 C 12.5 -2.382812 12.953125 -2.84375 13.328125 -3.4375 C 13.703125 -4.03125 13.992188 -4.738281 14.203125 -5.5625 C 14.410156 -6.394531 14.515625 -7.320312 14.515625 -8.34375 C 14.515625 -9.34375 14.410156 -10.242188 14.203125 -11.046875 C 13.992188 -11.859375 13.703125 -12.5625 13.328125 -13.15625 C 12.953125 -13.75 12.5 -14.207031 11.96875 -14.53125 C 11.4375 -14.851562 10.851562 -15.015625 10.21875 -15.015625 Z M 10.21875 -15.015625 "/></g></g></g><g fill="#ffffff" fill-opacity="1"><g transform="translate(107.090608, 40.574127)"><g><path d="M 14.984375 -2 L 14.859375 -2 C 13.421875 -0.457031 11.5625 0.3125 9.28125 0.3125 C 8.09375 0.3125 7.003906 0.101562 6.015625 -0.3125 C 5.035156 -0.726562 4.1875 -1.304688 3.46875 -2.046875 C 2.75 -2.796875 2.191406 -3.6875 1.796875 -4.71875 C 1.410156 -5.75 1.21875 -6.882812 1.21875 -8.125 C 1.21875 -9.375 1.414062 -10.523438 1.8125 -11.578125 C 2.21875 -12.640625 2.769531 -13.5625 3.46875 -14.34375 C 4.164062 -15.125 4.992188 -15.726562 5.953125 -16.15625 C 6.921875 -16.59375 7.96875 -16.8125 9.09375 -16.8125 C 10.132812 -16.8125 11.050781 -16.65625 11.84375 -16.34375 C 12.644531 -16.03125 13.347656 -15.503906 13.953125 -14.765625 L 14.078125 -14.765625 L 14.078125 -17.40625 C 14.078125 -18.632812 14.0625 -19.6875 14.03125 -20.5625 C 14 -21.445312 13.953125 -22.023438 13.890625 -22.296875 C 13.785156 -22.734375 13.46875 -23.050781 12.9375 -23.25 C 12.40625 -23.445312 11.59375 -23.546875 10.5 -23.546875 L 10.5 -24.59375 L 18.375 -25.84375 L 18.375 -8.03125 C 18.375 -6.476562 18.390625 -5.28125 18.421875 -4.4375 C 18.453125 -3.59375 18.507812 -2.953125 18.59375 -2.515625 C 18.632812 -2.253906 18.695312 -2.039062 18.78125 -1.875 C 18.863281 -1.707031 18.988281 -1.578125 19.15625 -1.484375 C 19.320312 -1.390625 19.539062 -1.328125 19.8125 -1.296875 C 20.09375 -1.265625 20.453125 -1.25 20.890625 -1.25 L 20.890625 -0.03125 L 14.984375 0.3125 Z M 14.015625 -8.9375 C 14.015625 -9.726562 13.929688 -10.457031 13.765625 -11.125 C 13.597656 -11.800781 13.347656 -12.398438 13.015625 -12.921875 C 12.640625 -13.523438 12.160156 -13.984375 11.578125 -14.296875 C 11.003906 -14.609375 10.382812 -14.765625 9.71875 -14.765625 C 8.488281 -14.765625 7.550781 -14.203125 6.90625 -13.078125 C 6.269531 -11.953125 5.953125 -10.320312 5.953125 -8.1875 C 5.953125 -6.03125 6.269531 -4.367188 6.90625 -3.203125 C 7.550781 -2.046875 8.476562 -1.46875 9.6875 -1.46875 C 10.375 -1.46875 11.023438 -1.640625 11.640625 -1.984375 C 12.265625 -2.335938 12.773438 -2.816406 13.171875 -3.421875 C 13.460938 -3.878906 13.675781 -4.445312 13.8125 -5.125 C 13.945312 -5.800781 14.015625 -6.664062 14.015625 -7.71875 Z M 14.015625 -8.9375 "/></g></g></g><g fill="#ffffff" fill-opacity="1"><g transform="translate(128.685608, 40.574127)"><g><path d="M 14.984375 -2 L 14.859375 -2 C 13.421875 -0.457031 11.5625 0.3125 9.28125 0.3125 C 8.09375 0.3125 7.003906 0.101562 6.015625 -0.3125 C 5.035156 -0.726562 4.1875 -1.304688 3.46875 -2.046875 C 2.75 -2.796875 2.191406 -3.6875 1.796875 -4.71875 C 1.410156 -5.75 1.21875 -6.882812 1.21875 -8.125 C 1.21875 -9.375 1.414062 -10.523438 1.8125 -11.578125 C 2.21875 -12.640625 2.769531 -13.5625 3.46875 -14.34375 C 4.164062 -15.125 4.992188 -15.726562 5.953125 -16.15625 C 6.921875 -16.59375 7.96875 -16.8125 9.09375 -16.8125 C 10.132812 -16.8125 11.050781 -16.65625 11.84375 -16.34375 C 12.644531 -16.03125 13.347656 -15.503906 13.953125 -14.765625 L 14.078125 -14.765625 L 14.078125 -17.40625 C 14.078125 -18.632812 14.0625 -19.6875 14.03125 -20.5625 C 14 -21.445312 13.953125 -22.023438 13.890625 -22.296875 C 13.785156 -22.734375 13.46875 -23.050781 12.9375 -23.25 C 12.40625 -23.445312 11.59375 -23.546875 10.5 -23.546875 L 10.5 -24.59375 L 18.375 -25.84375 L 18.375 -8.03125 C 18.375 -6.476562 18.390625 -5.28125 18.421875 -4.4375 C 18.453125 -3.59375 18.507812 -2.953125 18.59375 -2.515625 C 18.632812 -2.253906 18.695312 -2.039062 18.78125 -1.875 C 18.863281 -1.707031 18.988281 -1.578125 19.15625 -1.484375 C 19.320312 -1.390625 19.539062 -1.328125 19.8125 -1.296875 C 20.09375 -1.265625 20.453125 -1.25 20.890625 -1.25 L 20.890625 -0.03125 L 14.984375 0.3125 Z M 14.015625 -8.9375 C 14.015625 -9.726562 13.929688 -10.457031 13.765625 -11.125 C 13.597656 -11.800781 13.347656 -12.398438 13.015625 -12.921875 C 12.640625 -13.523438 12.160156 -13.984375 11.578125 -14.296875 C 11.003906 -14.609375 10.382812 -14.765625 9.71875 -14.765625 C 8.488281 -14.765625 7.550781 -14.203125 6.90625 -13.078125 C 6.269531 -11.953125 5.953125 -10.320312 5.953125 -8.1875 C 5.953125 -6.03125 6.269531 -4.367188 6.90625 -3.203125 C 7.550781 -2.046875 8.476562 -1.46875 9.6875 -1.46875 C 10.375 -1.46875 11.023438 -1.640625 11.640625 -1.984375 C 12.265625 -2.335938 12.773438 -2.816406 13.171875 -3.421875 C 13.460938 -3.878906 13.675781 -4.445312 13.8125 -5.125 C 13.945312 -5.800781 14.015625 -6.664062 14.015625 -7.71875 Z M 14.015625 -8.9375 "/></g></g></g><g fill="#ffffff" fill-opacity="1"><g transform="translate(150.280608, 40.574127)"><g/></g></g><g fill="#ffffff" fill-opacity="1"><g transform="translate(158.557645, 40.574127)"><g><path d="M 27.625 -6.046875 L 31.828125 -18.0625 C 32.328125 -19.445312 32.578125 -20.484375 32.578125 -21.171875 C 32.578125 -21.816406 32.351562 -22.238281 31.90625 -22.4375 C 31.457031 -22.632812 30.765625 -22.734375 29.828125 -22.734375 L 29.828125 -23.984375 L 38.671875 -23.984375 L 38.671875 -22.734375 C 37.890625 -22.734375 37.179688 -22.539062 36.546875 -22.15625 C 35.910156 -21.769531 35.425781 -21.117188 35.09375 -20.203125 L 27.59375 0.3125 L 24.8125 0.3125 L 19.40625 -16.125 L 13.234375 0.3125 L 10.65625 0.3125 L 4.046875 -17.875 C 3.648438 -18.9375 3.285156 -19.785156 2.953125 -20.421875 C 2.617188 -21.066406 2.265625 -21.554688 1.890625 -21.890625 C 1.523438 -22.222656 1.125 -22.441406 0.6875 -22.546875 C 0.25 -22.648438 -0.269531 -22.703125 -0.875 -22.703125 L -0.875 -23.984375 L 10.90625 -23.984375 L 10.90625 -22.703125 C 9.84375 -22.703125 9.113281 -22.601562 8.71875 -22.40625 C 8.320312 -22.207031 8.125 -21.878906 8.125 -21.421875 C 8.125 -21.253906 8.132812 -21.09375 8.15625 -20.9375 C 8.175781 -20.78125 8.21875 -20.601562 8.28125 -20.40625 C 8.34375 -20.207031 8.421875 -19.960938 8.515625 -19.671875 C 8.609375 -19.390625 8.738281 -19.03125 8.90625 -18.59375 L 13.265625 -6.046875 L 18.3125 -19.8125 C 18.101562 -20.363281 17.894531 -20.816406 17.6875 -21.171875 C 17.476562 -21.523438 17.234375 -21.804688 16.953125 -22.015625 C 16.671875 -22.222656 16.351562 -22.375 16 -22.46875 C 15.65625 -22.5625 15.234375 -22.640625 14.734375 -22.703125 L 14.734375 -23.984375 L 25.71875 -23.984375 L 25.71875 -22.703125 C 24.851562 -22.703125 24.210938 -22.59375 23.796875 -22.375 C 23.378906 -22.15625 23.171875 -21.734375 23.171875 -21.109375 C 23.171875 -20.796875 23.21875 -20.429688 23.3125 -20.015625 C 23.40625 -19.609375 23.535156 -19.132812 23.703125 -18.59375 Z M 27.625 -6.046875 "/></g></g></g><g fill="#ffffff" fill-opacity="1"><g transform="translate(196.737834, 40.574127)"><g><path d="M 1.6875 -2 C 1.6875 -2.65625 1.90625 -3.21875 2.34375 -3.6875 C 2.789062 -4.15625 3.347656 -4.390625 4.015625 -4.390625 C 4.703125 -4.390625 5.273438 -4.15625 5.734375 -3.6875 C 6.191406 -3.21875 6.421875 -2.65625 6.421875 -2 C 6.421875 -1.351562 6.191406 -0.804688 5.734375 -0.359375 C 5.273438 0.0859375 4.703125 0.3125 4.015625 0.3125 C 3.347656 0.3125 2.789062 0.0859375 2.34375 -0.359375 C 1.90625 -0.804688 1.6875 -1.351562 1.6875 -2 Z M 1.6875 -2 "/></g></g></g><g fill="#ffffff" fill-opacity="1"><g transform="translate(204.82819, 40.574127)"><g/></g></g><g fill="#ffffff" fill-opacity="1"><g transform="translate(213.105227, 40.574127)"><g><path d="M 8.9375 -13.265625 C 10.269531 -13.265625 11.335938 -13.304688 12.140625 -13.390625 C 12.953125 -13.472656 13.582031 -13.644531 14.03125 -13.90625 C 14.476562 -14.164062 14.796875 -14.539062 14.984375 -15.03125 C 15.171875 -15.53125 15.316406 -16.207031 15.421875 -17.0625 L 16.5625 -17.0625 L 16.5625 -7.9375 L 15.421875 -7.9375 C 15.296875 -8.769531 15.128906 -9.4375 14.921875 -9.9375 C 14.710938 -10.4375 14.378906 -10.8125 13.921875 -11.0625 C 13.460938 -11.320312 12.84375 -11.488281 12.0625 -11.5625 C 11.289062 -11.632812 10.25 -11.671875 8.9375 -11.671875 L 8.9375 -5.265625 C 8.9375 -4.597656 9.023438 -4.035156 9.203125 -3.578125 C 9.378906 -3.117188 9.675781 -2.75 10.09375 -2.46875 C 10.507812 -2.195312 11.054688 -2.003906 11.734375 -1.890625 C 12.421875 -1.773438 13.265625 -1.71875 14.265625 -1.71875 C 15.441406 -1.71875 16.441406 -1.800781 17.265625 -1.96875 C 18.085938 -2.132812 18.765625 -2.421875 19.296875 -2.828125 C 19.835938 -3.242188 20.273438 -3.800781 20.609375 -4.5 C 20.941406 -5.195312 21.222656 -6.070312 21.453125 -7.125 L 22.703125 -7.125 L 22.203125 0 L 1.09375 0 L 1.09375 -1.25 C 1.78125 -1.269531 2.335938 -1.332031 2.765625 -1.4375 C 3.203125 -1.539062 3.535156 -1.710938 3.765625 -1.953125 C 3.992188 -2.203125 4.148438 -2.554688 4.234375 -3.015625 C 4.316406 -3.472656 4.359375 -4.066406 4.359375 -4.796875 L 4.359375 -19.1875 C 4.359375 -19.90625 4.320312 -20.488281 4.25 -20.9375 C 4.175781 -21.382812 4.035156 -21.738281 3.828125 -22 C 3.617188 -22.257812 3.320312 -22.4375 2.9375 -22.53125 C 2.550781 -22.625 2.050781 -22.691406 1.4375 -22.734375 L 1.4375 -23.984375 L 21.109375 -23.984375 L 21.328125 -17.875 L 20 -17.875 C 19.875 -18.75 19.675781 -19.46875 19.40625 -20.03125 C 19.132812 -20.601562 18.757812 -21.0625 18.28125 -21.40625 C 17.800781 -21.75 17.179688 -21.988281 16.421875 -22.125 C 15.671875 -22.257812 14.742188 -22.328125 13.640625 -22.328125 L 10.125 -22.328125 C 9.582031 -22.328125 9.25 -22.257812 9.125 -22.125 C 9 -21.988281 8.9375 -21.671875 8.9375 -21.171875 Z M 8.9375 -13.265625 "/></g></g></g><g fill="#ffffff" fill-opacity="1"><g transform="translate(236.878404, 40.574127)"><g><path d="M 3.140625 -12.484375 C 2.910156 -13.085938 2.691406 -13.570312 2.484375 -13.9375 C 2.285156 -14.300781 2.078125 -14.582031 1.859375 -14.78125 C 1.640625 -14.976562 1.398438 -15.109375 1.140625 -15.171875 C 0.878906 -15.234375 0.570312 -15.265625 0.21875 -15.265625 L 0.21875 -16.5 L 9.53125 -16.5 L 9.53125 -15.265625 C 9.007812 -15.265625 8.597656 -15.242188 8.296875 -15.203125 C 7.992188 -15.160156 7.765625 -15.097656 7.609375 -15.015625 C 7.453125 -14.929688 7.351562 -14.820312 7.3125 -14.6875 C 7.269531 -14.550781 7.25 -14.398438 7.25 -14.234375 C 7.25 -13.960938 7.300781 -13.648438 7.40625 -13.296875 C 7.507812 -12.941406 7.632812 -12.585938 7.78125 -12.234375 L 10.75 -4.078125 L 10.875 -4.078125 L 14.203125 -12.203125 C 14.347656 -12.554688 14.460938 -12.875 14.546875 -13.15625 C 14.628906 -13.4375 14.671875 -13.691406 14.671875 -13.921875 C 14.671875 -14.378906 14.515625 -14.710938 14.203125 -14.921875 C 13.890625 -15.128906 13.335938 -15.242188 12.546875 -15.265625 L 12.546875 -16.5 L 19.4375 -16.5 L 19.4375 -15.265625 C 18.875 -15.265625 18.390625 -15.117188 17.984375 -14.828125 C 17.578125 -14.535156 17.15625 -13.890625 16.71875 -12.890625 L 10.90625 0.3125 L 8.0625 0.3125 Z M 3.140625 -12.484375 "/></g></g></g><g fill="#ffffff" fill-opacity="1"><g transform="translate(256.295228, 40.574127)"><g><path d="M 10.71875 -8.875 C 8.96875 -8.082031 7.648438 -7.347656 6.765625 -6.671875 C 5.890625 -6.003906 5.453125 -5.304688 5.453125 -4.578125 C 5.453125 -3.972656 5.617188 -3.492188 5.953125 -3.140625 C 6.285156 -2.785156 6.695312 -2.609375 7.1875 -2.609375 C 7.6875 -2.609375 8.15625 -2.695312 8.59375 -2.875 C 9.03125 -3.050781 9.40625 -3.285156 9.71875 -3.578125 C 10.03125 -3.867188 10.273438 -4.21875 10.453125 -4.625 C 10.628906 -5.03125 10.71875 -5.460938 10.71875 -5.921875 Z M 10.71875 -10.53125 L 10.71875 -11.828125 C 10.71875 -13.035156 10.503906 -13.914062 10.078125 -14.46875 C 9.648438 -15.019531 8.988281 -15.296875 8.09375 -15.296875 C 7.488281 -15.296875 7.03125 -15.132812 6.71875 -14.8125 C 6.414062 -14.488281 6.128906 -13.953125 5.859375 -13.203125 C 5.671875 -12.679688 5.40625 -12.273438 5.0625 -11.984375 C 4.71875 -11.691406 4.242188 -11.546875 3.640625 -11.546875 C 3.054688 -11.546875 2.609375 -11.722656 2.296875 -12.078125 C 1.992188 -12.429688 1.84375 -12.929688 1.84375 -13.578125 C 1.84375 -14.578125 2.382812 -15.363281 3.46875 -15.9375 C 4.5625 -16.519531 6.207031 -16.8125 8.40625 -16.8125 C 10.726562 -16.8125 12.390625 -16.390625 13.390625 -15.546875 C 14.390625 -14.710938 14.890625 -13.304688 14.890625 -11.328125 L 14.890625 -4.515625 C 14.890625 -2.753906 15.238281 -1.875 15.9375 -1.875 C 16.332031 -1.875 16.695312 -2.003906 17.03125 -2.265625 L 17.5 -1.375 C 17.207031 -0.851562 16.753906 -0.441406 16.140625 -0.140625 C 15.535156 0.160156 14.847656 0.3125 14.078125 0.3125 C 13.117188 0.3125 12.390625 0.0195312 11.890625 -0.5625 C 11.390625 -1.144531 11.140625 -1.960938 11.140625 -3.015625 L 11 -3.015625 C 10.394531 -1.941406 9.613281 -1.125 8.65625 -0.5625 C 7.695312 0 6.609375 0.28125 5.390625 0.28125 C 4.078125 0.28125 3.023438 -0.0859375 2.234375 -0.828125 C 1.453125 -1.566406 1.0625 -2.523438 1.0625 -3.703125 C 1.0625 -4.617188 1.460938 -5.472656 2.265625 -6.265625 C 3.078125 -7.066406 4.429688 -7.851562 6.328125 -8.625 Z M 10.71875 -10.53125 "/></g></g></g><g fill="#ffffff" fill-opacity="1"><g transform="translate(274.156224, 40.574127)"><g><path d="M 8 -5.078125 C 8 -4.222656 8.023438 -3.550781 8.078125 -3.0625 C 8.128906 -2.570312 8.242188 -2.195312 8.421875 -1.9375 C 8.597656 -1.6875 8.867188 -1.519531 9.234375 -1.4375 C 9.597656 -1.351562 10.09375 -1.289062 10.71875 -1.25 L 10.71875 0 L 0.90625 0 L 0.90625 -1.25 C 1.507812 -1.289062 1.988281 -1.351562 2.34375 -1.4375 C 2.707031 -1.519531 2.988281 -1.679688 3.1875 -1.921875 C 3.382812 -2.171875 3.515625 -2.523438 3.578125 -2.984375 C 3.640625 -3.441406 3.671875 -4.066406 3.671875 -4.859375 L 3.671875 -8.75 C 3.671875 -9.976562 3.648438 -10.96875 3.609375 -11.71875 C 3.566406 -12.476562 3.515625 -12.992188 3.453125 -13.265625 C 3.390625 -13.535156 3.304688 -13.757812 3.203125 -13.9375 C 3.097656 -14.113281 2.941406 -14.25 2.734375 -14.34375 C 2.523438 -14.4375 2.265625 -14.5 1.953125 -14.53125 C 1.648438 -14.5625 1.257812 -14.578125 0.78125 -14.578125 L 0.78125 -15.625 L 6.78125 -16.8125 L 7.1875 -14.078125 L 7.3125 -14.078125 C 8 -14.953125 8.804688 -15.625 9.734375 -16.09375 C 10.671875 -16.570312 11.703125 -16.8125 12.828125 -16.8125 C 14.160156 -16.8125 15.234375 -16.628906 16.046875 -16.265625 C 16.867188 -15.898438 17.601562 -15.296875 18.25 -14.453125 C 18.601562 -13.972656 18.914062 -13.351562 19.1875 -12.59375 C 19.457031 -11.832031 19.59375 -10.789062 19.59375 -9.46875 L 19.59375 -5.078125 C 19.59375 -4.222656 19.617188 -3.550781 19.671875 -3.0625 C 19.722656 -2.570312 19.832031 -2.195312 20 -1.9375 C 20.175781 -1.6875 20.441406 -1.519531 20.796875 -1.4375 C 21.148438 -1.351562 21.628906 -1.289062 22.234375 -1.25 L 22.234375 0 L 12.484375 0 L 12.484375 -1.25 C 13.109375 -1.269531 13.601562 -1.328125 13.96875 -1.421875 C 14.332031 -1.515625 14.609375 -1.679688 14.796875 -1.921875 C 14.984375 -2.171875 15.109375 -2.53125 15.171875 -3 C 15.234375 -3.46875 15.265625 -4.085938 15.265625 -4.859375 L 15.265625 -9.09375 C 15.265625 -10.15625 15.203125 -11.046875 15.078125 -11.765625 C 14.953125 -12.492188 14.75 -13.082031 14.46875 -13.53125 C 14.1875 -13.976562 13.816406 -14.300781 13.359375 -14.5 C 12.898438 -14.695312 12.328125 -14.796875 11.640625 -14.796875 C 10.984375 -14.796875 10.414062 -14.609375 9.9375 -14.234375 C 9.457031 -13.859375 9.039062 -13.335938 8.6875 -12.671875 C 8.5 -12.296875 8.335938 -11.8125 8.203125 -11.21875 C 8.066406 -10.632812 8 -10.019531 8 -9.375 Z M 8 -5.078125 "/></g></g></g><g fill="#ffffff" fill-opacity="1"><g transform="translate(296.778072, 40.574127)"><g><path d="M 2.640625 0 L 1.6875 0 L 1.6875 -5.671875 L 2.984375 -5.671875 C 3.335938 -4.171875 3.847656 -3.078125 4.515625 -2.390625 C 5.179688 -1.710938 6.039062 -1.375 7.09375 -1.375 C 7.863281 -1.375 8.460938 -1.53125 8.890625 -1.84375 C 9.316406 -2.164062 9.53125 -2.609375 9.53125 -3.171875 C 9.53125 -3.753906 9.269531 -4.320312 8.75 -4.875 C 8.226562 -5.425781 7.390625 -6.015625 6.234375 -6.640625 C 4.648438 -7.484375 3.515625 -8.328125 2.828125 -9.171875 C 2.148438 -10.015625 1.8125 -10.960938 1.8125 -12.015625 C 1.8125 -12.703125 1.9375 -13.34375 2.1875 -13.9375 C 2.445312 -14.53125 2.800781 -15.039062 3.25 -15.46875 C 3.695312 -15.90625 4.234375 -16.242188 4.859375 -16.484375 C 5.484375 -16.722656 6.15625 -16.84375 6.875 -16.84375 C 7.519531 -16.84375 8.160156 -16.75 8.796875 -16.5625 C 9.429688 -16.375 9.988281 -16.113281 10.46875 -15.78125 L 11.03125 -16.53125 L 11.828125 -16.53125 L 11.828125 -11.828125 L 10.625 -11.828125 C 10.144531 -13.015625 9.648438 -13.867188 9.140625 -14.390625 C 8.628906 -14.910156 8.007812 -15.171875 7.28125 -15.171875 C 6.707031 -15.171875 6.25 -15.015625 5.90625 -14.703125 C 5.5625 -14.390625 5.390625 -13.972656 5.390625 -13.453125 C 5.390625 -12.867188 5.640625 -12.316406 6.140625 -11.796875 C 6.648438 -11.285156 7.5 -10.71875 8.6875 -10.09375 C 9.519531 -9.632812 10.234375 -9.1875 10.828125 -8.75 C 11.429688 -8.3125 11.921875 -7.867188 12.296875 -7.421875 C 12.671875 -6.972656 12.945312 -6.503906 13.125 -6.015625 C 13.300781 -5.535156 13.390625 -5.015625 13.390625 -4.453125 C 13.390625 -3.722656 13.253906 -3.066406 12.984375 -2.484375 C 12.710938 -1.910156 12.328125 -1.414062 11.828125 -1 C 11.335938 -0.582031 10.742188 -0.257812 10.046875 -0.03125 C 9.347656 0.195312 8.570312 0.3125 7.71875 0.3125 C 6.832031 0.3125 6.003906 0.191406 5.234375 -0.046875 C 4.460938 -0.285156 3.828125 -0.632812 3.328125 -1.09375 Z M 2.640625 0 "/></g></g></g><path fill="#bd9d60" d="M 4.410156 31.847656 L 3.339844 35.175781 L 6.183594 34.578125 L 5.285156 31.789062 Z M 3.179688 35.425781 C 3.148438 35.425781 3.121094 35.414062 3.097656 35.390625 C 3.074219 35.363281 3.066406 35.320312 3.078125 35.285156 L 4.230469 31.710938 C 4.242188 31.671875 4.28125 31.640625 4.324219 31.636719 L 5.355469 31.566406 C 5.40625 31.5625 5.449219 31.59375 5.464844 31.640625 L 6.425781 34.625 C 6.433594 34.65625 6.433594 34.6875 6.417969 34.714844 C 6.402344 34.742188 6.375 34.761719 6.347656 34.765625 L 3.199219 35.425781 C 3.195312 35.425781 3.1875 35.425781 3.179688 35.425781 " fill-opacity="1" fill-rule="nonzero"/><g clip-path="url(#4d06782980)"><path fill="#bd9d60" d="M 2.410156 38.0625 L 3.433594 38.8125 L 7.121094 37.492188 L 6.25 34.785156 L 3.261719 35.414062 Z M 3.414062 39.042969 C 3.394531 39.042969 3.371094 39.035156 3.351562 39.023438 L 2.21875 38.191406 C 2.179688 38.164062 2.164062 38.113281 2.179688 38.070312 L 3.078125 35.285156 C 3.089844 35.25 3.121094 35.21875 3.15625 35.210938 L 6.300781 34.554688 C 6.355469 34.542969 6.410156 34.574219 6.425781 34.625 L 7.359375 37.523438 C 7.378906 37.582031 7.347656 37.640625 7.292969 37.660156 L 3.453125 39.035156 C 3.441406 39.039062 3.429688 39.042969 3.414062 39.042969 " fill-opacity="1" fill-rule="nonzero"/></g><path fill="#bd9d60" d="M 9.230469 43.324219 L 9.238281 43.359375 L 9.257812 43.347656 Z M 9.183594 43.640625 C 9.171875 43.640625 9.160156 43.636719 9.148438 43.632812 C 9.117188 43.625 9.089844 43.597656 9.082031 43.5625 L 8.921875 43.074219 C 8.910156 43.03125 8.925781 42.980469 8.960938 42.953125 C 9 42.925781 9.050781 42.925781 9.089844 42.953125 L 9.503906 43.257812 C 9.53125 43.28125 9.550781 43.3125 9.550781 43.347656 C 9.546875 43.382812 9.53125 43.414062 9.503906 43.433594 L 9.246094 43.621094 C 9.226562 43.632812 9.203125 43.640625 9.183594 43.640625 " fill-opacity="1" fill-rule="nonzero"/><path fill="#bd9d60" d="M 3.644531 38.96875 L 6.644531 41.164062 L 8.066406 40.421875 L 7.1875 37.695312 Z M 6.636719 41.398438 C 6.613281 41.398438 6.59375 41.394531 6.574219 41.378906 L 3.351562 39.023438 C 3.320312 38.996094 3.304688 38.957031 3.308594 38.917969 C 3.316406 38.878906 3.34375 38.84375 3.378906 38.832031 L 7.222656 37.457031 C 7.25 37.445312 7.277344 37.449219 7.304688 37.460938 C 7.332031 37.472656 7.351562 37.496094 7.359375 37.523438 L 8.300781 40.441406 C 8.316406 40.492188 8.292969 40.546875 8.246094 40.574219 L 6.6875 41.386719 C 6.671875 41.398438 6.652344 41.398438 6.636719 41.398438 " fill-opacity="1" fill-rule="nonzero"/><path fill="#bd9d60" d="M 6.839844 41.308594 L 8.820312 42.757812 L 8.136719 40.632812 Z M 9.023438 43.152344 C 9.003906 43.152344 8.980469 43.144531 8.960938 43.128906 L 6.574219 41.378906 C 6.542969 41.359375 6.527344 41.320312 6.53125 41.285156 C 6.53125 41.246094 6.554688 41.214844 6.585938 41.195312 L 8.148438 40.378906 C 8.175781 40.367188 8.210938 40.363281 8.238281 40.375 C 8.269531 40.386719 8.289062 40.414062 8.300781 40.441406 L 9.128906 43.007812 C 9.140625 43.054688 9.125 43.101562 9.089844 43.128906 C 9.070312 43.144531 9.046875 43.152344 9.023438 43.152344 " fill-opacity="1" fill-rule="nonzero"/><path fill="#bd9d60" d="M 6.839844 18.914062 L 8.136719 19.589844 L 8.820312 17.464844 Z M 8.199219 19.851562 C 8.179688 19.851562 8.164062 19.847656 8.148438 19.839844 L 6.585938 19.027344 C 6.554688 19.007812 6.53125 18.976562 6.53125 18.9375 C 6.527344 18.898438 6.542969 18.863281 6.574219 18.84375 L 8.960938 17.089844 C 9 17.0625 9.050781 17.0625 9.089844 17.089844 C 9.125 17.121094 9.140625 17.167969 9.128906 17.210938 L 8.300781 19.777344 C 8.289062 19.808594 8.269531 19.832031 8.238281 19.84375 C 8.226562 19.851562 8.210938 19.851562 8.199219 19.851562 " fill-opacity="1" fill-rule="nonzero"/><path fill="#bd9d60" d="M 4.859375 30.460938 L 4.484375 31.625 L 5.21875 31.574219 Z M 4.332031 31.855469 C 4.296875 31.855469 4.265625 31.839844 4.246094 31.8125 C 4.222656 31.785156 4.21875 31.746094 4.230469 31.710938 L 4.757812 30.078125 C 4.769531 30.03125 4.8125 30.003906 4.859375 30.003906 C 4.90625 30.003906 4.945312 30.03125 4.960938 30.078125 L 5.464844 31.640625 C 5.476562 31.671875 5.46875 31.707031 5.453125 31.734375 C 5.433594 31.761719 5.402344 31.78125 5.371094 31.78125 L 4.339844 31.855469 C 4.335938 31.855469 4.332031 31.855469 4.332031 31.855469 " fill-opacity="1" fill-rule="nonzero"/><path fill="#bd9d60" d="M 3.644531 21.253906 L 7.1875 22.523438 L 8.066406 19.796875 L 6.644531 19.054688 Z M 7.257812 22.773438 C 7.246094 22.773438 7.234375 22.769531 7.222656 22.765625 L 3.378906 21.390625 C 3.34375 21.375 3.316406 21.34375 3.308594 21.304688 C 3.304688 21.261719 3.320312 21.222656 3.351562 21.199219 L 6.574219 18.84375 C 6.605469 18.816406 6.648438 18.8125 6.6875 18.832031 L 8.246094 19.648438 C 8.292969 19.671875 8.316406 19.726562 8.300781 19.777344 L 7.359375 22.699219 C 7.351562 22.726562 7.332031 22.75 7.304688 22.761719 C 7.289062 22.769531 7.273438 22.773438 7.257812 22.773438 " fill-opacity="1" fill-rule="nonzero"/><g clip-path="url(#925f387f8a)"><path fill="#bd9d60" d="M 3.261719 24.808594 L 6.25 25.433594 L 7.121094 22.730469 L 3.433594 21.410156 L 2.410156 22.160156 Z M 6.324219 25.667969 C 6.316406 25.667969 6.308594 25.667969 6.300781 25.667969 L 3.15625 25.007812 C 3.121094 25 3.089844 24.972656 3.078125 24.9375 L 2.179688 22.152344 C 2.164062 22.109375 2.179688 22.058594 2.21875 22.03125 L 3.351562 21.199219 C 3.382812 21.179688 3.417969 21.171875 3.453125 21.1875 L 7.292969 22.5625 C 7.347656 22.582031 7.378906 22.640625 7.359375 22.699219 L 6.425781 25.59375 C 6.410156 25.640625 6.371094 25.667969 6.324219 25.667969 " fill-opacity="1" fill-rule="nonzero"/></g><path fill="#bd9d60" d="M 4.484375 28.59375 L 4.859375 29.761719 L 5.21875 28.644531 Z M 4.859375 30.21875 C 4.8125 30.21875 4.769531 30.1875 4.757812 30.144531 L 4.230469 28.507812 C 4.21875 28.476562 4.222656 28.4375 4.246094 28.410156 C 4.269531 28.378906 4.304688 28.363281 4.339844 28.367188 L 5.371094 28.4375 C 5.402344 28.441406 5.433594 28.460938 5.453125 28.488281 C 5.46875 28.515625 5.476562 28.550781 5.464844 28.582031 L 4.960938 30.144531 C 4.945312 30.1875 4.90625 30.21875 4.859375 30.21875 " fill-opacity="1" fill-rule="nonzero"/><path fill="#bd9d60" d="M 4.410156 28.371094 L 5.285156 28.433594 L 6.183594 25.644531 L 3.339844 25.046875 Z M 5.363281 28.65625 C 5.359375 28.65625 5.359375 28.65625 5.355469 28.65625 L 4.324219 28.585938 C 4.28125 28.582031 4.242188 28.550781 4.230469 28.507812 L 3.078125 24.9375 C 3.066406 24.898438 3.074219 24.859375 3.097656 24.832031 C 3.125 24.800781 3.164062 24.789062 3.199219 24.796875 L 6.347656 25.453125 C 6.375 25.460938 6.402344 25.480469 6.417969 25.507812 C 6.433594 25.53125 6.433594 25.566406 6.425781 25.59375 L 5.464844 28.582031 C 5.449219 28.625 5.410156 28.65625 5.363281 28.65625 " fill-opacity="1" fill-rule="nonzero"/><path fill="#bd9d60" d="M 9.238281 16.863281 L 9.230469 16.894531 L 9.257812 16.875 Z M 9.023438 17.289062 C 9.003906 17.289062 8.980469 17.28125 8.960938 17.265625 C 8.925781 17.238281 8.910156 17.191406 8.921875 17.144531 L 9.082031 16.65625 C 9.089844 16.625 9.117188 16.597656 9.148438 16.585938 C 9.179688 16.578125 9.214844 16.582031 9.246094 16.601562 L 9.503906 16.785156 C 9.53125 16.804688 9.546875 16.839844 9.550781 16.875 C 9.550781 16.910156 9.53125 16.941406 9.503906 16.960938 L 9.089844 17.265625 C 9.070312 17.28125 9.046875 17.289062 9.023438 17.289062 " fill-opacity="1" fill-rule="nonzero"/><path fill="#bd9d60" d="M 9.308594 43.574219 L 10.304688 46.660156 L 11.828125 45.230469 L 9.441406 43.480469 Z M 10.253906 46.964844 C 10.246094 46.964844 10.238281 46.964844 10.226562 46.960938 C 10.191406 46.953125 10.164062 46.925781 10.152344 46.890625 L 9.082031 43.566406 C 9.066406 43.519531 9.082031 43.46875 9.121094 43.441406 L 9.378906 43.257812 C 9.417969 43.230469 9.46875 43.230469 9.503906 43.257812 L 12.058594 45.128906 C 12.085938 45.148438 12.101562 45.179688 12.101562 45.210938 C 12.105469 45.242188 12.09375 45.277344 12.070312 45.296875 L 10.328125 46.9375 C 10.308594 46.953125 10.28125 46.964844 10.253906 46.964844 " fill-opacity="1" fill-rule="nonzero"/><path fill="#bd9d60" d="M 9.308594 16.648438 L 9.441406 16.742188 L 11.828125 14.992188 L 10.304688 13.558594 Z M 9.441406 16.984375 C 9.417969 16.984375 9.398438 16.976562 9.378906 16.964844 L 9.121094 16.777344 C 9.082031 16.75 9.066406 16.703125 9.082031 16.65625 L 10.152344 13.332031 C 10.164062 13.296875 10.191406 13.269531 10.226562 13.261719 C 10.261719 13.25 10.300781 13.261719 10.328125 13.285156 L 12.070312 14.925781 C 12.09375 14.945312 12.105469 14.976562 12.101562 15.011719 C 12.101562 15.042969 12.085938 15.070312 12.058594 15.089844 L 9.503906 16.960938 C 9.484375 16.976562 9.464844 16.984375 9.441406 16.984375 " fill-opacity="1" fill-rule="nonzero"/><path fill="#bd9d60" d="M 10.378906 13.332031 L 12.003906 14.863281 L 14.261719 13.210938 L 11.515625 9.804688 Z M 11.996094 15.113281 C 11.96875 15.113281 11.941406 15.101562 11.921875 15.082031 L 10.179688 13.445312 C 10.152344 13.414062 10.140625 13.371094 10.152344 13.332031 L 11.371094 9.546875 C 11.382812 9.507812 11.414062 9.480469 11.453125 9.472656 C 11.492188 9.464844 11.53125 9.480469 11.558594 9.511719 L 14.5 13.160156 C 14.519531 13.183594 14.527344 13.214844 14.523438 13.242188 C 14.519531 13.273438 14.503906 13.300781 14.480469 13.316406 L 12.058594 15.089844 C 12.039062 15.105469 12.019531 15.113281 11.996094 15.113281 " fill-opacity="1" fill-rule="nonzero"/><path fill="#bd9d60" d="M 10.378906 46.890625 L 11.515625 50.417969 L 14.261719 47.011719 L 12.003906 45.359375 Z M 11.472656 50.75 C 11.46875 50.75 11.460938 50.75 11.453125 50.746094 C 11.414062 50.738281 11.382812 50.710938 11.371094 50.675781 L 10.152344 46.890625 C 10.140625 46.851562 10.152344 46.804688 10.179688 46.777344 L 11.921875 45.140625 C 11.960938 45.105469 12.019531 45.101562 12.058594 45.128906 L 14.480469 46.90625 C 14.503906 46.921875 14.519531 46.949219 14.523438 46.976562 C 14.527344 47.007812 14.519531 47.039062 14.5 47.0625 L 11.558594 50.710938 C 11.535156 50.734375 11.507812 50.75 11.472656 50.75 " fill-opacity="1" fill-rule="nonzero"/><path fill="#bd9d60" d="M 11.59375 9.558594 L 14.4375 13.082031 L 16.660156 11.453125 L 14.386719 7.683594 L 12.199219 7.683594 Z M 14.417969 13.335938 C 14.386719 13.335938 14.355469 13.324219 14.335938 13.296875 L 11.390625 9.648438 C 11.367188 9.621094 11.359375 9.582031 11.371094 9.546875 L 12.019531 7.542969 C 12.03125 7.496094 12.074219 7.464844 12.121094 7.464844 L 14.445312 7.464844 C 14.484375 7.464844 14.519531 7.484375 14.539062 7.519531 L 16.894531 11.425781 C 16.925781 11.472656 16.910156 11.539062 16.867188 11.570312 L 14.480469 13.316406 C 14.460938 13.332031 14.441406 13.335938 14.417969 13.335938 " fill-opacity="1" fill-rule="nonzero"/><path fill="#bd9d60" d="M 12.199219 52.539062 L 14.386719 52.539062 L 16.660156 48.769531 L 14.4375 47.140625 L 11.59375 50.664062 Z M 14.445312 52.753906 L 12.121094 52.753906 C 12.074219 52.753906 12.03125 52.726562 12.019531 52.679688 L 11.371094 50.675781 C 11.359375 50.640625 11.367188 50.601562 11.390625 50.574219 L 14.335938 46.925781 C 14.371094 46.878906 14.433594 46.871094 14.480469 46.90625 L 16.867188 48.652344 C 16.910156 48.683594 16.925781 48.746094 16.894531 48.796875 L 14.539062 52.703125 C 14.519531 52.734375 14.484375 52.753906 14.445312 52.753906 " fill-opacity="1" fill-rule="nonzero"/><path fill="#bd9d60" d="M 14.636719 7.683594 L 16.835938 11.324219 L 19.109375 9.65625 L 18.261719 7.683594 Z M 16.804688 11.589844 C 16.796875 11.589844 16.789062 11.589844 16.78125 11.589844 C 16.753906 11.582031 16.726562 11.566406 16.710938 11.539062 L 14.355469 7.632812 C 14.332031 7.597656 14.332031 7.554688 14.351562 7.523438 C 14.371094 7.488281 14.40625 7.464844 14.445312 7.464844 L 18.328125 7.464844 C 18.371094 7.464844 18.410156 7.492188 18.429688 7.53125 L 19.34375 9.652344 C 19.363281 9.699219 19.347656 9.753906 19.304688 9.78125 L 16.867188 11.570312 C 16.847656 11.582031 16.824219 11.589844 16.804688 11.589844 " fill-opacity="1" fill-rule="nonzero"/><path fill="#bd9d60" d="M 14.636719 52.539062 L 18.261719 52.539062 L 19.109375 50.5625 L 16.835938 48.894531 Z M 18.328125 52.753906 L 14.445312 52.753906 C 14.40625 52.753906 14.371094 52.734375 14.351562 52.699219 C 14.332031 52.664062 14.332031 52.625 14.355469 52.589844 L 16.710938 48.683594 C 16.726562 48.65625 16.753906 48.640625 16.78125 48.632812 C 16.8125 48.628906 16.84375 48.632812 16.867188 48.652344 L 19.304688 50.4375 C 19.347656 50.46875 19.363281 50.523438 19.34375 50.570312 L 18.429688 52.691406 C 18.410156 52.730469 18.371094 52.753906 18.328125 52.753906 " fill-opacity="1" fill-rule="nonzero"/><path fill="#bd9d60" d="M 18.496094 7.683594 L 19.289062 9.527344 L 21.714844 7.75 L 21.695312 7.683594 Z M 19.242188 9.804688 C 19.234375 9.804688 19.222656 9.800781 19.214844 9.800781 C 19.183594 9.789062 19.15625 9.769531 19.144531 9.738281 L 18.230469 7.617188 C 18.21875 7.585938 18.21875 7.546875 18.238281 7.515625 C 18.261719 7.484375 18.292969 7.464844 18.328125 7.464844 L 21.777344 7.464844 C 21.824219 7.464844 21.867188 7.5 21.878906 7.546875 L 21.941406 7.765625 C 21.953125 7.808594 21.9375 7.855469 21.898438 7.882812 L 19.304688 9.78125 C 19.289062 9.796875 19.265625 9.804688 19.242188 9.804688 " fill-opacity="1" fill-rule="nonzero"/><path fill="#bd9d60" d="M 18.496094 52.539062 L 21.695312 52.539062 L 21.714844 52.46875 L 19.289062 50.695312 Z M 21.777344 52.753906 L 18.328125 52.753906 C 18.292969 52.753906 18.261719 52.738281 18.238281 52.707031 C 18.21875 52.675781 18.21875 52.636719 18.230469 52.605469 L 19.144531 50.484375 C 19.15625 50.453125 19.183594 50.429688 19.214844 50.421875 C 19.246094 50.414062 19.28125 50.421875 19.304688 50.4375 L 21.898438 52.339844 C 21.9375 52.367188 21.953125 52.410156 21.941406 52.457031 L 21.878906 52.675781 C 21.867188 52.722656 21.824219 52.753906 21.777344 52.753906 " fill-opacity="1" fill-rule="nonzero"/><path fill="#bd9d60" d="M 22.136719 52.753906 L 21.777344 52.753906 C 21.742188 52.753906 21.710938 52.738281 21.691406 52.710938 C 21.671875 52.683594 21.664062 52.652344 21.671875 52.617188 L 21.734375 52.398438 C 21.742188 52.363281 21.769531 52.335938 21.800781 52.324219 C 21.835938 52.3125 21.871094 52.316406 21.898438 52.339844 L 22.199219 52.558594 C 22.238281 52.585938 22.253906 52.636719 22.238281 52.679688 C 22.226562 52.726562 22.183594 52.753906 22.136719 52.753906 " fill-opacity="1" fill-rule="nonzero"/><path fill="#bd9d60" d="M 21.835938 7.902344 C 21.824219 7.902344 21.8125 7.902344 21.800781 7.898438 C 21.769531 7.886719 21.742188 7.859375 21.734375 7.824219 L 21.671875 7.605469 C 21.664062 7.570312 21.671875 7.535156 21.691406 7.507812 C 21.710938 7.480469 21.742188 7.464844 21.777344 7.464844 L 22.136719 7.464844 C 22.183594 7.464844 22.226562 7.496094 22.238281 7.542969 C 22.253906 7.585938 22.238281 7.636719 22.199219 7.664062 L 21.898438 7.882812 C 21.882812 7.894531 21.859375 7.902344 21.835938 7.902344 " fill-opacity="1" fill-rule="nonzero"/><path fill="#bd9d60" d="M 22.46875 7.464844 L 24.84375 7.464844 L 24.628906 5.882812 Z M 24.964844 7.683594 L 22.136719 7.683594 C 22.089844 7.683594 22.050781 7.652344 22.035156 7.609375 C 22.019531 7.5625 22.035156 7.515625 22.074219 7.488281 L 24.648438 5.601562 C 24.679688 5.578125 24.71875 5.574219 24.753906 5.589844 C 24.789062 5.605469 24.8125 5.636719 24.816406 5.675781 L 25.074219 7.558594 C 25.078125 7.589844 25.066406 7.621094 25.046875 7.644531 C 25.027344 7.667969 24.996094 7.683594 24.964844 7.683594 " fill-opacity="1" fill-rule="nonzero"/><path fill="#bd9d60" d="M 22.46875 52.753906 L 24.628906 54.335938 L 24.84375 52.753906 Z M 24.710938 54.640625 C 24.6875 54.640625 24.667969 54.632812 24.648438 54.617188 L 22.074219 52.734375 C 22.035156 52.707031 22.019531 52.65625 22.035156 52.613281 C 22.050781 52.570312 22.089844 52.539062 22.136719 52.539062 L 24.964844 52.539062 C 24.996094 52.539062 25.027344 52.550781 25.046875 52.574219 C 25.066406 52.597656 25.078125 52.628906 25.074219 52.660156 L 24.816406 54.546875 C 24.8125 54.582031 24.789062 54.617188 24.753906 54.632812 C 24.738281 54.636719 24.726562 54.640625 24.710938 54.640625 " fill-opacity="1" fill-rule="nonzero"/><path fill="#bd9d60" d="M 9.441406 16.875 Z M 22.171875 52.539062 L 33.90625 52.539062 L 46.960938 42.976562 L 51.105469 30.109375 L 46.960938 17.246094 L 33.90625 7.683594 L 22.171875 7.683594 L 9.503906 16.960938 L 9.117188 17.246094 L 4.972656 30.109375 L 9.117188 42.976562 Z M 33.941406 52.753906 L 22.136719 52.753906 C 22.113281 52.753906 22.09375 52.746094 22.074219 52.734375 L 8.960938 43.128906 C 8.945312 43.117188 8.929688 43.097656 8.921875 43.074219 L 4.757812 30.144531 C 4.75 30.121094 4.75 30.097656 4.757812 30.078125 L 8.921875 17.144531 C 8.929688 17.125 8.945312 17.105469 8.960938 17.089844 L 22.074219 7.488281 C 22.09375 7.472656 22.113281 7.464844 22.136719 7.464844 L 33.941406 7.464844 C 33.964844 7.464844 33.984375 7.472656 34.003906 7.488281 L 47.117188 17.089844 C 47.132812 17.105469 47.148438 17.125 47.15625 17.144531 L 51.324219 30.078125 C 51.328125 30.097656 51.328125 30.121094 51.324219 30.144531 L 47.15625 43.074219 C 47.148438 43.097656 47.132812 43.117188 47.117188 43.128906 L 34.003906 52.734375 C 33.984375 52.746094 33.964844 52.753906 33.941406 52.753906 " fill-opacity="1" fill-rule="nonzero"/><g clip-path="url(#dcd3e04b80)"><path fill="#bd9d60" d="M 25.0625 7.464844 L 27.929688 7.464844 L 27.929688 3.464844 L 24.824219 5.738281 Z M 28.039062 7.683594 L 24.964844 7.683594 C 24.914062 7.683594 24.867188 7.644531 24.859375 7.589844 L 24.605469 5.703125 C 24.597656 5.664062 24.617188 5.625 24.648438 5.601562 L 27.976562 3.164062 C 28.007812 3.140625 28.050781 3.136719 28.085938 3.15625 C 28.125 3.171875 28.148438 3.210938 28.148438 3.25 L 28.148438 7.574219 C 28.148438 7.632812 28.097656 7.683594 28.039062 7.683594 " fill-opacity="1" fill-rule="nonzero"/></g><g clip-path="url(#a0859e0153)"><path fill="#bd9d60" d="M 24.824219 54.480469 L 27.929688 56.757812 L 27.929688 52.753906 L 25.0625 52.753906 Z M 28.039062 57.078125 C 28.015625 57.078125 27.996094 57.070312 27.976562 57.058594 L 24.648438 54.617188 C 24.617188 54.597656 24.597656 54.554688 24.605469 54.515625 L 24.859375 52.632812 C 24.867188 52.578125 24.914062 52.539062 24.964844 52.539062 L 28.039062 52.539062 C 28.097656 52.539062 28.148438 52.585938 28.148438 52.648438 L 28.148438 56.96875 C 28.148438 57.011719 28.125 57.046875 28.085938 57.066406 C 28.074219 57.074219 28.054688 57.078125 28.039062 57.078125 " fill-opacity="1" fill-rule="nonzero"/></g><g clip-path="url(#5d998bee73)"><path fill="#bd9d60" d="M 28.148438 7.464844 L 31.019531 7.464844 L 31.253906 5.738281 L 28.148438 3.464844 Z M 31.113281 7.683594 L 28.039062 7.683594 C 27.980469 7.683594 27.929688 7.632812 27.929688 7.574219 L 27.929688 3.25 C 27.929688 3.210938 27.953125 3.171875 27.992188 3.15625 C 28.027344 3.136719 28.070312 3.140625 28.101562 3.164062 L 31.429688 5.601562 C 31.460938 5.625 31.480469 5.664062 31.472656 5.703125 L 31.21875 7.589844 C 31.210938 7.644531 31.164062 7.683594 31.113281 7.683594 " fill-opacity="1" fill-rule="nonzero"/></g><g clip-path="url(#35945b6426)"><path fill="#bd9d60" d="M 28.148438 52.753906 L 28.148438 56.757812 L 31.253906 54.480469 L 31.019531 52.753906 Z M 28.039062 57.078125 C 28.023438 57.078125 28.007812 57.074219 27.992188 57.066406 C 27.953125 57.046875 27.929688 57.011719 27.929688 56.96875 L 27.929688 52.648438 C 27.929688 52.585938 27.980469 52.539062 28.039062 52.539062 L 31.113281 52.539062 C 31.164062 52.539062 31.210938 52.578125 31.21875 52.632812 L 31.472656 54.515625 C 31.480469 54.554688 31.460938 54.597656 31.429688 54.617188 L 28.101562 57.058594 C 28.082031 57.070312 28.0625 57.078125 28.039062 57.078125 " fill-opacity="1" fill-rule="nonzero"/></g><path fill="#bd9d60" d="M 31.234375 52.753906 L 31.449219 54.335938 L 33.609375 52.753906 Z M 31.367188 54.640625 C 31.351562 54.640625 31.339844 54.636719 31.324219 54.632812 C 31.289062 54.617188 31.265625 54.582031 31.261719 54.546875 L 31.003906 52.660156 C 31 52.628906 31.011719 52.597656 31.03125 52.574219 C 31.050781 52.550781 31.082031 52.539062 31.113281 52.539062 L 33.941406 52.539062 C 33.988281 52.539062 34.027344 52.570312 34.042969 52.613281 C 34.058594 52.65625 34.042969 52.707031 34.003906 52.734375 L 31.429688 54.617188 C 31.410156 54.632812 31.390625 54.640625 31.367188 54.640625 " fill-opacity="1" fill-rule="nonzero"/><path fill="#bd9d60" d="M 31.234375 7.464844 L 33.609375 7.464844 L 31.449219 5.882812 Z M 33.941406 7.683594 L 31.113281 7.683594 C 31.082031 7.683594 31.050781 7.667969 31.03125 7.644531 C 31.011719 7.621094 31 7.589844 31.003906 7.558594 L 31.261719 5.675781 C 31.265625 5.636719 31.289062 5.605469 31.324219 5.589844 C 31.359375 5.574219 31.398438 5.578125 31.429688 5.601562 L 34.003906 7.488281 C 34.042969 7.515625 34.058594 7.5625 34.042969 7.609375 C 34.027344 7.652344 33.988281 7.683594 33.941406 7.683594 " fill-opacity="1" fill-rule="nonzero"/><path fill="#bd9d60" d="M 34.242188 7.902344 C 34.21875 7.902344 34.195312 7.894531 34.179688 7.882812 L 33.878906 7.664062 C 33.839844 7.636719 33.824219 7.585938 33.839844 7.542969 C 33.851562 7.496094 33.894531 7.464844 33.941406 7.464844 L 34.300781 7.464844 C 34.335938 7.464844 34.367188 7.480469 34.386719 7.507812 C 34.40625 7.535156 34.414062 7.570312 34.40625 7.605469 L 34.34375 7.824219 C 34.335938 7.859375 34.308594 7.886719 34.277344 7.898438 C 34.265625 7.902344 34.253906 7.902344 34.242188 7.902344 " fill-opacity="1" fill-rule="nonzero"/><path fill="#bd9d60" d="M 34.300781 52.753906 L 33.941406 52.753906 C 33.894531 52.753906 33.851562 52.726562 33.839844 52.679688 C 33.824219 52.636719 33.839844 52.585938 33.878906 52.558594 L 34.179688 52.339844 C 34.207031 52.316406 34.242188 52.3125 34.277344 52.324219 C 34.308594 52.335938 34.335938 52.363281 34.34375 52.398438 L 34.40625 52.617188 C 34.414062 52.652344 34.40625 52.683594 34.386719 52.710938 C 34.367188 52.738281 34.335938 52.753906 34.300781 52.753906 " fill-opacity="1" fill-rule="nonzero"/><path fill="#bd9d60" d="M 34.363281 7.75 L 36.789062 9.527344 L 37.585938 7.683594 L 34.382812 7.683594 Z M 36.835938 9.804688 C 36.8125 9.804688 36.789062 9.796875 36.773438 9.78125 L 34.179688 7.882812 C 34.140625 7.855469 34.125 7.808594 34.136719 7.765625 L 34.199219 7.546875 C 34.210938 7.5 34.253906 7.464844 34.300781 7.464844 L 37.75 7.464844 C 37.785156 7.464844 37.820312 7.484375 37.839844 7.515625 C 37.859375 7.546875 37.859375 7.585938 37.847656 7.617188 L 36.933594 9.738281 C 36.921875 9.769531 36.894531 9.789062 36.863281 9.800781 C 36.855469 9.800781 36.84375 9.804688 36.835938 9.804688 " fill-opacity="1" fill-rule="nonzero"/><path fill="#bd9d60" d="M 34.382812 52.539062 L 37.585938 52.539062 L 36.789062 50.695312 L 34.363281 52.46875 Z M 37.75 52.753906 L 34.300781 52.753906 C 34.253906 52.753906 34.210938 52.722656 34.199219 52.675781 L 34.136719 52.457031 C 34.125 52.410156 34.140625 52.367188 34.179688 52.339844 L 36.773438 50.4375 C 36.796875 50.421875 36.832031 50.414062 36.863281 50.421875 C 36.894531 50.429688 36.921875 50.453125 36.933594 50.484375 L 37.847656 52.605469 C 37.859375 52.636719 37.859375 52.675781 37.839844 52.707031 C 37.820312 52.738281 37.785156 52.753906 37.75 52.753906 " fill-opacity="1" fill-rule="nonzero"/><path fill="#bd9d60" d="M 37.820312 52.539062 L 41.441406 52.539062 L 39.246094 48.894531 L 36.96875 50.5625 Z M 41.632812 52.753906 L 37.75 52.753906 C 37.707031 52.753906 37.667969 52.730469 37.648438 52.691406 L 36.734375 50.570312 C 36.714844 50.523438 36.730469 50.46875 36.773438 50.4375 L 39.210938 48.652344 C 39.234375 48.632812 39.265625 48.628906 39.296875 48.632812 C 39.324219 48.640625 39.351562 48.65625 39.367188 48.683594 L 41.722656 52.589844 C 41.746094 52.625 41.746094 52.664062 41.726562 52.699219 C 41.707031 52.734375 41.671875 52.753906 41.632812 52.753906 " fill-opacity="1" fill-rule="nonzero"/><path fill="#bd9d60" d="M 36.96875 9.65625 L 39.246094 11.324219 L 41.441406 7.683594 L 37.820312 7.683594 Z M 39.273438 11.589844 C 39.253906 11.589844 39.230469 11.582031 39.210938 11.570312 L 36.773438 9.78125 C 36.730469 9.753906 36.714844 9.699219 36.734375 9.652344 L 37.648438 7.53125 C 37.667969 7.492188 37.707031 7.464844 37.75 7.464844 L 41.632812 7.464844 C 41.671875 7.464844 41.707031 7.488281 41.726562 7.523438 C 41.746094 7.554688 41.746094 7.597656 41.722656 7.632812 L 39.367188 11.539062 C 39.351562 11.566406 39.324219 11.582031 39.296875 11.589844 C 39.289062 11.589844 39.28125 11.589844 39.273438 11.589844 " fill-opacity="1" fill-rule="nonzero"/><path fill="#bd9d60" d="M 39.417969 11.453125 L 41.640625 13.082031 L 44.484375 9.558594 L 43.878906 7.683594 L 41.695312 7.683594 Z M 41.660156 13.335938 C 41.636719 13.335938 41.617188 13.332031 41.597656 13.316406 L 39.210938 11.570312 C 39.167969 11.539062 39.15625 11.472656 39.183594 11.425781 L 41.539062 7.519531 C 41.558594 7.484375 41.59375 7.464844 41.632812 7.464844 L 43.957031 7.464844 C 44.003906 7.464844 44.046875 7.496094 44.058594 7.542969 L 44.707031 9.546875 C 44.71875 9.582031 44.710938 9.621094 44.6875 9.648438 L 41.746094 13.296875 C 41.722656 13.324219 41.691406 13.335938 41.660156 13.335938 " fill-opacity="1" fill-rule="nonzero"/><path fill="#bd9d60" d="M 41.695312 52.539062 L 43.878906 52.539062 L 44.484375 50.664062 L 41.640625 47.140625 L 39.417969 48.769531 Z M 43.957031 52.753906 L 41.632812 52.753906 C 41.59375 52.753906 41.558594 52.734375 41.539062 52.703125 L 39.183594 48.796875 C 39.15625 48.746094 39.167969 48.683594 39.210938 48.652344 L 41.597656 46.90625 C 41.644531 46.871094 41.707031 46.878906 41.746094 46.925781 L 44.6875 50.574219 C 44.710938 50.601562 44.71875 50.640625 44.707031 50.675781 L 44.058594 52.679688 C 44.046875 52.726562 44.003906 52.753906 43.957031 52.753906 " fill-opacity="1" fill-rule="nonzero"/><path fill="#bd9d60" d="M 41.816406 13.210938 L 44.074219 14.863281 L 45.699219 13.332031 L 44.5625 9.804688 Z M 44.082031 15.113281 C 44.0625 15.113281 44.039062 15.105469 44.019531 15.089844 L 41.597656 13.316406 C 41.574219 13.300781 41.558594 13.273438 41.554688 13.242188 C 41.550781 13.214844 41.558594 13.183594 41.578125 13.160156 L 44.519531 9.511719 C 44.546875 9.480469 44.585938 9.464844 44.625 9.472656 C 44.664062 9.480469 44.695312 9.507812 44.707031 9.546875 L 45.925781 13.332031 C 45.9375 13.371094 45.925781 13.414062 45.898438 13.445312 L 44.15625 15.082031 C 44.136719 15.101562 44.109375 15.113281 44.082031 15.113281 " fill-opacity="1" fill-rule="nonzero"/><path fill="#bd9d60" d="M 41.816406 47.011719 L 44.5625 50.417969 L 45.699219 46.890625 L 44.074219 45.359375 Z M 44.605469 50.75 C 44.574219 50.75 44.542969 50.734375 44.519531 50.710938 L 41.578125 47.0625 C 41.558594 47.039062 41.550781 47.007812 41.554688 46.976562 C 41.558594 46.949219 41.574219 46.921875 41.597656 46.90625 L 44.019531 45.128906 C 44.0625 45.101562 44.117188 45.101562 44.15625 45.140625 L 45.898438 46.777344 C 45.925781 46.804688 45.9375 46.851562 45.925781 46.890625 L 44.707031 50.675781 C 44.695312 50.710938 44.664062 50.738281 44.625 50.746094 C 44.617188 50.75 44.609375 50.75 44.605469 50.75 " fill-opacity="1" fill-rule="nonzero"/><path fill="#bd9d60" d="M 44.25 45.230469 L 45.773438 46.660156 L 46.769531 43.574219 L 46.636719 43.480469 Z M 45.824219 46.964844 C 45.796875 46.964844 45.769531 46.953125 45.75 46.9375 L 44.007812 45.296875 C 43.984375 45.277344 43.972656 45.242188 43.976562 45.210938 C 43.976562 45.179688 43.992188 45.148438 44.019531 45.128906 L 46.574219 43.257812 C 46.609375 43.230469 46.660156 43.230469 46.699219 43.257812 L 46.957031 43.441406 C 46.996094 43.46875 47.011719 43.519531 46.996094 43.566406 L 45.925781 46.890625 C 45.914062 46.925781 45.886719 46.953125 45.851562 46.960938 C 45.839844 46.964844 45.832031 46.964844 45.824219 46.964844 " fill-opacity="1" fill-rule="nonzero"/><path fill="#bd9d60" d="M 44.25 14.992188 L 46.636719 16.742188 L 46.769531 16.648438 L 45.773438 13.558594 Z M 46.636719 16.984375 C 46.613281 16.984375 46.59375 16.976562 46.574219 16.960938 L 44.019531 15.089844 C 43.992188 15.070312 43.976562 15.042969 43.976562 15.011719 C 43.972656 14.976562 43.984375 14.945312 44.007812 14.925781 L 45.75 13.285156 C 45.777344 13.261719 45.816406 13.25 45.851562 13.261719 C 45.886719 13.269531 45.914062 13.296875 45.925781 13.332031 L 46.996094 16.65625 C 47.011719 16.703125 46.996094 16.75 46.957031 16.777344 L 46.699219 16.964844 C 46.679688 16.976562 46.660156 16.984375 46.636719 16.984375 " fill-opacity="1" fill-rule="nonzero"/><path fill="#bd9d60" d="M 46.820312 43.347656 L 46.839844 43.359375 L 46.847656 43.324219 Z M 46.894531 43.640625 C 46.875 43.640625 46.851562 43.632812 46.835938 43.621094 L 46.574219 43.433594 C 46.546875 43.414062 46.53125 43.382812 46.527344 43.347656 C 46.527344 43.3125 46.546875 43.28125 46.574219 43.257812 L 46.988281 42.953125 C 47.027344 42.925781 47.078125 42.925781 47.117188 42.953125 C 47.152344 42.980469 47.167969 43.03125 47.15625 43.074219 L 46.996094 43.5625 C 46.988281 43.597656 46.960938 43.625 46.929688 43.632812 C 46.917969 43.636719 46.90625 43.640625 46.894531 43.640625 " fill-opacity="1" fill-rule="nonzero"/><path fill="#bd9d60" d="M 46.820312 16.875 L 46.847656 16.894531 L 46.839844 16.863281 Z M 47.054688 17.289062 C 47.03125 17.289062 47.007812 17.28125 46.988281 17.265625 L 46.574219 16.960938 C 46.546875 16.941406 46.527344 16.910156 46.527344 16.875 C 46.53125 16.839844 46.546875 16.804688 46.574219 16.785156 L 46.835938 16.601562 C 46.863281 16.582031 46.898438 16.578125 46.929688 16.585938 C 46.960938 16.597656 46.988281 16.625 46.996094 16.65625 L 47.15625 17.144531 C 47.167969 17.191406 47.152344 17.238281 47.117188 17.265625 C 47.097656 17.28125 47.074219 17.289062 47.054688 17.289062 " fill-opacity="1" fill-rule="nonzero"/><path fill="#bd9d60" d="M 47.257812 17.464844 L 47.941406 19.589844 L 49.238281 18.914062 Z M 47.878906 19.851562 C 47.867188 19.851562 47.851562 19.851562 47.839844 19.84375 C 47.808594 19.832031 47.789062 19.808594 47.777344 19.777344 L 46.949219 17.210938 C 46.9375 17.167969 46.953125 17.121094 46.988281 17.089844 C 47.027344 17.0625 47.078125 17.0625 47.117188 17.089844 L 49.503906 18.84375 C 49.535156 18.863281 49.550781 18.898438 49.546875 18.9375 C 49.546875 18.976562 49.523438 19.007812 49.492188 19.027344 L 47.929688 19.839844 C 47.914062 19.847656 47.898438 19.851562 47.878906 19.851562 " fill-opacity="1" fill-rule="nonzero"/><path fill="#bd9d60" d="M 47.941406 40.632812 L 47.257812 42.757812 L 49.238281 41.308594 Z M 47.054688 43.152344 C 47.03125 43.152344 47.007812 43.144531 46.988281 43.128906 C 46.953125 43.101562 46.9375 43.054688 46.949219 43.007812 L 47.777344 40.441406 C 47.789062 40.414062 47.808594 40.386719 47.839844 40.375 C 47.867188 40.363281 47.902344 40.367188 47.929688 40.378906 L 49.492188 41.195312 C 49.523438 41.214844 49.546875 41.246094 49.546875 41.285156 C 49.550781 41.320312 49.535156 41.359375 49.503906 41.378906 L 47.117188 43.128906 C 47.097656 43.144531 47.074219 43.152344 47.054688 43.152344 " fill-opacity="1" fill-rule="nonzero"/><path fill="#bd9d60" d="M 50.859375 28.644531 L 51.21875 29.761719 L 51.59375 28.59375 Z M 51.21875 30.21875 C 51.171875 30.21875 51.132812 30.1875 51.117188 30.144531 L 50.613281 28.582031 C 50.605469 28.550781 50.609375 28.515625 50.625 28.488281 C 50.644531 28.460938 50.675781 28.441406 50.707031 28.4375 L 51.738281 28.367188 C 51.777344 28.367188 51.808594 28.378906 51.832031 28.410156 C 51.855469 28.4375 51.859375 28.476562 51.847656 28.507812 L 51.324219 30.144531 C 51.308594 30.1875 51.265625 30.21875 51.21875 30.21875 " fill-opacity="1" fill-rule="nonzero"/><path fill="#bd9d60" d="M 50.859375 31.574219 L 51.59375 31.625 L 51.21875 30.460938 Z M 51.746094 31.855469 C 51.746094 31.855469 51.742188 31.855469 51.738281 31.855469 L 50.707031 31.78125 C 50.675781 31.78125 50.644531 31.761719 50.625 31.734375 C 50.609375 31.707031 50.605469 31.671875 50.613281 31.640625 L 51.117188 30.078125 C 51.132812 30.03125 51.171875 30.003906 51.21875 30.003906 C 51.265625 30.003906 51.308594 30.03125 51.324219 30.078125 L 51.847656 31.710938 C 51.859375 31.746094 51.855469 31.785156 51.832031 31.8125 C 51.8125 31.839844 51.78125 31.855469 51.746094 31.855469 " fill-opacity="1" fill-rule="nonzero"/><path fill="#bd9d60" d="M 48.011719 40.421875 L 49.433594 41.164062 L 52.433594 38.96875 L 48.890625 37.695312 Z M 49.441406 41.398438 C 49.425781 41.398438 49.40625 41.398438 49.390625 41.386719 L 47.832031 40.574219 C 47.785156 40.546875 47.761719 40.492188 47.777344 40.441406 L 48.71875 37.523438 C 48.726562 37.496094 48.746094 37.472656 48.773438 37.460938 C 48.800781 37.449219 48.828125 37.445312 48.855469 37.457031 L 52.699219 38.832031 C 52.734375 38.84375 52.761719 38.878906 52.769531 38.917969 C 52.773438 38.957031 52.757812 38.996094 52.726562 39.023438 L 49.503906 41.378906 C 49.484375 41.394531 49.464844 41.398438 49.441406 41.398438 " fill-opacity="1" fill-rule="nonzero"/><path fill="#bd9d60" d="M 48.011719 19.796875 L 48.890625 22.523438 L 52.433594 21.253906 L 49.433594 19.054688 Z M 48.820312 22.773438 C 48.804688 22.773438 48.789062 22.769531 48.773438 22.761719 C 48.746094 22.75 48.726562 22.726562 48.71875 22.699219 L 47.777344 19.777344 C 47.761719 19.726562 47.785156 19.671875 47.832031 19.648438 L 49.390625 18.832031 C 49.425781 18.8125 49.472656 18.816406 49.503906 18.84375 L 52.726562 21.199219 C 52.757812 21.222656 52.773438 21.261719 52.769531 21.304688 C 52.761719 21.34375 52.734375 21.375 52.699219 21.390625 L 48.855469 22.765625 C 48.84375 22.769531 48.832031 22.773438 48.820312 22.773438 " fill-opacity="1" fill-rule="nonzero"/><g clip-path="url(#6bead3ac49)"><path fill="#bd9d60" d="M 49.894531 34.578125 L 52.738281 35.175781 L 51.667969 31.847656 L 50.792969 31.789062 Z M 52.898438 35.425781 C 52.890625 35.425781 52.882812 35.425781 52.878906 35.425781 L 49.734375 34.765625 C 49.703125 34.761719 49.675781 34.742188 49.660156 34.714844 C 49.644531 34.6875 49.644531 34.65625 49.652344 34.625 L 50.613281 31.640625 C 50.628906 31.59375 50.675781 31.5625 50.722656 31.566406 L 51.753906 31.636719 C 51.796875 31.640625 51.835938 31.671875 51.847656 31.710938 L 53 35.285156 C 53.011719 35.320312 53.003906 35.363281 52.980469 35.390625 C 52.957031 35.414062 52.929688 35.425781 52.898438 35.425781 " fill-opacity="1" fill-rule="nonzero"/></g><g clip-path="url(#ff7e3173ed)"><path fill="#bd9d60" d="M 49.894531 25.644531 L 50.792969 28.433594 L 51.667969 28.371094 L 52.738281 25.046875 Z M 50.714844 28.65625 C 50.667969 28.65625 50.628906 28.625 50.613281 28.582031 L 49.652344 25.59375 C 49.644531 25.566406 49.644531 25.53125 49.660156 25.507812 C 49.675781 25.480469 49.703125 25.460938 49.734375 25.453125 L 52.878906 24.796875 C 52.914062 24.789062 52.953125 24.800781 52.980469 24.832031 C 53.003906 24.859375 53.011719 24.898438 53 24.9375 L 51.847656 28.507812 C 51.835938 28.550781 51.796875 28.582031 51.753906 28.585938 L 50.722656 28.65625 C 50.722656 28.65625 50.71875 28.65625 50.714844 28.65625 " fill-opacity="1" fill-rule="nonzero"/></g><g clip-path="url(#552839b078)"><path fill="#bd9d60" d="M 48.957031 37.492188 L 52.644531 38.8125 L 53.667969 38.0625 L 52.816406 35.414062 L 49.828125 34.785156 Z M 52.664062 39.042969 C 52.648438 39.042969 52.636719 39.039062 52.625 39.035156 L 48.785156 37.660156 C 48.730469 37.640625 48.699219 37.582031 48.71875 37.523438 L 49.652344 34.625 C 49.667969 34.574219 49.722656 34.542969 49.777344 34.554688 L 52.921875 35.210938 C 52.957031 35.21875 52.988281 35.25 53 35.285156 L 53.898438 38.070312 C 53.914062 38.113281 53.898438 38.164062 53.859375 38.191406 L 52.726562 39.023438 C 52.707031 39.035156 52.683594 39.042969 52.664062 39.042969 " fill-opacity="1" fill-rule="nonzero"/></g><g clip-path="url(#d3d2ff8be1)"><path fill="#bd9d60" d="M 48.957031 22.730469 L 49.828125 25.433594 L 52.816406 24.808594 L 53.667969 22.160156 L 52.644531 21.410156 Z M 49.753906 25.667969 C 49.707031 25.667969 49.667969 25.640625 49.652344 25.59375 L 48.71875 22.699219 C 48.699219 22.640625 48.730469 22.582031 48.785156 22.5625 L 52.625 21.1875 C 52.660156 21.175781 52.695312 21.179688 52.726562 21.199219 L 53.859375 22.03125 C 53.898438 22.058594 53.914062 22.109375 53.898438 22.152344 L 53 24.9375 C 52.988281 24.972656 52.957031 25 52.921875 25.007812 L 49.777344 25.667969 C 49.769531 25.667969 49.761719 25.667969 49.753906 25.667969 " fill-opacity="1" fill-rule="nonzero"/></g><g clip-path="url(#d022d53053)"><path fill="#bd9d60" d="M 27.988281 16.851562 L 28.578125 17.691406 C 28.691406 17.832031 28.761719 18.011719 28.761719 18.207031 C 28.761719 18.457031 28.652344 18.679688 28.476562 18.828125 C 28.0625 19.203125 28.28125 19.546875 28.730469 19.761719 C 28.738281 20.320312 28.726562 20.683594 28.738281 20.921875 C 28.898438 21.039062 29.03125 21.191406 29.125 21.367188 C 29.28125 21.371094 29.4375 21.386719 29.582031 21.402344 C 31.695312 21.578125 33.59375 22.59375 35.582031 23.25 C 36.570312 23.578125 37.65625 23.679688 38.664062 23.363281 C 38.785156 23.324219 38.910156 23.285156 39.035156 23.246094 L 39.171875 22.867188 C 39.140625 22.863281 39.113281 22.859375 39.085938 22.847656 C 38.5625 22.765625 38.390625 22.066406 38.703125 21.675781 C 39.183594 20.960938 40.265625 21.03125 40.84375 21.578125 C 41.398438 22 41.398438 22.871094 40.933594 23.359375 C 40.660156 23.65625 40.332031 23.875 39.972656 24.039062 L 43.949219 35.203125 L 44.863281 35.203125 C 44.597656 35.359375 44.363281 35.539062 44.121094 35.660156 C 41.945312 36.925781 39.273438 37.183594 36.847656 36.546875 C 35.695312 36.214844 34.808594 35.835938 33.871094 35.207031 L 34.773438 35.207031 L 38.605469 24.453125 C 38.4375 24.488281 38.269531 24.515625 38.109375 24.542969 C 36.308594 24.796875 34.613281 24 32.960938 23.402344 C 31.730469 22.949219 30.457031 22.570312 29.136719 22.546875 L 29.136719 22.550781 C 29.042969 22.742188 28.902344 22.910156 28.726562 23.03125 L 28.726562 38.058594 C 28.726562 40.925781 31.410156 41.449219 31.960938 41.449219 C 32.511719 41.449219 33.023438 41.710938 33.023438 42.132812 C 34.148438 42.167969 35.484375 42.132812 36.324219 42.132812 C 37.164062 42.132812 37.792969 42.375 37.792969 43.078125 C 34.527344 43.101562 31.257812 43.089844 27.988281 43.09375 Z M 39.519531 21.769531 C 39.429688 21.769531 39.316406 21.789062 39.238281 21.832031 C 38.871094 21.980469 38.964844 22.523438 39.292969 22.535156 C 39.3125 22.480469 39.296875 22.425781 39.355469 22.414062 C 39.40625 22.40625 39.425781 22.46875 39.441406 22.503906 C 39.46875 22.492188 39.5 22.484375 39.527344 22.464844 C 39.867188 22.21875 39.324219 21.875 39.746094 21.996094 C 40.175781 22.273438 39.875 22.648438 39.535156 22.808594 L 39.609375 23.011719 C 39.8125 22.898438 39.996094 22.753906 40.125 22.550781 C 40.328125 22.148438 39.914062 21.773438 39.519531 21.773438 Z M 39.449219 22.84375 L 39.414062 22.855469 L 39.414062 23.105469 L 39.523438 23.054688 Z M 39.316406 22.871094 L 39.269531 22.875 L 39.152344 23.207031 L 39.316406 23.144531 Z M 39.890625 24.078125 C 39.734375 24.148438 39.574219 24.203125 39.410156 24.253906 L 39.40625 35.203125 L 43.851562 35.203125 Z M 39.316406 24.28125 L 38.714844 24.429688 L 34.871094 35.207031 L 39.308594 35.207031 L 39.320312 35.171875 Z M 39.316406 24.28125 " fill-opacity="1" fill-rule="nonzero"/></g><g clip-path="url(#acbd1d16c1)"><path fill="#bd9d60" d="M 27.992188 16.851562 L 27.402344 17.691406 C 27.289062 17.832031 27.21875 18.011719 27.21875 18.207031 C 27.21875 18.457031 27.328125 18.679688 27.503906 18.828125 C 27.917969 19.203125 27.699219 19.546875 27.25 19.761719 C 27.242188 20.320312 27.253906 20.683594 27.242188 20.921875 C 27.082031 21.039062 26.949219 21.191406 26.855469 21.367188 C 26.699219 21.371094 26.542969 21.386719 26.398438 21.402344 C 24.285156 21.578125 22.386719 22.59375 20.398438 23.25 C 19.410156 23.578125 18.324219 23.679688 17.316406 23.363281 C 17.195312 23.324219 17.070312 23.285156 16.945312 23.246094 L 16.808594 22.867188 C 16.839844 22.863281 16.867188 22.859375 16.894531 22.847656 C 17.417969 22.765625 17.589844 22.066406 17.277344 21.675781 C 16.796875 20.960938 15.714844 21.03125 15.136719 21.578125 C 14.585938 22 14.582031 22.871094 15.046875 23.359375 C 15.320312 23.65625 15.648438 23.875 16.007812 24.039062 L 12.03125 35.203125 L 11.117188 35.203125 C 11.382812 35.359375 11.617188 35.539062 11.863281 35.660156 C 14.035156 36.925781 16.707031 37.183594 19.132812 36.546875 C 20.285156 36.214844 21.171875 35.835938 22.109375 35.207031 L 21.207031 35.207031 L 17.375 24.453125 C 17.542969 24.488281 17.710938 24.515625 17.871094 24.542969 C 19.671875 24.796875 21.367188 24 23.019531 23.402344 C 24.25 22.949219 25.523438 22.570312 26.84375 22.546875 L 26.84375 22.550781 C 26.9375 22.742188 27.078125 22.910156 27.253906 23.03125 L 27.253906 38.058594 C 27.253906 40.925781 24.570312 41.449219 24.019531 41.449219 C 23.46875 41.449219 22.957031 41.710938 22.957031 42.132812 C 21.832031 42.167969 20.496094 42.132812 19.65625 42.132812 C 18.816406 42.132812 18.1875 42.375 18.1875 43.078125 C 21.453125 43.101562 24.722656 43.089844 27.992188 43.09375 Z M 16.460938 21.769531 C 16.550781 21.769531 16.664062 21.789062 16.742188 21.832031 C 17.109375 21.980469 17.015625 22.523438 16.6875 22.535156 C 16.667969 22.480469 16.683594 22.425781 16.625 22.414062 C 16.574219 22.40625 16.554688 22.46875 16.539062 22.503906 C 16.511719 22.492188 16.480469 22.484375 16.453125 22.464844 C 16.113281 22.21875 16.65625 21.875 16.234375 21.996094 C 15.804688 22.273438 16.105469 22.648438 16.445312 22.808594 L 16.371094 23.011719 C 16.167969 22.898438 15.984375 22.753906 15.855469 22.550781 C 15.652344 22.148438 16.066406 21.773438 16.460938 21.773438 Z M 16.53125 22.84375 L 16.566406 22.855469 L 16.566406 23.105469 L 16.457031 23.054688 Z M 16.664062 22.871094 L 16.710938 22.875 L 16.828125 23.207031 L 16.664062 23.144531 Z M 16.09375 24.078125 C 16.246094 24.148438 16.40625 24.203125 16.570312 24.253906 L 16.574219 35.203125 L 12.128906 35.203125 Z M 16.664062 24.28125 L 17.265625 24.429688 L 21.109375 35.207031 L 16.671875 35.207031 L 16.660156 35.171875 Z M 16.664062 24.28125 " fill-opacity="1" fill-rule="nonzero"/></g><g clip-path="url(#2edffc4978)"><path fill="#bd9d60" d="M 28.226562 10.929688 L 28.851562 12.195312 C 28.859375 12.21875 28.882812 12.234375 28.910156 12.238281 L 30.308594 12.441406 C 30.371094 12.449219 30.394531 12.527344 30.351562 12.566406 L 29.335938 13.550781 C 29.316406 13.570312 29.3125 13.59375 29.316406 13.621094 L 29.554688 15.011719 C 29.5625 15.074219 29.5 15.121094 29.445312 15.09375 L 28.191406 14.433594 C 28.167969 14.421875 28.140625 14.421875 28.121094 14.433594 L 26.867188 15.09375 C 26.8125 15.121094 26.746094 15.074219 26.757812 15.011719 L 26.996094 13.621094 C 27 13.59375 26.992188 13.570312 26.972656 13.550781 L 25.960938 12.566406 C 25.917969 12.523438 25.945312 12.449219 26.003906 12.441406 L 27.40625 12.238281 C 27.429688 12.234375 27.449219 12.21875 27.460938 12.195312 L 28.089844 10.929688 C 28.117188 10.875 28.195312 10.875 28.226562 10.929688 Z M 28.226562 10.929688 " fill-opacity="1" fill-rule="nonzero"/></g><g clip-path="url(#d031bdc6e0)"><path fill="#bd9d60" d="M 21.234375 46.042969 C 21.234375 41.898438 24.589844 38.542969 28.734375 38.542969 C 32.875 38.542969 36.21875 41.898438 36.21875 46.042969 Z M 21.234375 46.042969 " fill-opacity="1" fill-rule="nonzero"/></g></svg>