<svg xmlns="http://www.w3.org/2000/svg" xmlns:xlink="http://www.w3.org/1999/xlink" width="500" zoomAndPan="magnify" viewBox="0 0 375 374.999991" height="500" preserveAspectRatio="xMidYMid meet" version="1.0"><defs><clipPath id="53d5fe8661"><path d="M 57.558594 209 L 84 209 L 84 233 L 57.558594 233 Z M 57.558594 209 " clip-rule="nonzero"/></clipPath><clipPath id="0e587bbcce"><path d="M 57.558594 143 L 84 143 L 84 166 L 57.558594 166 Z M 57.558594 143 " clip-rule="nonzero"/></clipPath><clipPath id="596e4a3b78"><path d="M 170 53.023438 L 189 53.023438 L 189 76 L 170 76 Z M 170 53.023438 " clip-rule="nonzero"/></clipPath><clipPath id="344242e5b3"><path d="M 170.109375 299.214844 L 188.496094 299.214844 L 188.496094 322.148438 L 170.109375 322.148438 Z M 170.109375 299.214844 " clip-rule="nonzero"/></clipPath><clipPath id="8cb4398f0a"><path d="M 187 53.023438 L 205 53.023438 L 205 76 L 187 76 Z M 187 53.023438 " clip-rule="nonzero"/></clipPath><clipPath id="50279cadf3"><path d="M 187 299.214844 L 205 299.214844 L 205 322.148438 L 187 322.148438 Z M 187 299.214844 " clip-rule="nonzero"/></clipPath><clipPath id="9c2328ef61"><path d="M 291 209 L 317.808594 209 L 317.808594 233 L 291 233 Z M 291 209 " clip-rule="nonzero"/></clipPath><clipPath id="a4c28510fd"><path d="M 291 143 L 317.808594 143 L 317.808594 166 L 291 166 Z M 291 143 " clip-rule="nonzero"/></clipPath><clipPath id="65f588bed5"><path d="M 187 121.757812 L 272.566406 121.757812 L 272.566406 253 L 187 253 Z M 187 121.757812 " clip-rule="nonzero"/></clipPath><clipPath id="7637b299ae"><path d="M 102.316406 121.757812 L 188 121.757812 L 188 253 L 102.316406 253 Z M 102.316406 121.757812 " clip-rule="nonzero"/></clipPath><clipPath id="e250d9a035"><path d="M 178.246094 90.636719 L 196.808594 90.636719 L 196.808594 108.269531 L 178.246094 108.269531 Z M 178.246094 90.636719 " clip-rule="nonzero"/></clipPath><clipPath id="440448bbb8"><path d="M 151.59375 233.066406 L 223.59375 233.066406 L 223.59375 269.066406 L 151.59375 269.066406 Z M 151.59375 233.066406 " clip-rule="nonzero"/></clipPath></defs><path fill="#bd9d60" d="M 68.859375 196.347656 L 63.46875 212.929688 L 77.78125 209.960938 L 73.261719 196.042969 Z M 62.664062 214.1875 C 62.515625 214.1875 62.367188 214.125 62.261719 214.007812 C 62.132812 213.863281 62.089844 213.664062 62.148438 213.480469 L 67.941406 195.664062 C 68.011719 195.457031 68.199219 195.308594 68.421875 195.292969 L 73.605469 194.9375 C 73.859375 194.921875 74.082031 195.074219 74.160156 195.308594 L 78.996094 210.199219 C 79.039062 210.34375 79.023438 210.503906 78.949219 210.636719 C 78.871094 210.769531 78.742188 210.863281 78.589844 210.894531 L 62.777344 214.175781 C 62.738281 214.183594 62.703125 214.1875 62.664062 214.1875 " fill-opacity="1" fill-rule="nonzero"/><g clip-path="url(#53d5fe8661)"><path fill="#bd9d60" d="M 58.792969 227.324219 L 63.945312 231.066406 L 82.496094 224.480469 L 78.117188 210.992188 L 63.085938 214.113281 Z M 63.855469 232.214844 C 63.742188 232.214844 63.632812 232.179688 63.539062 232.113281 L 57.835938 227.96875 C 57.648438 227.832031 57.566406 227.585938 57.640625 227.363281 L 62.148438 213.480469 C 62.210938 213.296875 62.367188 213.160156 62.554688 213.117188 L 78.371094 209.835938 C 78.640625 209.78125 78.90625 209.9375 78.996094 210.199219 L 83.6875 224.644531 C 83.78125 224.925781 83.632812 225.222656 83.355469 225.320312 L 64.035156 232.183594 C 63.976562 232.203125 63.917969 232.214844 63.855469 232.214844 " fill-opacity="1" fill-rule="nonzero"/></g><path fill="#bd9d60" d="M 93.09375 253.574219 L 93.144531 253.730469 L 93.230469 253.671875 Z M 92.855469 255.136719 C 92.796875 255.136719 92.742188 255.128906 92.683594 255.109375 C 92.523438 255.054688 92.394531 254.925781 92.34375 254.761719 L 91.550781 252.324219 C 91.476562 252.105469 91.558594 251.859375 91.75 251.722656 C 91.9375 251.585938 92.195312 251.585938 92.382812 251.722656 L 94.476562 253.242188 C 94.617188 253.34375 94.703125 253.507812 94.699219 253.679688 C 94.699219 253.855469 94.613281 254.019531 94.46875 254.121094 L 93.164062 255.039062 C 93.074219 255.105469 92.964844 255.136719 92.855469 255.136719 " fill-opacity="1" fill-rule="nonzero"/><path fill="#bd9d60" d="M 65.003906 231.839844 L 80.101562 242.796875 L 87.25 239.097656 L 82.832031 225.507812 Z M 80.054688 243.972656 C 79.941406 243.972656 79.832031 243.9375 79.734375 243.871094 L 63.539062 232.113281 C 63.375 231.992188 63.292969 231.792969 63.320312 231.597656 C 63.347656 231.398438 63.484375 231.230469 63.675781 231.164062 L 82.992188 224.300781 C 83.132812 224.253906 83.28125 224.261719 83.414062 224.328125 C 83.546875 224.390625 83.644531 224.507812 83.6875 224.644531 L 88.421875 239.199219 C 88.503906 239.449219 88.390625 239.726562 88.15625 239.847656 L 80.300781 243.914062 C 80.222656 243.953125 80.140625 243.972656 80.054688 243.972656 " fill-opacity="1" fill-rule="nonzero"/><path fill="#bd9d60" d="M 81.078125 243.511719 L 91.035156 250.742188 L 87.589844 240.140625 Z M 92.066406 252.699219 C 91.953125 252.699219 91.84375 252.664062 91.75 252.597656 L 79.734375 243.871094 C 79.582031 243.757812 79.5 243.578125 79.515625 243.390625 C 79.527344 243.207031 79.640625 243.039062 79.804688 242.953125 L 87.660156 238.886719 C 87.796875 238.8125 87.964844 238.804688 88.113281 238.867188 C 88.257812 238.925781 88.371094 239.050781 88.421875 239.199219 L 92.582031 251.992188 C 92.652344 252.214844 92.574219 252.457031 92.382812 252.597656 C 92.289062 252.664062 92.175781 252.699219 92.066406 252.699219 " fill-opacity="1" fill-rule="nonzero"/><path fill="#bd9d60" d="M 81.078125 131.847656 L 87.589844 135.21875 L 91.035156 124.617188 Z M 87.90625 136.53125 C 87.820312 136.53125 87.738281 136.511719 87.660156 136.46875 L 79.804688 132.40625 C 79.640625 132.316406 79.527344 132.152344 79.515625 131.964844 C 79.5 131.78125 79.582031 131.597656 79.734375 131.488281 L 91.75 122.761719 C 91.9375 122.625 92.195312 122.625 92.382812 122.761719 C 92.574219 122.898438 92.652344 123.144531 92.582031 123.367188 L 88.421875 136.15625 C 88.371094 136.308594 88.257812 136.429688 88.113281 136.492188 C 88.046875 136.519531 87.976562 136.53125 87.90625 136.53125 " fill-opacity="1" fill-rule="nonzero"/><path fill="#bd9d60" d="M 71.109375 189.429688 L 69.21875 195.238281 L 72.917969 194.984375 Z M 68.457031 196.371094 C 68.292969 196.371094 68.136719 196.296875 68.03125 196.164062 C 67.921875 196.023438 67.886719 195.835938 67.941406 195.664062 L 70.59375 187.511719 C 70.667969 187.289062 70.875 187.140625 71.109375 187.140625 C 71.34375 187.140625 71.550781 187.289062 71.625 187.511719 L 74.160156 195.308594 C 74.210938 195.464844 74.1875 195.640625 74.09375 195.777344 C 74 195.917969 73.847656 196.003906 73.683594 196.015625 L 68.496094 196.371094 C 68.484375 196.371094 68.472656 196.371094 68.457031 196.371094 " fill-opacity="1" fill-rule="nonzero"/><path fill="#bd9d60" d="M 65.003906 143.519531 L 82.832031 149.851562 L 87.25 136.257812 L 80.101562 132.558594 Z M 83.175781 151.085938 C 83.113281 151.085938 83.054688 151.078125 82.992188 151.054688 L 63.675781 144.195312 C 63.484375 144.125 63.347656 143.960938 63.320312 143.761719 C 63.292969 143.5625 63.375 143.367188 63.539062 143.246094 L 79.734375 131.488281 C 79.902344 131.367188 80.121094 131.351562 80.300781 131.445312 L 88.15625 135.511719 C 88.390625 135.632812 88.503906 135.90625 88.421875 136.15625 L 83.6875 150.714844 C 83.644531 150.851562 83.546875 150.96875 83.414062 151.03125 C 83.339844 151.070312 83.253906 151.085938 83.175781 151.085938 " fill-opacity="1" fill-rule="nonzero"/><g clip-path="url(#0e587bbcce)"><path fill="#bd9d60" d="M 63.085938 161.246094 L 78.117188 164.367188 L 82.496094 150.878906 L 63.945312 144.289062 L 58.792969 148.035156 Z M 78.480469 165.535156 C 78.441406 165.535156 78.40625 165.527344 78.371094 165.523438 L 62.554688 162.242188 C 62.367188 162.199219 62.210938 162.0625 62.148438 161.878906 L 57.640625 147.992188 C 57.566406 147.773438 57.648438 147.527344 57.835938 147.390625 L 63.539062 143.246094 C 63.683594 143.140625 63.867188 143.113281 64.035156 143.175781 L 83.355469 150.035156 C 83.632812 150.136719 83.78125 150.433594 83.6875 150.714844 L 78.996094 165.160156 C 78.921875 165.386719 78.710938 165.535156 78.480469 165.535156 " fill-opacity="1" fill-rule="nonzero"/></g><path fill="#bd9d60" d="M 69.21875 180.121094 L 71.109375 185.929688 L 72.917969 180.375 Z M 71.109375 188.21875 C 70.875 188.21875 70.667969 188.066406 70.59375 187.847656 L 67.941406 179.691406 C 67.886719 179.519531 67.921875 179.335938 68.03125 179.195312 C 68.140625 179.050781 68.316406 178.972656 68.496094 178.988281 L 73.683594 179.34375 C 73.847656 179.355469 74 179.441406 74.09375 179.582031 C 74.1875 179.71875 74.210938 179.890625 74.160156 180.050781 L 71.625 187.847656 C 71.550781 188.066406 71.34375 188.21875 71.109375 188.21875 " fill-opacity="1" fill-rule="nonzero"/><path fill="#bd9d60" d="M 68.859375 179.011719 L 73.261719 179.3125 L 77.78125 165.402344 L 63.46875 162.429688 Z M 73.644531 180.421875 C 73.632812 180.421875 73.621094 180.421875 73.605469 180.421875 L 68.421875 180.066406 C 68.199219 180.050781 68.011719 179.902344 67.941406 179.691406 L 62.148438 161.878906 C 62.089844 161.695312 62.132812 161.492188 62.261719 161.351562 C 62.390625 161.207031 62.585938 161.144531 62.777344 161.179688 L 78.589844 164.460938 C 78.742188 164.496094 78.871094 164.589844 78.949219 164.71875 C 79.023438 164.851562 79.039062 165.015625 78.996094 165.160156 L 74.160156 180.050781 C 74.085938 180.273438 73.878906 180.421875 73.644531 180.421875 " fill-opacity="1" fill-rule="nonzero"/><path fill="#bd9d60" d="M 93.144531 121.625 L 93.09375 121.785156 L 93.230469 121.6875 Z M 92.066406 123.738281 C 91.953125 123.738281 91.84375 123.707031 91.75 123.636719 C 91.558594 123.5 91.476562 123.253906 91.550781 123.03125 L 92.34375 120.59375 C 92.394531 120.429688 92.523438 120.304688 92.683594 120.25 C 92.847656 120.195312 93.027344 120.21875 93.167969 120.316406 L 94.472656 121.238281 C 94.613281 121.339844 94.699219 121.5 94.699219 121.675781 C 94.699219 121.851562 94.617188 122.015625 94.476562 122.117188 L 92.382812 123.636719 C 92.289062 123.707031 92.175781 123.738281 92.066406 123.738281 " fill-opacity="1" fill-rule="nonzero"/><path fill="#bd9d60" d="M 93.492188 254.808594 L 98.5 270.207031 L 106.15625 263.0625 L 94.15625 254.34375 Z M 98.246094 271.71875 C 98.203125 271.71875 98.15625 271.714844 98.113281 271.703125 C 97.933594 271.65625 97.789062 271.523438 97.734375 271.347656 L 92.34375 254.765625 C 92.269531 254.539062 92.351562 254.292969 92.542969 254.15625 L 93.847656 253.238281 C 94.035156 253.101562 94.289062 253.105469 94.476562 253.242188 L 107.320312 262.574219 C 107.453125 262.667969 107.535156 262.816406 107.542969 262.976562 C 107.554688 263.140625 107.488281 263.296875 107.375 263.40625 L 98.617188 271.574219 C 98.515625 271.667969 98.382812 271.71875 98.246094 271.71875 " fill-opacity="1" fill-rule="nonzero"/><path fill="#bd9d60" d="M 93.492188 120.546875 L 94.15625 121.015625 L 106.15625 112.296875 L 98.5 105.152344 Z M 94.160156 122.222656 C 94.050781 122.222656 93.9375 122.1875 93.847656 122.121094 L 92.542969 121.203125 C 92.351562 121.066406 92.269531 120.820312 92.34375 120.59375 L 97.734375 104.011719 C 97.789062 103.835938 97.933594 103.699219 98.113281 103.65625 C 98.292969 103.609375 98.480469 103.65625 98.617188 103.785156 L 107.375 111.953125 C 107.488281 112.0625 107.554688 112.21875 107.542969 112.382812 C 107.535156 112.542969 107.453125 112.691406 107.320312 112.785156 L 94.476562 122.117188 C 94.378906 122.183594 94.269531 122.222656 94.160156 122.222656 " fill-opacity="1" fill-rule="nonzero"/><path fill="#bd9d60" d="M 98.867188 104.019531 L 107.046875 111.648438 L 118.402344 103.402344 L 104.585938 86.421875 Z M 107.003906 112.886719 C 106.871094 112.886719 106.738281 112.839844 106.632812 112.742188 L 97.878906 104.574219 C 97.726562 104.429688 97.667969 104.210938 97.734375 104.011719 L 103.867188 85.144531 C 103.929688 84.953125 104.085938 84.8125 104.28125 84.777344 C 104.476562 84.738281 104.675781 84.8125 104.800781 84.96875 L 119.605469 103.164062 C 119.695312 103.277344 119.738281 103.425781 119.71875 103.570312 C 119.699219 103.71875 119.621094 103.851562 119.503906 103.941406 L 107.320312 112.785156 C 107.226562 112.855469 107.117188 112.886719 107.003906 112.886719 " fill-opacity="1" fill-rule="nonzero"/><path fill="#bd9d60" d="M 98.867188 271.339844 L 104.585938 288.9375 L 118.402344 271.957031 L 107.046875 263.710938 Z M 104.378906 290.589844 C 104.347656 290.589844 104.3125 290.585938 104.28125 290.578125 C 104.085938 290.542969 103.929688 290.40625 103.867188 290.214844 L 97.734375 271.347656 C 97.667969 271.148438 97.726562 270.929688 97.878906 270.785156 L 106.632812 262.613281 C 106.824219 262.441406 107.113281 262.421875 107.320312 262.574219 L 119.503906 271.417969 C 119.621094 271.507812 119.699219 271.640625 119.71875 271.785156 C 119.738281 271.933594 119.695312 272.082031 119.605469 272.195312 L 104.800781 290.390625 C 104.695312 290.519531 104.542969 290.589844 104.378906 290.589844 " fill-opacity="1" fill-rule="nonzero"/><path fill="#bd9d60" d="M 104.984375 85.195312 L 119.28125 102.761719 L 130.457031 94.648438 L 119.019531 75.847656 L 108.023438 75.847656 Z M 119.183594 104.042969 C 119.027344 104.042969 118.871094 103.976562 118.761719 103.84375 L 103.960938 85.648438 C 103.84375 85.507812 103.808594 85.316406 103.867188 85.144531 L 107.117188 75.140625 C 107.191406 74.917969 107.398438 74.765625 107.632812 74.765625 L 119.324219 74.765625 C 119.511719 74.765625 119.6875 74.863281 119.785156 75.027344 L 131.640625 94.511719 C 131.789062 94.753906 131.722656 95.066406 131.496094 95.230469 L 119.503906 103.941406 C 119.40625 104.007812 119.296875 104.042969 119.183594 104.042969 " fill-opacity="1" fill-rule="nonzero"/><path fill="#bd9d60" d="M 108.023438 299.511719 L 119.019531 299.511719 L 130.457031 280.710938 L 119.28125 272.59375 L 104.984375 290.160156 Z M 119.324219 300.59375 L 107.632812 300.59375 C 107.398438 300.59375 107.191406 300.441406 107.117188 300.21875 L 103.867188 290.214844 C 103.808594 290.042969 103.84375 289.847656 103.960938 289.707031 L 118.761719 271.515625 C 118.945312 271.292969 119.269531 271.25 119.503906 271.417969 L 131.496094 280.128906 C 131.722656 280.292969 131.789062 280.605469 131.640625 280.84375 L 119.785156 300.332031 C 119.6875 300.492188 119.511719 300.59375 119.324219 300.59375 " fill-opacity="1" fill-rule="nonzero"/><path fill="#bd9d60" d="M 120.285156 75.847656 L 131.335938 94.011719 L 142.78125 85.695312 L 138.503906 75.847656 Z M 131.179688 95.332031 C 131.144531 95.332031 131.109375 95.328125 131.074219 95.324219 C 130.925781 95.292969 130.796875 95.203125 130.714844 95.074219 L 118.863281 75.589844 C 118.761719 75.421875 118.757812 75.210938 118.855469 75.042969 C 118.949219 74.871094 119.128906 74.765625 119.324219 74.765625 L 138.859375 74.765625 C 139.074219 74.765625 139.269531 74.894531 139.355469 75.09375 L 143.949219 85.660156 C 144.046875 85.894531 143.972656 86.164062 143.769531 86.316406 L 131.496094 95.230469 C 131.40625 95.296875 131.292969 95.332031 131.179688 95.332031 " fill-opacity="1" fill-rule="nonzero"/><path fill="#bd9d60" d="M 120.285156 299.511719 L 138.503906 299.511719 L 142.78125 289.664062 L 131.335938 281.347656 Z M 138.859375 300.59375 L 119.324219 300.59375 C 119.128906 300.59375 118.949219 300.488281 118.855469 300.316406 C 118.757812 300.144531 118.761719 299.9375 118.863281 299.769531 L 130.714844 280.285156 C 130.796875 280.15625 130.925781 280.066406 131.074219 280.035156 C 131.222656 280.007812 131.375 280.039062 131.496094 280.128906 L 143.769531 289.042969 C 143.972656 289.195312 144.046875 289.464844 143.949219 289.695312 L 139.355469 300.265625 C 139.269531 300.464844 139.074219 300.59375 138.859375 300.59375 " fill-opacity="1" fill-rule="nonzero"/><path fill="#bd9d60" d="M 139.683594 75.847656 L 143.679688 85.042969 L 155.875 76.1875 L 155.78125 75.847656 Z M 143.449219 86.417969 C 143.402344 86.417969 143.355469 86.410156 143.308594 86.398438 C 143.148438 86.355469 143.019531 86.242188 142.953125 86.089844 L 138.363281 75.523438 C 138.289062 75.355469 138.308594 75.160156 138.40625 75.007812 C 138.507812 74.859375 138.675781 74.765625 138.859375 74.765625 L 156.191406 74.765625 C 156.433594 74.765625 156.648438 74.929688 156.714844 75.164062 L 157.015625 76.261719 C 157.078125 76.476562 156.996094 76.710938 156.8125 76.84375 L 143.769531 86.316406 C 143.675781 86.382812 143.5625 86.417969 143.449219 86.417969 " fill-opacity="1" fill-rule="nonzero"/><path fill="#bd9d60" d="M 139.683594 299.511719 L 155.78125 299.511719 L 155.875 299.171875 L 143.679688 290.316406 Z M 156.191406 300.59375 L 138.859375 300.59375 C 138.675781 300.59375 138.507812 300.5 138.40625 300.347656 C 138.308594 300.195312 138.289062 300.003906 138.363281 299.835938 L 142.953125 289.265625 C 143.019531 289.117188 143.148438 289.003906 143.308594 288.960938 C 143.464844 288.917969 143.636719 288.945312 143.769531 289.042969 L 156.8125 298.515625 C 156.996094 298.648438 157.078125 298.878906 157.015625 299.097656 L 156.714844 300.195312 C 156.648438 300.429688 156.433594 300.59375 156.191406 300.59375 " fill-opacity="1" fill-rule="nonzero"/><path fill="#bd9d60" d="M 158.003906 300.59375 L 156.191406 300.59375 C 156.023438 300.59375 155.863281 300.511719 155.761719 300.378906 C 155.660156 300.246094 155.625 300.070312 155.671875 299.910156 L 155.976562 298.808594 C 156.019531 298.640625 156.148438 298.5 156.316406 298.441406 C 156.484375 298.386719 156.667969 298.414062 156.8125 298.515625 L 158.324219 299.613281 C 158.511719 299.753906 158.589844 299.996094 158.519531 300.21875 C 158.445312 300.441406 158.238281 300.59375 158.003906 300.59375 " fill-opacity="1" fill-rule="nonzero"/><path fill="#bd9d60" d="M 156.496094 76.945312 C 156.433594 76.945312 156.375 76.9375 156.316406 76.914062 C 156.148438 76.855469 156.019531 76.71875 155.976562 76.546875 L 155.671875 75.449219 C 155.625 75.289062 155.660156 75.113281 155.761719 74.980469 C 155.863281 74.84375 156.023438 74.765625 156.191406 74.765625 L 158.003906 74.765625 C 158.238281 74.765625 158.445312 74.917969 158.519531 75.140625 C 158.589844 75.363281 158.511719 75.605469 158.324219 75.746094 L 156.8125 76.839844 C 156.71875 76.910156 156.609375 76.945312 156.496094 76.945312 " fill-opacity="1" fill-rule="nonzero"/><path fill="#bd9d60" d="M 159.667969 74.765625 L 171.613281 74.765625 L 170.53125 66.878906 Z M 172.234375 75.847656 L 158.003906 75.847656 C 157.769531 75.847656 157.5625 75.695312 157.488281 75.472656 C 157.417969 75.25 157.496094 75.007812 157.6875 74.871094 L 170.628906 65.472656 C 170.78125 65.359375 170.984375 65.335938 171.160156 65.414062 C 171.332031 65.488281 171.457031 65.648438 171.480469 65.835938 L 172.769531 75.234375 C 172.792969 75.386719 172.746094 75.542969 172.640625 75.664062 C 172.539062 75.78125 172.390625 75.847656 172.234375 75.847656 " fill-opacity="1" fill-rule="nonzero"/><path fill="#bd9d60" d="M 159.667969 300.59375 L 170.53125 308.480469 L 171.613281 300.59375 Z M 170.945312 309.988281 C 170.835938 309.988281 170.722656 309.953125 170.628906 309.886719 L 157.6875 300.488281 C 157.496094 300.351562 157.417969 300.105469 157.488281 299.886719 C 157.5625 299.660156 157.769531 299.511719 158.003906 299.511719 L 172.234375 299.511719 C 172.390625 299.511719 172.539062 299.578125 172.640625 299.695312 C 172.746094 299.8125 172.792969 299.96875 172.769531 300.125 L 171.480469 309.523438 C 171.457031 309.710938 171.332031 309.871094 171.160156 309.945312 C 171.089844 309.972656 171.019531 309.988281 170.945312 309.988281 " fill-opacity="1" fill-rule="nonzero"/><path fill="#bd9d60" d="M 94.160156 121.679688 L 94.164062 121.679688 Z M 158.179688 299.511719 L 217.191406 299.511719 L 282.84375 251.824219 L 303.691406 187.679688 L 282.84375 123.53125 L 217.191406 75.847656 L 158.179688 75.847656 L 94.476562 122.117188 L 92.527344 123.53125 L 71.679688 187.679688 L 92.527344 251.824219 Z M 217.367188 300.59375 L 158.003906 300.59375 C 157.890625 300.59375 157.777344 300.554688 157.6875 300.488281 L 91.75 252.597656 C 91.65625 252.527344 91.585938 252.433594 91.550781 252.324219 L 70.59375 187.847656 C 70.558594 187.738281 70.558594 187.621094 70.59375 187.511719 L 91.550781 123.03125 C 91.585938 122.925781 91.65625 122.828125 91.75 122.761719 L 157.6875 74.871094 C 157.777344 74.800781 157.890625 74.765625 158.003906 74.765625 L 217.367188 74.765625 C 217.480469 74.765625 217.59375 74.800781 217.683594 74.871094 L 283.621094 122.761719 C 283.714844 122.828125 283.785156 122.925781 283.820312 123.03125 L 304.777344 187.511719 C 304.8125 187.621094 304.8125 187.738281 304.777344 187.847656 L 283.820312 252.324219 C 283.785156 252.433594 283.714844 252.527344 283.621094 252.597656 L 217.683594 300.488281 C 217.59375 300.554688 217.480469 300.59375 217.367188 300.59375 " fill-opacity="1" fill-rule="nonzero"/><g clip-path="url(#596e4a3b78)"><path fill="#bd9d60" d="M 172.707031 74.765625 L 187.144531 74.765625 L 187.144531 54.8125 L 171.527344 66.15625 Z M 187.683594 75.847656 L 172.234375 75.847656 C 171.964844 75.847656 171.734375 75.648438 171.699219 75.382812 L 170.410156 65.984375 C 170.382812 65.785156 170.46875 65.589844 170.628906 65.472656 L 187.367188 53.3125 C 187.535156 53.191406 187.75 53.175781 187.929688 53.269531 C 188.113281 53.363281 188.226562 53.546875 188.226562 53.75 L 188.226562 75.308594 C 188.226562 75.605469 187.984375 75.847656 187.683594 75.847656 " fill-opacity="1" fill-rule="nonzero"/></g><g clip-path="url(#344242e5b3)"><path fill="#bd9d60" d="M 171.527344 309.199219 L 187.144531 320.546875 L 187.144531 300.59375 L 172.707031 300.59375 Z M 187.683594 322.148438 C 187.574219 322.148438 187.460938 322.113281 187.367188 322.042969 L 170.628906 309.886719 C 170.46875 309.769531 170.382812 309.574219 170.410156 309.375 L 171.699219 299.976562 C 171.734375 299.710938 171.964844 299.511719 172.234375 299.511719 L 187.683594 299.511719 C 187.984375 299.511719 188.226562 299.753906 188.226562 300.050781 L 188.226562 321.609375 C 188.226562 321.8125 188.113281 321.996094 187.929688 322.089844 C 187.855469 322.128906 187.769531 322.148438 187.683594 322.148438 " fill-opacity="1" fill-rule="nonzero"/></g><g clip-path="url(#8cb4398f0a)"><path fill="#bd9d60" d="M 188.226562 74.765625 L 202.667969 74.765625 L 203.84375 66.15625 L 188.226562 54.8125 Z M 203.136719 75.847656 L 187.683594 75.847656 C 187.386719 75.847656 187.144531 75.605469 187.144531 75.308594 L 187.144531 53.75 C 187.144531 53.546875 187.257812 53.363281 187.441406 53.269531 C 187.621094 53.175781 187.835938 53.191406 188.003906 53.3125 L 204.742188 65.472656 C 204.902344 65.589844 204.988281 65.785156 204.960938 65.984375 L 203.675781 75.382812 C 203.636719 75.648438 203.40625 75.847656 203.136719 75.847656 " fill-opacity="1" fill-rule="nonzero"/></g><g clip-path="url(#50279cadf3)"><path fill="#bd9d60" d="M 188.226562 300.59375 L 188.226562 320.546875 L 203.84375 309.199219 L 202.667969 300.59375 Z M 187.683594 322.148438 C 187.601562 322.148438 187.519531 322.128906 187.441406 322.089844 C 187.257812 321.996094 187.144531 321.8125 187.144531 321.609375 L 187.144531 300.050781 C 187.144531 299.753906 187.386719 299.511719 187.683594 299.511719 L 203.136719 299.511719 C 203.40625 299.511719 203.636719 299.710938 203.675781 299.976562 L 204.960938 309.375 C 204.988281 309.574219 204.902344 309.769531 204.742188 309.886719 L 188.003906 322.042969 C 187.910156 322.113281 187.796875 322.148438 187.683594 322.148438 " fill-opacity="1" fill-rule="nonzero"/></g><path fill="#bd9d60" d="M 203.757812 300.59375 L 204.839844 308.480469 L 215.699219 300.59375 Z M 204.425781 309.988281 C 204.351562 309.988281 204.28125 309.972656 204.210938 309.945312 C 204.039062 309.871094 203.914062 309.710938 203.890625 309.523438 L 202.601562 300.125 C 202.578125 299.96875 202.628906 299.8125 202.730469 299.695312 C 202.832031 299.578125 202.980469 299.511719 203.136719 299.511719 L 217.367188 299.511719 C 217.601562 299.511719 217.808594 299.660156 217.882812 299.886719 C 217.953125 300.105469 217.875 300.351562 217.683594 300.488281 L 204.742188 309.886719 C 204.648438 309.953125 204.535156 309.988281 204.425781 309.988281 " fill-opacity="1" fill-rule="nonzero"/><path fill="#bd9d60" d="M 203.757812 74.765625 L 215.699219 74.765625 L 204.839844 66.878906 Z M 217.367188 75.847656 L 203.136719 75.847656 C 202.980469 75.847656 202.832031 75.78125 202.730469 75.664062 C 202.628906 75.542969 202.578125 75.386719 202.601562 75.234375 L 203.890625 65.835938 C 203.914062 65.648438 204.039062 65.488281 204.210938 65.414062 C 204.386719 65.335938 204.589844 65.359375 204.742188 65.472656 L 217.683594 74.871094 C 217.875 75.007812 217.953125 75.25 217.882812 75.472656 C 217.808594 75.695312 217.601562 75.847656 217.367188 75.847656 " fill-opacity="1" fill-rule="nonzero"/><path fill="#bd9d60" d="M 218.875 76.945312 C 218.761719 76.945312 218.648438 76.910156 218.558594 76.839844 L 217.050781 75.746094 C 216.859375 75.605469 216.78125 75.363281 216.851562 75.140625 C 216.925781 74.917969 217.132812 74.765625 217.367188 74.765625 L 219.179688 74.765625 C 219.347656 74.765625 219.507812 74.84375 219.609375 74.980469 C 219.710938 75.113281 219.746094 75.289062 219.699219 75.449219 L 219.394531 76.546875 C 219.351562 76.71875 219.222656 76.855469 219.054688 76.914062 C 218.996094 76.9375 218.9375 76.945312 218.875 76.945312 " fill-opacity="1" fill-rule="nonzero"/><path fill="#bd9d60" d="M 219.179688 300.59375 L 217.367188 300.59375 C 217.132812 300.59375 216.925781 300.441406 216.851562 300.21875 C 216.78125 299.996094 216.859375 299.753906 217.046875 299.613281 L 218.558594 298.515625 C 218.699219 298.414062 218.886719 298.386719 219.054688 298.441406 C 219.222656 298.5 219.351562 298.640625 219.394531 298.808594 L 219.699219 299.90625 C 219.746094 300.070312 219.710938 300.246094 219.609375 300.378906 C 219.507812 300.511719 219.347656 300.59375 219.179688 300.59375 " fill-opacity="1" fill-rule="nonzero"/><path fill="#bd9d60" d="M 219.496094 76.1875 L 231.691406 85.042969 L 235.6875 75.847656 L 219.589844 75.847656 Z M 231.917969 86.417969 C 231.808594 86.417969 231.695312 86.382812 231.601562 86.316406 L 218.558594 76.84375 C 218.375 76.710938 218.292969 76.476562 218.355469 76.261719 L 218.65625 75.164062 C 218.722656 74.929688 218.9375 74.765625 219.179688 74.765625 L 236.511719 74.765625 C 236.695312 74.765625 236.867188 74.859375 236.964844 75.007812 C 237.0625 75.160156 237.082031 75.355469 237.007812 75.523438 L 232.417969 86.089844 C 232.351562 86.242188 232.222656 86.355469 232.0625 86.398438 C 232.015625 86.410156 231.96875 86.417969 231.917969 86.417969 " fill-opacity="1" fill-rule="nonzero"/><path fill="#bd9d60" d="M 219.589844 299.511719 L 235.6875 299.511719 L 231.691406 290.316406 L 219.496094 299.171875 Z M 236.511719 300.59375 L 219.179688 300.59375 C 218.9375 300.59375 218.722656 300.429688 218.65625 300.195312 L 218.355469 299.097656 C 218.292969 298.878906 218.375 298.648438 218.558594 298.515625 L 231.601562 289.042969 C 231.734375 288.945312 231.90625 288.917969 232.0625 288.960938 C 232.222656 289.003906 232.351562 289.117188 232.417969 289.265625 L 237.007812 299.835938 C 237.082031 300.003906 237.0625 300.195312 236.964844 300.347656 C 236.867188 300.5 236.695312 300.59375 236.511719 300.59375 " fill-opacity="1" fill-rule="nonzero"/><path fill="#bd9d60" d="M 236.867188 299.511719 L 255.085938 299.511719 L 244.035156 281.347656 L 232.589844 289.664062 Z M 256.046875 300.59375 L 236.511719 300.59375 C 236.296875 300.59375 236.101562 300.464844 236.015625 300.265625 L 231.421875 289.695312 C 231.324219 289.464844 231.398438 289.195312 231.601562 289.042969 L 243.875 280.128906 C 243.996094 280.039062 244.148438 280.007812 244.296875 280.035156 C 244.445312 280.066406 244.578125 280.15625 244.65625 280.285156 L 256.507812 299.769531 C 256.609375 299.9375 256.613281 300.144531 256.519531 300.316406 C 256.421875 300.488281 256.242188 300.59375 256.046875 300.59375 " fill-opacity="1" fill-rule="nonzero"/><path fill="#bd9d60" d="M 232.589844 85.695312 L 244.035156 94.011719 L 255.085938 75.847656 L 236.867188 75.847656 Z M 244.191406 95.332031 C 244.078125 95.332031 243.96875 95.296875 243.875 95.230469 L 231.601562 86.316406 C 231.398438 86.164062 231.324219 85.894531 231.421875 85.660156 L 236.015625 75.09375 C 236.101562 74.894531 236.296875 74.765625 236.511719 74.765625 L 256.046875 74.765625 C 256.242188 74.765625 256.421875 74.871094 256.519531 75.042969 C 256.613281 75.210938 256.609375 75.421875 256.507812 75.589844 L 244.65625 95.074219 C 244.578125 95.203125 244.445312 95.292969 244.296875 95.324219 C 244.265625 95.328125 244.226562 95.332031 244.191406 95.332031 " fill-opacity="1" fill-rule="nonzero"/><path fill="#bd9d60" d="M 244.914062 94.648438 L 256.089844 102.761719 L 270.382812 85.195312 L 267.347656 75.847656 L 256.351562 75.847656 Z M 256.1875 104.042969 C 256.074219 104.042969 255.964844 104.007812 255.867188 103.941406 L 243.875 95.230469 C 243.648438 95.066406 243.582031 94.753906 243.730469 94.511719 L 255.585938 75.027344 C 255.683594 74.863281 255.859375 74.765625 256.046875 74.765625 L 267.738281 74.765625 C 267.972656 74.765625 268.179688 74.917969 268.253906 75.140625 L 271.503906 85.144531 C 271.5625 85.316406 271.527344 85.507812 271.410156 85.648438 L 256.609375 103.84375 C 256.5 103.976562 256.34375 104.042969 256.1875 104.042969 " fill-opacity="1" fill-rule="nonzero"/><path fill="#bd9d60" d="M 256.351562 299.511719 L 267.347656 299.511719 L 270.382812 290.160156 L 256.089844 272.59375 L 244.914062 280.710938 Z M 267.738281 300.59375 L 256.046875 300.59375 C 255.859375 300.59375 255.683594 300.492188 255.585938 300.332031 L 243.730469 280.84375 C 243.582031 280.605469 243.648438 280.292969 243.875 280.128906 L 255.867188 271.417969 C 256.101562 271.25 256.425781 271.292969 256.609375 271.515625 L 271.410156 289.707031 C 271.527344 289.847656 271.5625 290.042969 271.503906 290.214844 L 268.253906 300.21875 C 268.179688 300.441406 267.972656 300.59375 267.738281 300.59375 " fill-opacity="1" fill-rule="nonzero"/><path fill="#bd9d60" d="M 256.96875 103.402344 L 268.324219 111.648438 L 276.503906 104.019531 L 270.785156 86.421875 Z M 268.367188 112.886719 C 268.257812 112.886719 268.144531 112.855469 268.050781 112.785156 L 255.867188 103.941406 C 255.75 103.851562 255.671875 103.71875 255.652344 103.570312 C 255.632812 103.425781 255.675781 103.277344 255.769531 103.164062 L 270.570312 84.96875 C 270.695312 84.8125 270.890625 84.738281 271.089844 84.777344 C 271.285156 84.8125 271.441406 84.953125 271.503906 85.144531 L 277.636719 104.011719 C 277.703125 104.210938 277.644531 104.429688 277.492188 104.574219 L 268.738281 112.742188 C 268.632812 112.839844 268.5 112.886719 268.367188 112.886719 " fill-opacity="1" fill-rule="nonzero"/><path fill="#bd9d60" d="M 256.96875 271.957031 L 270.785156 288.9375 L 276.503906 271.339844 L 268.324219 263.710938 Z M 270.992188 290.589844 C 270.832031 290.589844 270.675781 290.519531 270.570312 290.390625 L 255.769531 272.195312 C 255.675781 272.082031 255.632812 271.933594 255.652344 271.785156 C 255.671875 271.640625 255.75 271.507812 255.867188 271.417969 L 268.050781 262.574219 C 268.257812 262.421875 268.546875 262.4375 268.738281 262.613281 L 277.492188 270.785156 C 277.644531 270.929688 277.703125 271.148438 277.636719 271.347656 L 271.503906 290.214844 C 271.441406 290.40625 271.285156 290.542969 271.089844 290.578125 C 271.054688 290.585938 271.023438 290.589844 270.992188 290.589844 " fill-opacity="1" fill-rule="nonzero"/><path fill="#bd9d60" d="M 269.214844 263.0625 L 276.871094 270.207031 L 281.878906 254.808594 L 281.214844 254.34375 Z M 277.125 271.71875 C 276.988281 271.71875 276.855469 271.667969 276.753906 271.574219 L 267.996094 263.40625 C 267.878906 263.296875 267.816406 263.140625 267.828125 262.976562 C 267.835938 262.816406 267.917969 262.667969 268.050781 262.574219 L 280.894531 253.242188 C 281.082031 253.105469 281.335938 253.101562 281.523438 253.238281 L 282.824219 254.15625 C 283.019531 254.292969 283.101562 254.539062 283.027344 254.765625 L 277.636719 271.347656 C 277.582031 271.523438 277.4375 271.65625 277.257812 271.703125 C 277.210938 271.714844 277.167969 271.71875 277.125 271.71875 " fill-opacity="1" fill-rule="nonzero"/><path fill="#bd9d60" d="M 269.214844 112.296875 L 281.214844 121.015625 L 281.878906 120.546875 L 276.871094 105.152344 Z M 281.210938 122.222656 C 281.101562 122.222656 280.988281 122.183594 280.894531 122.117188 L 268.050781 112.785156 C 267.917969 112.691406 267.835938 112.542969 267.828125 112.382812 C 267.816406 112.21875 267.878906 112.0625 267.996094 111.953125 L 276.753906 103.785156 C 276.890625 103.65625 277.078125 103.609375 277.257812 103.65625 C 277.4375 103.699219 277.582031 103.835938 277.636719 104.011719 L 283.027344 120.59375 C 283.101562 120.820312 283.019531 121.066406 282.824219 121.203125 L 281.523438 122.121094 C 281.429688 122.1875 281.320312 122.222656 281.210938 122.222656 " fill-opacity="1" fill-rule="nonzero"/><path fill="#bd9d60" d="M 282.140625 253.671875 L 282.226562 253.730469 L 282.277344 253.570312 Z M 282.515625 255.136719 C 282.40625 255.136719 282.296875 255.105469 282.203125 255.039062 L 280.902344 254.121094 C 280.757812 254.019531 280.671875 253.855469 280.671875 253.679688 C 280.671875 253.507812 280.753906 253.34375 280.894531 253.242188 L 282.988281 251.722656 C 283.175781 251.585938 283.433594 251.585938 283.621094 251.722656 C 283.8125 251.859375 283.894531 252.105469 283.820312 252.324219 L 283.027344 254.761719 C 282.976562 254.925781 282.847656 255.054688 282.6875 255.109375 C 282.632812 255.128906 282.574219 255.136719 282.515625 255.136719 " fill-opacity="1" fill-rule="nonzero"/><path fill="#bd9d60" d="M 282.140625 121.6875 L 282.277344 121.785156 L 282.226562 121.625 Z M 283.304688 123.738281 C 283.195312 123.738281 283.082031 123.707031 282.988281 123.636719 L 280.894531 122.117188 C 280.753906 122.015625 280.671875 121.851562 280.671875 121.675781 C 280.671875 121.5 280.757812 121.339844 280.902344 121.238281 L 282.203125 120.316406 C 282.34375 120.222656 282.523438 120.195312 282.6875 120.25 C 282.847656 120.304688 282.976562 120.429688 283.027344 120.59375 L 283.820312 123.03125 C 283.894531 123.253906 283.8125 123.5 283.621094 123.636719 C 283.527344 123.707031 283.417969 123.738281 283.304688 123.738281 " fill-opacity="1" fill-rule="nonzero"/><path fill="#bd9d60" d="M 284.335938 124.617188 L 287.78125 135.21875 L 294.289062 131.847656 Z M 287.464844 136.53125 C 287.394531 136.53125 287.324219 136.519531 287.257812 136.492188 C 287.113281 136.429688 287 136.308594 286.949219 136.15625 L 282.789062 123.367188 C 282.71875 123.144531 282.796875 122.898438 282.988281 122.761719 C 283.175781 122.625 283.433594 122.625 283.621094 122.761719 L 295.636719 131.488281 C 295.785156 131.597656 295.871094 131.78125 295.855469 131.964844 C 295.84375 132.152344 295.730469 132.316406 295.566406 132.40625 L 287.710938 136.46875 C 287.636719 136.511719 287.550781 136.53125 287.464844 136.53125 " fill-opacity="1" fill-rule="nonzero"/><path fill="#bd9d60" d="M 287.78125 240.140625 L 284.335938 250.742188 L 294.289062 243.511719 Z M 283.304688 252.699219 C 283.195312 252.699219 283.082031 252.664062 282.988281 252.597656 C 282.796875 252.457031 282.71875 252.214844 282.789062 251.992188 L 286.949219 239.199219 C 287 239.050781 287.113281 238.925781 287.257812 238.867188 C 287.40625 238.804688 287.574219 238.8125 287.710938 238.886719 L 295.566406 242.953125 C 295.730469 243.039062 295.84375 243.207031 295.855469 243.390625 C 295.871094 243.578125 295.785156 243.757812 295.636719 243.871094 L 283.621094 252.597656 C 283.53125 252.664062 283.417969 252.699219 283.304688 252.699219 " fill-opacity="1" fill-rule="nonzero"/><path fill="#bd9d60" d="M 302.453125 180.375 L 304.261719 185.929688 L 306.148438 180.121094 Z M 304.261719 188.21875 C 304.027344 188.21875 303.820312 188.066406 303.746094 187.847656 L 301.210938 180.050781 C 301.160156 179.890625 301.183594 179.71875 301.277344 179.582031 C 301.371094 179.441406 301.523438 179.355469 301.691406 179.34375 L 306.875 178.988281 C 307.054688 178.976562 307.230469 179.050781 307.339844 179.195312 C 307.449219 179.335938 307.484375 179.519531 307.425781 179.691406 L 304.777344 187.847656 C 304.703125 188.066406 304.496094 188.21875 304.261719 188.21875 " fill-opacity="1" fill-rule="nonzero"/><path fill="#bd9d60" d="M 302.453125 194.984375 L 306.148438 195.238281 L 304.261719 189.429688 Z M 306.914062 196.371094 C 306.902344 196.371094 306.886719 196.371094 306.875 196.371094 L 301.691406 196.015625 C 301.523438 196.003906 301.371094 195.917969 301.277344 195.777344 C 301.183594 195.640625 301.160156 195.464844 301.210938 195.308594 L 303.746094 187.511719 C 303.820312 187.289062 304.027344 187.140625 304.261719 187.140625 C 304.496094 187.140625 304.703125 187.289062 304.777344 187.511719 L 307.425781 195.664062 C 307.484375 195.835938 307.449219 196.023438 307.339844 196.164062 C 307.234375 196.296875 307.078125 196.371094 306.914062 196.371094 " fill-opacity="1" fill-rule="nonzero"/><path fill="#bd9d60" d="M 288.121094 239.097656 L 295.269531 242.796875 L 310.367188 231.839844 L 292.539062 225.507812 Z M 295.316406 243.972656 C 295.230469 243.972656 295.148438 243.953125 295.070312 243.914062 L 287.214844 239.847656 C 286.980469 239.726562 286.867188 239.449219 286.949219 239.199219 L 291.683594 224.644531 C 291.726562 224.507812 291.828125 224.390625 291.957031 224.328125 C 292.089844 224.261719 292.238281 224.253906 292.378906 224.300781 L 311.699219 231.164062 C 311.886719 231.230469 312.023438 231.398438 312.050781 231.597656 C 312.078125 231.792969 311.996094 231.992188 311.832031 232.113281 L 295.636719 243.871094 C 295.539062 243.9375 295.429688 243.972656 295.316406 243.972656 " fill-opacity="1" fill-rule="nonzero"/><path fill="#bd9d60" d="M 288.121094 136.257812 L 292.539062 149.851562 L 310.367188 143.519531 L 295.269531 132.558594 Z M 292.195312 151.085938 C 292.117188 151.085938 292.03125 151.070312 291.957031 151.03125 C 291.828125 150.96875 291.726562 150.851562 291.683594 150.714844 L 286.949219 136.15625 C 286.867188 135.90625 286.980469 135.632812 287.214844 135.511719 L 295.070312 131.445312 C 295.25 131.351562 295.46875 131.367188 295.636719 131.488281 L 311.832031 143.246094 C 311.996094 143.367188 312.078125 143.5625 312.050781 143.761719 C 312.023438 143.960938 311.886719 144.125 311.699219 144.195312 L 292.378906 151.054688 C 292.320312 151.078125 292.257812 151.085938 292.195312 151.085938 " fill-opacity="1" fill-rule="nonzero"/><path fill="#bd9d60" d="M 297.589844 209.960938 L 311.902344 212.929688 L 306.511719 196.347656 L 302.109375 196.042969 Z M 312.703125 214.1875 C 312.667969 214.1875 312.632812 214.183594 312.59375 214.175781 L 296.78125 210.894531 C 296.628906 210.863281 296.5 210.769531 296.421875 210.636719 C 296.34375 210.503906 296.328125 210.34375 296.375 210.199219 L 301.210938 195.308594 C 301.289062 195.074219 301.515625 194.925781 301.765625 194.9375 L 306.949219 195.292969 C 307.167969 195.308594 307.359375 195.457031 307.425781 195.664062 L 313.21875 213.480469 C 313.28125 213.664062 313.238281 213.863281 313.109375 214.007812 C 313.003906 214.125 312.855469 214.1875 312.703125 214.1875 " fill-opacity="1" fill-rule="nonzero"/><path fill="#bd9d60" d="M 297.589844 165.402344 L 302.109375 179.3125 L 306.511719 179.011719 L 311.902344 162.429688 Z M 301.726562 180.421875 C 301.492188 180.421875 301.285156 180.273438 301.210938 180.050781 L 296.375 165.160156 C 296.328125 165.015625 296.34375 164.851562 296.421875 164.71875 C 296.5 164.589844 296.628906 164.496094 296.78125 164.460938 L 312.59375 161.179688 C 312.78125 161.144531 312.980469 161.207031 313.109375 161.351562 C 313.238281 161.492188 313.28125 161.695312 313.21875 161.878906 L 307.425781 179.691406 C 307.359375 179.902344 307.167969 180.050781 306.949219 180.066406 L 301.765625 180.421875 C 301.75 180.421875 301.738281 180.421875 301.726562 180.421875 " fill-opacity="1" fill-rule="nonzero"/><g clip-path="url(#9c2328ef61)"><path fill="#bd9d60" d="M 292.875 224.480469 L 311.425781 231.066406 L 316.578125 227.324219 L 312.289062 214.113281 L 297.253906 210.992188 Z M 311.515625 232.214844 C 311.453125 232.214844 311.394531 232.203125 311.332031 232.183594 L 292.015625 225.320312 C 291.738281 225.222656 291.589844 224.925781 291.683594 224.644531 L 296.375 210.199219 C 296.460938 209.9375 296.730469 209.785156 297 209.835938 L 312.816406 213.117188 C 313.003906 213.160156 313.160156 213.296875 313.21875 213.480469 L 317.730469 227.363281 C 317.804688 227.585938 317.722656 227.832031 317.535156 227.96875 L 311.832031 232.113281 C 311.738281 232.179688 311.628906 232.214844 311.515625 232.214844 " fill-opacity="1" fill-rule="nonzero"/></g><g clip-path="url(#a4c28510fd)"><path fill="#bd9d60" d="M 292.875 150.878906 L 297.253906 164.367188 L 312.289062 161.246094 L 316.578125 148.035156 L 311.425781 144.289062 Z M 296.890625 165.535156 C 296.660156 165.535156 296.449219 165.386719 296.375 165.160156 L 291.683594 150.714844 C 291.589844 150.433594 291.738281 150.136719 292.015625 150.035156 L 311.332031 143.175781 C 311.503906 143.117188 311.6875 143.140625 311.832031 143.246094 L 317.535156 147.390625 C 317.722656 147.527344 317.804688 147.773438 317.730469 147.992188 L 313.21875 161.878906 C 313.160156 162.0625 313.003906 162.199219 312.816406 162.242188 L 297 165.523438 C 296.964844 165.527344 296.925781 165.535156 296.890625 165.535156 " fill-opacity="1" fill-rule="nonzero"/></g><g clip-path="url(#65f588bed5)"><path fill="#bd9d60" d="M 187.429688 121.757812 L 190.40625 125.960938 C 190.984375 126.664062 191.332031 127.558594 191.332031 128.539062 C 191.332031 129.785156 190.769531 130.902344 189.886719 131.644531 C 187.8125 133.523438 188.898438 135.226562 191.167969 136.3125 C 191.21875 139.097656 191.152344 140.917969 191.210938 142.109375 C 192.019531 142.6875 192.6875 143.453125 193.160156 144.335938 C 193.953125 144.351562 194.742188 144.429688 195.472656 144.511719 C 206.136719 145.398438 215.710938 150.46875 225.722656 153.742188 C 230.722656 155.390625 236.191406 155.894531 241.273438 154.3125 C 241.882812 154.121094 242.511719 153.933594 243.144531 153.726562 L 243.828125 151.84375 C 243.683594 151.820312 243.542969 151.789062 243.40625 151.742188 C 240.757812 151.320312 239.898438 147.835938 241.460938 145.871094 C 243.886719 142.308594 249.347656 142.648438 252.273438 145.382812 C 255.054688 147.503906 255.058594 151.847656 252.722656 154.292969 C 251.34375 155.78125 249.683594 156.871094 247.878906 157.699219 L 267.921875 213.515625 L 272.542969 213.511719 C 271.195312 214.304688 270.023438 215.203125 268.785156 215.796875 C 257.824219 222.136719 244.34375 223.414062 232.109375 220.226562 C 226.304688 218.574219 221.824219 216.6875 217.101562 213.542969 L 221.644531 213.539062 L 240.972656 159.769531 C 240.132812 159.933594 239.292969 160.078125 238.46875 160.214844 C 229.386719 161.476562 220.847656 157.496094 212.507812 154.519531 C 206.3125 152.246094 199.882812 150.351562 193.234375 150.226562 L 193.234375 150.246094 C 192.75 151.214844 192.035156 152.046875 191.15625 152.664062 L 191.15625 227.800781 C 191.15625 242.121094 204.679688 244.753906 207.46875 244.753906 C 210.246094 244.753906 212.832031 246.050781 212.832031 248.164062 C 218.503906 248.332031 225.234375 248.164062 229.472656 248.164062 C 233.710938 248.164062 236.882812 249.378906 236.882812 252.890625 C 220.402344 253.011719 203.910156 252.941406 187.429688 252.960938 Z M 245.589844 146.355469 C 245.136719 146.355469 244.574219 146.445312 244.171875 146.667969 C 242.320312 147.398438 242.78125 150.113281 244.441406 150.171875 C 244.546875 149.910156 244.472656 149.636719 244.753906 149.578125 C 245.015625 149.527344 245.113281 149.835938 245.183594 150.023438 C 245.320312 149.96875 245.488281 149.921875 245.632812 149.828125 C 247.339844 148.601562 244.601562 146.871094 246.742188 147.488281 C 248.898438 148.871094 247.378906 150.742188 245.675781 151.542969 L 246.039062 152.554688 C 247.074219 151.992188 247.988281 151.261719 248.644531 150.253906 C 249.675781 148.25 247.570312 146.359375 245.59375 146.359375 Z M 245.226562 151.722656 L 245.046875 151.773438 L 245.046875 153.03125 L 245.609375 152.773438 Z M 244.566406 151.863281 L 244.324219 151.878906 L 243.726562 153.539062 L 244.566406 153.230469 Z M 247.449219 157.898438 C 246.667969 158.234375 245.863281 158.519531 245.042969 158.773438 L 245.019531 213.523438 L 267.4375 213.515625 Z M 244.566406 158.914062 L 241.527344 159.652344 L 222.144531 213.539062 L 244.527344 213.53125 L 244.574219 213.359375 Z M 244.566406 158.914062 " fill-opacity="1" fill-rule="nonzero"/></g><g clip-path="url(#7637b299ae)"><path fill="#bd9d60" d="M 187.453125 121.757812 L 184.476562 125.960938 C 183.894531 126.664062 183.546875 127.558594 183.546875 128.539062 C 183.546875 129.785156 184.109375 130.902344 184.996094 131.644531 C 187.070312 133.523438 185.984375 135.226562 183.714844 136.3125 C 183.664062 139.097656 183.730469 140.917969 183.671875 142.109375 C 182.863281 142.6875 182.195312 143.453125 181.722656 144.335938 C 180.929688 144.351562 180.140625 144.429688 179.410156 144.511719 C 168.746094 145.398438 159.171875 150.46875 149.160156 153.742188 C 144.160156 155.390625 138.6875 155.894531 133.609375 154.3125 C 133 154.121094 132.371094 153.933594 131.738281 153.726562 L 131.054688 151.84375 C 131.199219 151.820312 131.339844 151.789062 131.476562 151.742188 C 134.125 151.320312 134.984375 147.835938 133.421875 145.871094 C 130.996094 142.308594 125.535156 142.648438 122.609375 145.382812 C 119.828125 147.503906 119.824219 151.847656 122.160156 154.292969 C 123.539062 155.78125 125.199219 156.871094 127.003906 157.699219 L 106.960938 213.515625 L 102.339844 213.511719 C 103.683594 214.304688 104.859375 215.203125 106.097656 215.796875 C 117.058594 222.136719 130.539062 223.414062 142.769531 220.226562 C 148.578125 218.574219 153.058594 216.6875 157.777344 213.542969 L 153.238281 213.539062 L 133.910156 159.769531 C 134.75 159.933594 135.589844 160.078125 136.414062 160.214844 C 145.496094 161.476562 154.035156 157.496094 162.371094 154.519531 C 168.570312 152.246094 175 150.351562 181.648438 150.226562 L 181.648438 150.246094 C 182.128906 151.214844 182.847656 152.046875 183.722656 152.664062 L 183.722656 227.800781 C 183.722656 242.121094 170.199219 244.753906 167.414062 244.753906 C 164.636719 244.753906 162.050781 246.050781 162.050781 248.164062 C 156.378906 248.332031 149.648438 248.164062 145.410156 248.164062 C 141.171875 248.164062 138 249.378906 138 252.890625 C 154.480469 253.011719 170.96875 252.941406 187.449219 252.960938 Z M 129.289062 146.355469 C 129.746094 146.355469 130.308594 146.445312 130.710938 146.667969 C 132.5625 147.398438 132.101562 150.113281 130.441406 150.171875 C 130.335938 149.910156 130.410156 149.636719 130.128906 149.578125 C 129.867188 149.527344 129.769531 149.835938 129.699219 150.023438 C 129.558594 149.96875 129.390625 149.921875 129.25 149.828125 C 127.539062 148.601562 130.28125 146.871094 128.140625 147.488281 C 125.984375 148.871094 127.503906 150.742188 129.207031 151.542969 L 128.84375 152.554688 C 127.808594 151.992188 126.894531 151.261719 126.238281 150.253906 C 125.207031 148.25 127.3125 146.359375 129.289062 146.359375 Z M 129.652344 151.722656 L 129.835938 151.773438 L 129.835938 153.03125 L 129.273438 152.773438 Z M 130.316406 151.863281 L 130.558594 151.878906 L 131.15625 153.539062 L 130.316406 153.230469 Z M 127.433594 157.898438 C 128.214844 158.234375 129.019531 158.519531 129.835938 158.773438 L 129.859375 213.523438 L 107.445312 213.515625 Z M 130.316406 158.914062 L 133.351562 159.652344 L 152.738281 213.539062 L 130.355469 213.53125 L 130.308594 213.359375 Z M 130.316406 158.914062 " fill-opacity="1" fill-rule="nonzero"/></g><path stroke-linecap="round" transform="matrix(2.237054, 0, 0, 2.304, 48.595153, 187.164669)" fill="none" stroke-linejoin="miter" d="M 0.50052 -0.000263372 L 17.607632 -0.000263372 " stroke="#bd9d60" stroke-width="1" stroke-opacity="1" stroke-miterlimit="4"/><path stroke-linecap="round" transform="matrix(2.237054, 0, 0, 2.304, 283.073247, 187.164669)" fill="none" stroke-linejoin="miter" d="M 0.499836 -0.000263372 L 17.606948 -0.000263372 " stroke="#bd9d60" stroke-width="1" stroke-opacity="1" stroke-miterlimit="4"/><path stroke-linecap="round" transform="matrix(2.251879, 0, 0, 2.304, 33.12885, 74.795738)" fill="none" stroke-linejoin="miter" d="M 0.499608 0.000493364 L 136.719198 0.000493364 " stroke="#bd9d60" stroke-width="1" stroke-opacity="1" stroke-miterlimit="4"/><path stroke-linecap="round" transform="matrix(2.251879, 0, 0, 2.304, 33.12885, 298.940546)" fill="none" stroke-linejoin="miter" d="M 0.499608 0.000373386 L 136.719198 0.000373386 " stroke="#bd9d60" stroke-width="1" stroke-opacity="1" stroke-miterlimit="4"/><g clip-path="url(#e250d9a035)"><path fill="#bd9d60" d="M 187.804688 90.808594 L 190.425781 96.113281 C 190.464844 96.207031 190.558594 96.273438 190.664062 96.285156 L 196.527344 97.132812 C 196.78125 97.171875 196.886719 97.492188 196.699219 97.664062 L 192.460938 101.789062 C 192.378906 101.851562 192.351562 101.960938 192.367188 102.066406 L 193.363281 107.898438 C 193.402344 108.152344 193.136719 108.347656 192.910156 108.230469 L 187.660156 105.472656 C 187.566406 105.417969 187.460938 105.417969 187.367188 105.472656 L 182.117188 108.230469 C 181.890625 108.347656 181.625 108.152344 181.664062 107.898438 L 182.660156 102.066406 C 182.671875 101.960938 182.648438 101.867188 182.566406 101.789062 L 178.339844 97.664062 C 178.152344 97.480469 178.257812 97.171875 178.511719 97.132812 L 184.375 96.285156 C 184.480469 96.273438 184.5625 96.207031 184.613281 96.113281 L 187.234375 90.808594 C 187.355469 90.585938 187.6875 90.585938 187.804688 90.808594 Z M 187.804688 90.808594 " fill-opacity="1" fill-rule="nonzero"/></g><g clip-path="url(#440448bbb8)"><path fill="#bd9d60" d="M 151.628906 269.066406 C 151.628906 249.183594 167.742188 233.066406 187.625 233.066406 C 207.507812 233.066406 223.558594 249.183594 223.558594 269.066406 Z M 151.628906 269.066406 " fill-opacity="1" fill-rule="nonzero"/></g></svg>